<svg width="45" height="38" viewBox="0 0 45 38" fill="none" xmlns="http://www.w3.org/2000/svg">
<path fill-rule="evenodd" clip-rule="evenodd" d="M21.5188 4.06C23.023 4.06 24.3933 4.92718 25.041 6.28683L30.2013 17.1426C30.2013 17.1426 30.2012 17.1479 30.1959 17.1479C30.1959 17.1479 30.1959 17.1426 30.2013 17.1426C31.411 15.6598 32.2889 13.9148 32.6636 12.0412C33.0865 9.92683 35.142 8.56183 37.2564 8.97935C37.7591 9.07977 38.237 9.27824 38.663 9.56343C39.0889 9.84861 39.4545 10.2149 39.7389 10.6414C40.0232 11.0679 40.2207 11.5463 40.3201 12.0492C40.4196 12.552 40.4189 13.0696 40.3183 13.5722C39.4511 17.9027 37.0316 21.7729 33.7556 24.6153L35.6291 28.5551C36.6676 30.7391 35.581 33.4102 33.2792 34.0954L33.2096 34.1168C32.867 34.2131 32.5137 34.2613 32.1711 34.2613C30.7098 34.2613 29.3127 33.4369 28.6435 32.0345L26.9788 28.5336L23.5904 21.4035L21.9256 17.9027C21.8894 17.8269 21.8325 17.7629 21.7615 17.718C21.6904 17.6732 21.6081 17.6494 21.5241 17.6494C21.4401 17.6494 21.3578 17.6732 21.2868 17.718C21.2157 17.7629 21.1588 17.8269 21.1227 17.9027L19.4204 21.4785C16.8243 20.9271 14.212 19.3212 12.7346 17.3674L17.9965 6.29753C18.3098 5.628 18.8076 5.06178 19.4316 4.66542C20.0555 4.26907 20.7796 4.05903 21.5188 4.06ZM6.77142 13.6846C8.76807 12.8763 11.0431 13.8398 11.8514 15.8418C12.0601 16.3611 12.3599 16.8696 12.7293 17.3567L12.7346 17.3621L12.9112 17.5869C12.9273 17.6083 12.9434 17.6244 12.9594 17.6458L13.0076 17.7046C13.0344 17.7314 13.0558 17.7635 13.0825 17.7903C13.0879 17.7956 13.0932 17.801 13.0932 17.8064L13.0825 17.7903C13.1842 17.9134 13.2967 18.0312 13.4091 18.1489C13.4144 18.1543 13.4144 18.1596 13.4198 18.1596C13.7891 18.5451 14.2013 18.9091 14.6456 19.2463C14.8544 19.4069 15.0685 19.5568 15.288 19.7066C15.3094 19.7174 15.3254 19.7334 15.3468 19.7441C16.5834 20.5578 18.0019 21.168 19.4151 21.4678C20.0146 21.5962 20.6141 21.6658 21.1976 21.6712H21.2725C22.0487 21.6712 22.8249 21.5748 23.585 21.3928L26.9734 28.5229C25.1427 29.1385 23.221 29.4758 21.2725 29.4758C19.5168 29.4758 17.7396 29.1706 16.016 28.6193L14.394 32.0291C14.1675 32.5054 13.8468 32.9307 13.4513 33.2795C13.0557 33.6283 12.5935 33.8933 12.0927 34.0584C11.5918 34.2235 11.0627 34.2854 10.5373 34.2402C10.0118 34.195 9.50104 34.0438 9.03572 33.7956C7.1729 32.8053 6.49307 30.4714 7.39772 28.5658L9.17489 24.8294C7.16754 23.1325 5.56701 21.0716 4.64096 18.8341L4.61419 18.7645C3.81125 16.7679 4.77478 14.4929 6.77142 13.6846Z" fill="black"/>
<path fill-rule="evenodd" clip-rule="evenodd" d="M21.5188 4.06C23.023 4.06 24.3933 4.92718 25.041 6.28683L30.2013 17.1426C30.2013 17.1426 30.2012 17.1479 30.1959 17.1479C30.1959 17.1479 30.1959 17.1426 30.2013 17.1426C31.411 15.6598 32.2889 13.9148 32.6636 12.0412C33.0865 9.92683 35.142 8.56183 37.2564 8.97935C37.7591 9.07977 38.237 9.27824 38.663 9.56343C39.0889 9.84861 39.4545 10.2149 39.7389 10.6414C40.0232 11.0679 40.2207 11.5463 40.3201 12.0492C40.4196 12.552 40.4189 13.0696 40.3183 13.5722C39.4511 17.9027 37.0316 21.7729 33.7556 24.6153L35.6291 28.5551C36.6676 30.7391 35.581 33.4102 33.2792 34.0954L33.2096 34.1168C32.867 34.2131 32.5137 34.2613 32.1711 34.2613C30.7098 34.2613 29.3127 33.4369 28.6435 32.0345L26.9788 28.5336L23.5904 21.4035L21.9256 17.9027C21.8894 17.8269 21.8325 17.7629 21.7615 17.718C21.6904 17.6732 21.6081 17.6494 21.5241 17.6494C21.4401 17.6494 21.3578 17.6732 21.2868 17.718C21.2157 17.7629 21.1588 17.8269 21.1227 17.9027L19.4204 21.4785C16.8243 20.9271 14.212 19.3212 12.7346 17.3674L17.9965 6.29753C18.3098 5.628 18.8076 5.06178 19.4316 4.66542C20.0555 4.26907 20.7796 4.05903 21.5188 4.06ZM6.77142 13.6846C8.76807 12.8763 11.0431 13.8398 11.8514 15.8418C12.0601 16.3611 12.3599 16.8696 12.7293 17.3567L12.7346 17.3621L12.9112 17.5869C12.9273 17.6083 12.9434 17.6244 12.9594 17.6458L13.0076 17.7046C13.0344 17.7314 13.0558 17.7635 13.0825 17.7903C13.0879 17.7956 13.0932 17.801 13.0932 17.8064L13.0825 17.7903C13.1842 17.9134 13.2967 18.0312 13.4091 18.1489C13.4144 18.1543 13.4144 18.1596 13.4198 18.1596C13.7891 18.5451 14.2013 18.9091 14.6456 19.2463C14.8544 19.4069 15.0685 19.5568 15.288 19.7066C15.3094 19.7174 15.3254 19.7334 15.3468 19.7441C16.5834 20.5578 18.0019 21.168 19.4151 21.4678C20.0146 21.5962 20.6141 21.6658 21.1976 21.6712H21.2725C22.0487 21.6712 22.8249 21.5748 23.585 21.3928L26.9734 28.5229C25.1427 29.1385 23.221 29.4758 21.2725 29.4758C19.5168 29.4758 17.7396 29.1706 16.016 28.6193L14.394 32.0291C14.1675 32.5054 13.8468 32.9307 13.4513 33.2795C13.0557 33.6283 12.5935 33.8933 12.0927 34.0584C11.5918 34.2235 11.0627 34.2854 10.5373 34.2402C10.0118 34.195 9.50104 34.0438 9.03572 33.7956C7.1729 32.8053 6.49307 30.4714 7.39772 28.5658L9.17489 24.8294C7.16754 23.1325 5.56701 21.0716 4.64096 18.8341L4.61419 18.7645C3.81125 16.7679 4.77478 14.4929 6.77142 13.6846Z" fill="white"/>
<path d="M30.2013 17.1426L25.041 6.28683C24.3933 4.92718 23.023 4.06 21.5188 4.06C20.7796 4.05903 20.0555 4.26907 19.4316 4.66542C18.8076 5.06178 18.3098 5.628 17.9965 6.29753L12.7346 17.3674C14.212 19.3212 16.8243 20.9271 19.4204 21.4785L21.1227 17.9027C21.1588 17.8269 21.2157 17.7629 21.2868 17.718C21.3578 17.6732 21.4401 17.6494 21.5241 17.6494C21.6081 17.6494 21.6904 17.6732 21.7615 17.718C21.8325 17.7629 21.8894 17.8269 21.9256 17.9027L23.5904 21.4035M30.2013 17.1426C30.2013 17.1426 30.2012 17.1479 30.1959 17.1479C30.1959 17.1479 30.1959 17.1426 30.2013 17.1426ZM30.2013 17.1426C31.411 15.6598 32.2889 13.9148 32.6636 12.0412C33.0865 9.92683 35.142 8.56183 37.2564 8.97935C37.7591 9.07977 38.237 9.27824 38.663 9.56343C39.0889 9.84861 39.4545 10.2149 39.7389 10.6414C40.0232 11.0679 40.2207 11.5463 40.3201 12.0492C40.4196 12.552 40.4189 13.0696 40.3183 13.5722C39.4511 17.9027 37.0316 21.7729 33.7556 24.6153L35.6291 28.5551C36.6676 30.7391 35.581 33.4102 33.2792 34.0954L33.2096 34.1168C32.867 34.2131 32.5137 34.2613 32.1711 34.2613C30.7098 34.2613 29.3127 33.4369 28.6435 32.0345L26.9788 28.5336L23.5904 21.4035M23.5904 21.4035H23.6011M13.0825 17.7903C13.0558 17.7635 13.0344 17.7314 13.0076 17.7046L12.9594 17.6458C12.9434 17.6244 12.9273 17.6083 12.9112 17.5869L12.7346 17.3621L12.7293 17.3567C12.3599 16.8696 12.0601 16.3611 11.8514 15.8418C11.0431 13.8398 8.76807 12.8763 6.77142 13.6846C4.77478 14.4929 3.81125 16.7679 4.61419 18.7645L4.64096 18.8341C5.56701 21.0716 7.16754 23.1325 9.17489 24.8294L7.39772 28.5658C6.49307 30.4714 7.1729 32.8053 9.03572 33.7956C9.50104 34.0438 10.0119 34.195 10.5373 34.2402C11.0627 34.2854 11.5918 34.2235 12.0927 34.0584C12.5935 33.8933 13.0557 33.6283 13.4513 33.2795C13.8468 32.9307 14.1675 32.5054 14.394 32.0291L16.016 28.6193C17.7396 29.1706 19.5168 29.4758 21.2725 29.4758C23.221 29.4758 25.1427 29.1385 26.9734 28.5229L23.585 21.3928C22.8249 21.5748 22.0487 21.6712 21.2725 21.6712H21.1976C20.6141 21.6658 20.0146 21.5962 19.4151 21.4678C18.0019 21.168 16.5834 20.5578 15.3468 19.7441C15.3254 19.7334 15.3094 19.7174 15.288 19.7066C15.0685 19.5568 14.8544 19.4069 14.6456 19.2463C14.2013 18.9091 13.7891 18.5451 13.4198 18.1596C13.4144 18.1596 13.4144 18.1543 13.4091 18.1489C13.2967 18.0312 13.1842 17.9134 13.0825 17.7903ZM13.0825 17.7903C13.0879 17.7956 13.0932 17.801 13.0932 17.8064L13.0825 17.7903Z" stroke="white" stroke-width="3.67747" stroke-linejoin="round"/>
<path fill-rule="evenodd" clip-rule="evenodd" d="M16.0162 28.6189L19.4153 21.4674C16.8191 20.916 14.2069 19.3101 12.7295 17.3563L9.17511 24.829C11.1503 26.5045 13.5217 27.8213 16.0162 28.6189Z" fill="#1A007F"/>
<path fill-rule="evenodd" clip-rule="evenodd" d="M30.2014 17.1423C28.4939 19.2353 26.1225 20.7877 23.5852 21.3926L26.9736 28.5227C29.4467 27.6876 31.7591 26.3387 33.7558 24.6097L30.2014 17.1423Z" fill="#4E000A"/>
<path fill-rule="evenodd" clip-rule="evenodd" d="M9.17523 24.8293L7.39806 28.5657C6.49341 30.466 7.17324 32.8052 9.03606 33.7955C11.0113 34.8447 13.4415 34.0257 14.3944 32.029L16.0163 28.6192C13.5116 27.8118 11.1881 26.5245 9.17523 24.8293Z" fill="#1A007F"/>
<path fill-rule="evenodd" clip-rule="evenodd" d="M37.2567 8.98445C36.754 8.88381 36.2365 8.88319 35.7336 8.98262C35.2308 9.08204 34.7524 9.27956 34.3259 9.56389C33.8994 9.84823 33.5331 10.2138 33.2479 10.6398C32.9627 11.0657 32.7642 11.5437 32.6638 12.0463C32.2891 13.9199 31.4112 15.6649 30.2015 17.1477L33.7505 24.6204C37.0265 21.778 39.446 17.9078 40.3132 13.5773C40.7361 11.4575 39.3657 9.40198 37.2567 8.98445Z" fill="#FF9396"/>
<path fill-rule="evenodd" clip-rule="evenodd" d="M23.585 21.3926C22.8249 21.5746 22.0487 21.6709 21.2725 21.6709C20.6677 21.6709 20.0414 21.6013 19.4151 21.4675C16.8189 20.9161 14.2067 19.3103 12.7293 17.3564C12.3599 16.8693 12.0601 16.3608 11.8514 15.8416C11.0431 13.8449 8.76807 12.8814 6.77142 13.6843C4.77478 14.4926 3.81125 16.7676 4.61419 18.7643C5.52954 21.0339 7.14613 23.1162 9.17489 24.8291C11.1858 26.5242 13.5076 27.8115 16.0106 28.619C17.7289 29.1704 19.5114 29.4755 21.2672 29.4755C23.2157 29.4755 25.1374 29.1383 26.9681 28.5227L23.585 21.3926Z" fill="#002DC8"/>
<path fill-rule="evenodd" clip-rule="evenodd" d="M35.624 28.5495L33.7505 24.6098L30.2015 17.1424L30.1961 17.1478C30.1961 17.1478 30.1961 17.1424 30.2015 17.1424L25.0412 6.28664C24.7245 5.62063 24.2255 5.05799 23.6021 4.66388C22.9787 4.26978 22.2565 4.06033 21.519 4.05981C20.0148 4.05981 18.6445 4.92699 17.9967 6.28664L12.7348 17.3565C14.2122 19.3103 16.8245 20.9162 19.4206 21.4676L21.1229 17.8918C21.2834 17.5546 21.7652 17.5546 21.9258 17.8918L23.5906 21.3926L26.979 28.5228L28.6437 32.0236C28.9603 32.6909 29.4599 33.2545 30.0845 33.6488C30.709 34.043 31.4328 34.2517 32.1713 34.2504C32.5193 34.2504 32.8672 34.2022 33.2098 34.1059C35.5597 33.4582 36.6732 30.7549 35.624 28.5495Z" fill="#FF536A"/>
<path fill-rule="evenodd" clip-rule="evenodd" d="M16.0162 28.6189L19.4153 21.4674C16.8191 20.916 14.2069 19.3101 12.7295 17.3563L9.17511 24.829C11.1503 26.5045 13.5217 27.8213 16.0162 28.6189Z" fill="#1A007F"/>
<path fill-rule="evenodd" clip-rule="evenodd" d="M30.2014 17.1423C28.4939 19.2353 26.1225 20.7877 23.5852 21.3926L26.9736 28.5227C29.4467 27.6876 31.7591 26.3387 33.7558 24.6097L30.2014 17.1423Z" fill="#4E000A"/>
<path fill-rule="evenodd" clip-rule="evenodd" d="M9.17524 24.8293L7.39806 28.5657C6.49341 30.466 7.17324 32.8052 9.03606 33.7955C11.0113 34.8447 13.4415 34.0257 14.3944 32.0291L16.0163 28.6192C13.5116 27.8118 11.1881 26.5245 9.17524 24.8293Z" fill="#1A007F"/>
<path fill-rule="evenodd" clip-rule="evenodd" d="M37.2567 8.98446C36.754 8.88382 36.2365 8.88319 35.7336 8.98261C35.2308 9.08203 34.7524 9.27956 34.3259 9.5639C33.8994 9.84824 33.5331 10.2138 33.2479 10.6398C32.9627 11.0657 32.7643 11.5437 32.6638 12.0463C32.2891 13.9199 31.4112 15.6649 30.2015 17.1477L33.7505 24.6204C37.0265 21.778 39.446 17.9078 40.3132 13.5773C40.7361 11.4575 39.3657 9.40199 37.2567 8.98446Z" fill="#FF9396"/>
<path fill-rule="evenodd" clip-rule="evenodd" d="M23.585 21.3926C22.8249 21.5746 22.0487 21.6709 21.2725 21.6709C20.6677 21.6709 20.0414 21.6013 19.4151 21.4675C16.8189 20.9161 14.2067 19.3103 12.7292 17.3564C12.3599 16.8693 12.0601 16.3608 11.8514 15.8416C11.0431 13.8449 8.76807 12.8814 6.77143 13.6843C4.77478 14.4926 3.81125 16.7676 4.61419 18.7643C5.52954 21.0339 7.14613 23.1162 9.1749 24.8291C11.1858 26.5242 13.5076 27.8115 16.0106 28.619C17.7289 29.1704 19.5114 29.4755 21.2672 29.4755C23.2157 29.4755 25.1374 29.1383 26.9681 28.5227L23.585 21.3926Z" fill="#002DC8"/>
<path fill-rule="evenodd" clip-rule="evenodd" d="M35.624 28.5495L33.7505 24.6098L30.2014 17.1424L30.1961 17.1478C30.1961 17.1478 30.1961 17.1424 30.2014 17.1424L25.0412 6.28664C24.7244 5.62063 24.2255 5.05799 23.6021 4.66388C22.9787 4.26977 22.2565 4.06033 21.519 4.05981C20.0148 4.05981 18.6444 4.92699 17.9967 6.28664L12.7348 17.3565C14.2122 19.3103 16.8244 20.9162 19.4206 21.4676L21.1229 17.8918C21.2834 17.5546 21.7652 17.5546 21.9258 17.8918L23.5906 21.3926L26.979 28.5228L28.6437 32.0236C28.9603 32.6909 29.4599 33.2545 30.0845 33.6488C30.709 34.043 31.4328 34.2517 32.1713 34.2504C32.5193 34.2504 32.8672 34.2022 33.2098 34.1059C35.5597 33.4582 36.6732 30.7549 35.624 28.5495Z" fill="#FF536A"/>
</svg>
