<svg width="34" height="38" viewBox="0 0 34 38" fill="none" xmlns="http://www.w3.org/2000/svg">
<path d="M30.3739 7.81237L19.5224 1.56526C17.7553 0.544816 15.5899 0.544816 13.8477 1.56526L11.0104 3.20793V10.5004V12.1679V19.0124C11.0104 21.0284 12.0806 22.9199 13.8477 23.9404C14.7188 24.4381 15.7144 24.7119 16.685 24.7119C17.6557 24.7119 18.6513 24.463 19.5224 23.9404C21.2895 22.9199 22.3597 21.0533 22.3597 19.0124C22.3597 16.9964 21.2895 15.1048 19.5224 14.0844C18.6513 13.5866 17.6557 13.3128 16.685 13.3128V9.7537C17.6557 9.7537 18.6513 10.0026 19.5224 10.5253L22.6086 12.3173C24.3757 13.3377 25.4459 15.2044 25.4459 17.2453V20.8044C25.4459 22.8204 24.3757 24.7119 22.6086 25.7324L19.5224 27.5244C18.6513 28.0222 17.6557 28.2959 16.685 28.2959C15.7144 28.2959 14.7188 28.047 13.8477 27.5244L10.7615 25.7324C8.99438 24.7119 7.92416 22.8453 7.92416 20.8044V19.0124V17.2204V12.6159V4.97504L3.02105 7.81237C1.25394 8.83282 0.183716 10.6995 0.183716 12.7404V25.2595C0.183716 27.2755 1.25394 29.167 3.02105 30.1875L13.8726 36.4346C15.6397 37.455 17.805 37.455 19.5473 36.4346L30.3988 30.1875C32.1659 29.167 33.2362 27.3004 33.2362 25.2595V12.7404C33.2113 10.6995 32.1162 8.83282 30.3739 7.81237ZM13.2006 14.5324C12.877 14.7813 12.6033 15.055 12.3544 15.3537V11.3715L13.2006 10.8737V14.5324ZM15.3659 13.487C15.0673 13.5617 14.7935 13.6364 14.5197 13.7608V10.1768C14.7935 10.0524 15.0922 9.9777 15.3659 9.90304V13.487Z" fill="#F9D83C"/>
</svg>
