<svg width="24" height="38" viewBox="0 0 24 38" fill="none" xmlns="http://www.w3.org/2000/svg">
<g clip-path="url(#clip0_2047_10777)">
<path d="M0.294312 18.9946H6.30741C7.43606 18.9946 8.54925 19.2569 9.55915 19.7609C10.569 20.2648 11.448 20.9965 12.1267 21.8983L18.058 29.781C18.17 29.9294 18.1868 30.1294 18.1017 30.2953L14.6825 36.9196C14.6448 36.9925 14.5892 37.0547 14.5209 37.1003C14.4527 37.1459 14.3739 37.1735 14.2921 37.1804C14.2103 37.1873 14.1281 37.1734 14.0531 37.14C13.9782 37.1065 13.9129 37.0546 13.8634 36.9891L0.294312 18.9946ZM23.9545 19.0047H17.9414C16.8128 19.0047 15.6997 18.7425 14.6898 18.2387C13.6799 17.7348 12.8009 17.0032 12.1222 16.1015L6.19088 8.21885C6.136 8.1459 6.10279 8.05895 6.09507 7.96799C6.08734 7.87702 6.1054 7.78572 6.14718 7.70455L9.56635 1.08022C9.60408 1.00731 9.65967 0.945139 9.72794 0.899532C9.7962 0.853924 9.87491 0.826364 9.95672 0.819426C10.0385 0.812488 10.1208 0.826397 10.1957 0.859856C10.2707 0.893315 10.336 0.945231 10.3854 1.01075L23.9545 19.0058V19.0047Z" fill="#6102DB"/>
</g>
<defs>
<clipPath id="clip0_2047_10777">
<rect width="23.6895" height="36.4" fill="white" transform="translate(0.29425 0.799927)"/>
</clipPath>
</defs>
</svg>
