<svg width="37" height="38" viewBox="0 0 37 38" fill="none" xmlns="http://www.w3.org/2000/svg">
<g clip-path="url(#clip0_2047_10698)">
<path d="M18.8023 37.1997V30.1472C26.2734 30.1472 32.0724 22.7535 29.2036 14.8843C28.6766 13.4402 27.8401 12.1288 26.7529 11.042C25.6658 9.95522 24.3541 9.11927 22.9098 8.59274C15.0474 5.74672 7.63889 11.5218 7.63889 18.9895H0.600037C0.600037 7.08783 12.1161 -2.19303 24.6013 1.70519C30.0613 3.41712 34.4043 7.74871 36.0957 13.1939C39.9973 25.6951 30.7301 37.2032 18.8023 37.2032V37.1997Z" fill="#0080FF"/>
<path d="M11.8043 30.167V23.1543H18.8204V30.167H11.8043ZM6.39777 35.5701V30.167H11.8043V35.5701H6.39777ZM6.39777 30.167H1.87848V25.6511H6.39777V30.167Z" fill="#0080FF"/>
</g>
<defs>
<clipPath id="clip0_2047_10698">
<rect width="36.4" height="36.4" fill="white" transform="translate(0.599976 0.799988)"/>
</clipPath>
</defs>
</svg>
