<svg width="38" height="38" viewBox="0 0 38 38" fill="none" xmlns="http://www.w3.org/2000/svg">
<path d="M17.62 2.09991H23.0995V27.6812C20.2917 28.2199 18.2251 28.4354 15.9836 28.4354C9.29913 28.4354 5.81396 25.3881 5.81396 19.5344C5.81396 13.9014 9.5106 10.2425 15.2362 10.2425C16.125 10.2425 16.8013 10.3144 17.6189 10.5288L17.62 2.09991ZM17.62 14.9788C17.0253 14.7749 16.3982 14.6767 15.7711 14.6872C12.9958 14.6872 11.3982 16.4089 11.3982 19.4298C11.3982 22.3725 12.9246 23.9854 15.7387 23.9854C16.3438 23.9854 16.84 23.9527 17.62 23.8428V14.9745V14.9788ZM31.814 10.6323V23.4446C31.814 27.8566 31.4978 29.9807 30.5378 31.8069C29.649 33.5677 28.4712 34.6789 26.056 35.8999L20.969 33.4568C23.3843 32.3066 24.562 31.3063 25.3095 29.7599C26.0895 28.1808 26.3397 26.3493 26.3397 21.5413V10.6323H31.814ZM26.3397 2.12738H31.814V7.79944H26.3397V2.12738Z" fill="black"/>
</svg>
