<svg width="37" height="38" viewBox="0 0 37 38" fill="none" xmlns="http://www.w3.org/2000/svg">
<g clip-path="url(#clip0_2047_10820)">
<path d="M3.2864 19.7911C3.05974 11.4172 9.32708 4.02768 17.4743 2.69305C11.0707 2.79767 5.97308 5.41778 2.76174 11.0194C-0.628707 16.9301 -0.395703 22.9629 3.38468 28.6326C6.70855 33.6161 11.5858 35.9176 17.5409 35.9572C9.15748 34.5227 3.48929 27.3107 3.2864 19.7911ZM4.96498 14.2624C4.79063 14.7253 4.81282 14.7332 5.31687 14.7332C15.1839 14.7332 25.0525 14.7332 34.9195 14.7332C35.0986 14.7332 35.2777 14.7332 35.4537 14.7332C35.4584 14.6856 35.4695 14.6587 35.4632 14.6349C35.4331 14.5224 35.3998 14.4098 35.3633 14.2989C34.165 10.7293 31.9158 7.96339 28.8107 5.89805C25.2871 3.55374 21.3656 2.88168 17.2635 3.65043C11.1515 4.79485 7.14286 8.49914 4.96498 14.2624ZM4.66382 16.5323C4.45776 16.5005 4.40229 16.602 4.37693 16.7874C4.31511 17.2519 4.26122 17.7163 4.22951 18.1855C4.21683 18.3773 4.25329 18.4312 4.44825 18.4296C6.0777 18.4185 7.70556 18.4169 9.33501 18.4121C9.42535 18.4169 9.51729 18.4248 9.60764 18.4248C16.6501 18.4248 23.6925 18.4248 30.735 18.4248C30.8253 18.4248 30.9172 18.4169 31.0076 18.4121C32.6228 18.4169 34.2395 18.4153 35.8547 18.4312C36.0893 18.4327 36.1115 18.3329 36.0925 18.1554C36.0449 17.729 35.972 17.3026 35.9562 16.8746C35.9451 16.5735 35.8278 16.5275 35.552 16.5275C25.3457 16.5354 15.1411 16.5338 4.93487 16.5338C4.84293 16.5338 4.751 16.5449 4.66065 16.5323H4.66382ZM35.8579 20.2207C34.2411 20.2302 32.6259 20.2334 31.0092 20.2365C30.9188 20.2318 30.8269 20.2239 30.7365 20.2239C23.6941 20.2239 16.6501 20.2239 9.60764 20.2239C9.51729 20.2239 9.42535 20.2318 9.33501 20.2365C7.70873 20.2318 6.08245 20.2302 4.45618 20.2207C4.27548 20.2191 4.21366 20.2508 4.22951 20.4553C4.26439 20.9356 4.31035 21.4127 4.38485 21.8898C4.40704 22.0324 4.4324 22.1196 4.61469 22.1196C6.29327 22.1069 7.97027 22.1038 9.64885 22.0974C9.75188 22.1038 9.85649 22.1148 9.95952 22.1148C16.769 22.1148 23.5768 22.1148 30.3862 22.1148C30.4893 22.1148 30.5939 22.1038 30.6969 22.0974C32.3644 22.1038 34.0335 22.1085 35.701 22.1164C35.8325 22.1164 35.9229 22.0958 35.9371 21.9326C35.9831 21.4396 36.037 20.9482 36.0956 20.4569C36.1194 20.2619 36.0386 20.2191 35.8579 20.2207ZM9.49351 21.3968C9.49193 21.3936 9.49193 21.3905 9.49034 21.3873C9.49193 21.3889 9.49351 21.3905 9.4951 21.3905C9.4951 21.3921 9.49351 21.3936 9.49351 21.3968ZM35.1081 23.9171C25.1508 23.9091 15.1934 23.9091 5.23603 23.9123C5.11715 23.9123 4.97608 23.8426 4.87939 23.9773C4.84927 24.1421 4.93804 24.2816 4.98559 24.4275C7.09848 30.7503 14.0458 36.932 23.7258 34.8889C27.6393 34.0631 30.662 31.8376 33.065 28.7119C34.1191 27.3392 34.9274 25.8302 35.4014 24.1564C35.5821 23.7427 35.2254 23.9171 35.1081 23.9171Z" fill="#26262A"/>
</g>
<defs>
<clipPath id="clip0_2047_10820">
<rect width="36.4" height="36.4" fill="white" transform="translate(0.0369873 0.799988)"/>
</clipPath>
</defs>
</svg>
