<svg width="38" height="38" viewBox="0 0 38 38" fill="none" xmlns="http://www.w3.org/2000/svg">
<g clip-path="url(#clip0_2047_10717)">
<path d="M11.6434 14.65L18.5578 10.6582C18.6427 10.6093 18.739 10.5836 18.8369 10.5836C18.9349 10.5836 19.0311 10.6093 19.116 10.6582L26.0305 14.65C26.1155 14.6993 26.1861 14.7701 26.235 14.8553C26.284 14.9405 26.3097 15.0371 26.3095 15.1354V23.1176C26.3093 23.2156 26.2834 23.3118 26.2345 23.3967C26.1855 23.4815 26.1152 23.5521 26.0305 23.6014L19.116 27.5933C19.0311 27.6421 18.9349 27.6678 18.8369 27.6678C18.739 27.6678 18.6427 27.6421 18.5578 27.5933L11.6434 23.6014C11.5583 23.5521 11.4878 23.4813 11.4388 23.3961C11.3898 23.3109 11.3641 23.2143 11.3643 23.1161V15.1354C11.3643 15.0371 11.39 14.9406 11.439 14.8554C11.488 14.7702 11.5584 14.6994 11.6434 14.65ZM36.8124 18.287L28.5527 3.91657C28.2524 3.39635 27.6973 3.01263 27.0967 3.01263H10.5787C9.97806 3.01263 9.42296 3.39635 9.12266 3.91657L0.862893 18.2551C0.715672 18.5132 0.638245 18.8051 0.638245 19.1022C0.638245 19.3993 0.715672 19.6912 0.862893 19.9493L9.12418 34.2029C9.42296 34.7216 9.97806 34.987 10.5787 34.987H27.0997C27.6988 34.987 28.2524 34.7292 28.5542 34.2105L36.814 19.9341C36.9611 19.6846 37.0387 19.4002 37.0387 19.1105C37.0387 18.8209 36.9611 18.5365 36.814 18.287M29.9738 25.1969C29.971 25.3018 29.941 25.4042 29.8867 25.4941C29.8325 25.5839 29.7559 25.6582 29.6644 25.7096L19.1402 31.7793C19.0497 31.831 18.9472 31.8582 18.843 31.8582C18.7387 31.8582 18.6362 31.831 18.5457 31.7793L8.01549 25.7096C7.9237 25.6584 7.84679 25.5842 7.79228 25.4943C7.73778 25.4045 7.70756 25.302 7.70458 25.1969V13.0545C7.70458 12.8422 7.83046 12.6465 8.01398 12.5419L18.5336 6.47215C18.7156 6.36598 18.9461 6.36598 19.1281 6.47215L29.6583 12.5434C29.7504 12.5944 29.8276 12.6685 29.8824 12.7583C29.9372 12.8482 29.9676 12.9508 29.9708 13.056L29.9738 25.1969Z" fill="black"/>
</g>
<defs>
<clipPath id="clip0_2047_10717">
<rect width="36.4" height="36.4" fill="white" transform="translate(0.637024 0.799927)"/>
</clipPath>
</defs>
</svg>
