<svg width="37" height="38" viewBox="0 0 37 38" fill="none" xmlns="http://www.w3.org/2000/svg">
<g clip-path="url(#clip0_2047_10788)">
<path fill-rule="evenodd" clip-rule="evenodd" d="M18.2137 3.31281L31.7993 11.1564V26.8437L18.2137 34.6873L4.62817 26.8437V11.1564L18.2137 3.31281ZM6.1525 12.0365V23.5592L16.1315 6.27515L6.1525 12.0365ZM18.2137 5.71721L6.71044 25.6415H29.7171L18.2137 5.71721ZM28.1927 27.1658H8.23476L18.2137 32.9272L28.1927 27.1658ZM30.275 23.5592L20.296 6.27515L30.275 12.0365V23.5592Z" fill="#E10098"/>
<path d="M18.2137 7.40326C19.9868 7.40326 21.4241 5.96588 21.4241 4.19278C21.4241 2.41968 19.9868 0.9823 18.2137 0.9823C16.4406 0.9823 15.0032 2.41968 15.0032 4.19278C15.0032 5.96588 16.4406 7.40326 18.2137 7.40326Z" fill="#E10098"/>
<path d="M31.0371 14.8069C32.8102 14.8069 34.2476 13.3695 34.2476 11.5964C34.2476 9.82331 32.8102 8.38593 31.0371 8.38593C29.264 8.38593 27.8266 9.82331 27.8266 11.5964C27.8266 13.3695 29.264 14.8069 31.0371 14.8069Z" fill="#E10098"/>
<path d="M31.0371 29.6141C32.8102 29.6141 34.2476 28.1768 34.2476 26.4037C34.2476 24.6306 32.8102 23.1932 31.0371 23.1932C29.264 23.1932 27.8266 24.6306 27.8266 26.4037C27.8266 28.1768 29.264 29.6141 31.0371 29.6141Z" fill="#E10098"/>
<path d="M18.2137 37.0178C19.9868 37.0178 21.4241 35.5804 21.4241 33.8073C21.4241 32.0342 19.9868 30.5969 18.2137 30.5969C16.4406 30.5969 15.0032 32.0342 15.0032 33.8073C15.0032 35.5804 16.4406 37.0178 18.2137 37.0178Z" fill="#E10098"/>
<path d="M5.38846 29.6141C7.16156 29.6141 8.59894 28.1768 8.59894 26.4037C8.59894 24.6306 7.16156 23.1932 5.38846 23.1932C3.61536 23.1932 2.17798 24.6306 2.17798 26.4037C2.17798 28.1768 3.61536 29.6141 5.38846 29.6141Z" fill="#E10098"/>
<path d="M5.38846 14.8069C7.16156 14.8069 8.59894 13.3695 8.59894 11.5964C8.59894 9.82331 7.16156 8.38593 5.38846 8.38593C3.61536 8.38593 2.17798 9.82331 2.17798 11.5964C2.17798 13.3695 3.61536 14.8069 5.38846 14.8069Z" fill="#E10098"/>
</g>
<defs>
<clipPath id="clip0_2047_10788">
<rect width="36.4" height="36.4" fill="white" transform="translate(0.0139771 0.799927)"/>
</clipPath>
</defs>
</svg>
