<svg width="33" height="38" viewBox="0 0 33 38" fill="none" xmlns="http://www.w3.org/2000/svg">
<g clip-path="url(#clip0_2047_10783)">
<path d="M30.1146 10.3931C30.0993 10.3493 30.0953 10.3023 30.1029 10.2565C30.1106 10.2107 30.1296 10.1676 30.1583 10.1311C31.2612 8.73876 32.2622 7.13716 32.2622 5.90866C32.2622 3.17866 30.7043 0.960083 27.3136 0.960083C25.6338 0.960083 24.4016 1.50608 23.5917 2.38514C23.5552 2.42555 23.5078 2.45458 23.4552 2.46878C23.4026 2.48298 23.347 2.48175 23.2951 2.46522C22.0023 2.04681 20.6779 1.73336 19.3347 1.52792C19.2896 1.52188 19.2437 1.52707 19.201 1.54304C19.1584 1.55901 19.1203 1.58527 19.0902 1.61948C19.0602 1.65369 19.039 1.6948 19.0286 1.73915C19.0183 1.7835 19.019 1.82973 19.0308 1.87372C19.3111 2.92386 20.9928 9.59598 22.3468 14.6756C23.1658 17.7496 21.0437 20.769 17.8624 20.7599H15.8931C12.679 20.7599 10.728 17.7296 11.4687 14.7084C12.719 9.60326 14.4317 2.98392 14.7101 1.89192C14.7219 1.84834 14.7227 1.80253 14.7125 1.75856C14.7023 1.71459 14.6815 1.6738 14.6518 1.6398C14.6221 1.6058 14.5845 1.57963 14.5423 1.56361C14.5001 1.54759 14.4546 1.54221 14.4098 1.54794C12.8468 1.73015 11.3083 2.08228 9.82161 2.59808C9.76721 2.61737 9.70821 2.61952 9.65255 2.60422C9.5969 2.58892 9.54728 2.55693 9.51039 2.51254C8.70049 1.56068 7.43741 0.965543 5.68839 0.965543C2.29773 0.965543 0.739807 3.18048 0.739807 5.91412C0.739807 7.34646 2.10117 9.2884 3.39701 10.8099C3.45943 10.8849 3.47872 10.9866 3.44797 11.0793L1.24213 17.4857C1.2411 17.4923 1.2411 17.4991 1.24213 17.5057C1.18389 17.7296 0.332127 21.5097 6.80405 27.5266C8.74053 29.3302 15.4873 35.8295 16.6994 36.9906C16.7502 37.039 16.8176 37.066 16.8878 37.066C16.9579 37.066 17.0254 37.039 17.0761 36.9906C18.3228 35.8313 25.3207 29.3357 27.2681 27.5266C34.2606 21.0056 32.5953 17.4857 32.5953 17.4857L30.1146 10.3931Z" fill="#290B53"/>
<path d="M18.2028 16.5174H15.5674C15.4634 16.5174 15.3604 16.4969 15.2643 16.457C15.1682 16.417 15.081 16.3585 15.0076 16.2848C14.9342 16.2111 14.8761 16.1236 14.8366 16.0273C14.7971 15.931 14.7771 15.8279 14.7776 15.7239L14.45 12.4788C14.45 12.375 14.4704 12.2721 14.5103 12.1762C14.5501 12.0802 14.6084 11.993 14.6819 11.9197C14.7555 11.8463 14.8428 11.7882 14.9388 11.7486C15.0349 11.709 15.1378 11.6887 15.2417 11.689H18.5177C18.6215 11.6887 18.7244 11.709 18.8205 11.7486C18.9165 11.7882 19.0038 11.8463 19.0774 11.9197C19.1509 11.993 19.2092 12.0802 19.2491 12.1762C19.2889 12.2721 19.3094 12.375 19.3094 12.4788L18.9945 15.7239C18.995 15.8281 18.9748 15.9313 18.9352 16.0277C18.8956 16.1241 18.8374 16.2117 18.7638 16.2854C18.6902 16.3592 18.6027 16.4177 18.5065 16.4575C18.4102 16.4973 18.307 16.5177 18.2028 16.5174Z" fill="#290B53"/>
</g>
<defs>
<clipPath id="clip0_2047_10783">
<rect width="32.214" height="36.4" fill="white" transform="translate(0.600037 0.799927)"/>
</clipPath>
</defs>
</svg>
