<svg width="37" height="38" viewBox="0 0 37 38" fill="none" xmlns="http://www.w3.org/2000/svg">
<g clip-path="url(#clip0_2047_10692)">
<path d="M0.406311 20.9072C0.825639 24.9104 2.56934 28.8013 5.63738 31.8694C8.70541 34.9373 12.5963 36.6811 16.5997 37.1005L0.406311 20.9072Z" fill="black"/>
<path d="M0.335327 17.9761L19.5305 37.171C21.1594 37.0798 22.7782 36.7708 24.3399 36.2439L1.26252 13.1666C0.735585 14.7282 0.426529 16.3472 0.335327 17.9761Z" fill="black"/>
<path d="M2.08911 11.1333L26.3731 35.4174C27.633 34.8138 28.8378 34.0569 29.9595 33.1465L4.36005 7.54712C3.44974 8.66876 2.69276 9.8735 2.08911 11.1333Z" fill="black"/>
<path d="M5.72064 6.04806C12.8346 -0.976737 24.2964 -0.949174 31.3762 6.13071C38.456 13.2106 38.4837 24.6722 31.4589 31.7862L5.72064 6.04806Z" fill="black"/>
</g>
<defs>
<clipPath id="clip0_2047_10692">
<rect width="36.4" height="36.4" fill="white" transform="translate(0.335449 0.799927)"/>
</clipPath>
</defs>
</svg>
