<svg width="35" height="38" viewBox="0 0 35 38" fill="none" xmlns="http://www.w3.org/2000/svg">
<path d="M21.7972 17.7927L14.5076 20.173L8.16579 22.972L6.39157 23.4404C5.93972 23.8702 5.46593 24.3055 4.9535 24.7463C4.3915 25.2311 3.86807 25.672 3.46578 25.9915C3.01952 26.3442 2.35832 27.0053 2.02225 27.424C1.52082 28.0521 1.12412 28.7188 0.953305 29.2313C0.650238 30.157 0.799077 31.0936 1.38311 31.9587C2.13244 33.0607 3.62565 34.1846 5.36671 34.9505C6.25386 35.3418 7.74702 35.8432 8.87099 36.1241C10.7388 36.598 14.3533 37.1104 16.3423 37.1876C16.7445 37.2041 17.2845 37.2041 17.3065 37.1876C17.3506 37.16 17.6592 36.5705 18.0174 35.8377C19.2406 33.3417 20.1221 31 20.6015 28.9999C20.888 27.7878 21.1138 26.1734 21.2626 24.2615C21.3012 23.727 21.3177 21.9363 21.2846 21.3302C21.235 20.3384 21.1468 19.534 21.0092 18.7461C20.9871 18.6304 20.9816 18.5257 20.9926 18.5202C21.0146 18.5037 21.0807 18.4816 21.9788 18.2226L21.7971 17.7929V17.7928H21.7972V17.7927ZM20.1332 18.768C20.1993 18.768 20.3756 20.4595 20.4196 21.5285C20.4307 21.7544 20.4251 21.9032 20.4142 21.9032C20.3701 21.9032 19.483 21.3798 18.8495 20.9831C18.2984 20.6359 17.2516 19.9417 17.0863 19.8094C17.0311 19.7709 17.0366 19.7654 17.4885 19.6111C18.2543 19.3521 20.0726 18.768 20.1332 18.768ZM16.4196 19.9913C16.4692 19.9913 16.5958 20.0628 16.8989 20.2502C18.0339 20.961 19.5767 21.8205 20.2379 22.1071C20.4417 22.1952 20.4637 22.1621 19.9954 22.4818C18.9926 23.165 17.7418 23.8371 16.2101 24.5149C15.9401 24.6361 15.7143 24.7297 15.7088 24.7297C15.6978 24.7297 15.7307 24.5921 15.7748 24.4267C16.144 23.0547 16.3534 21.6662 16.3644 20.5532C16.3699 20.0022 16.3699 20.0022 16.4196 19.9857C16.4085 19.9913 16.414 19.9913 16.4196 19.9913ZM15.6537 20.2832C15.6867 20.3163 15.6647 21.5505 15.6206 21.8866C15.5214 22.6911 15.3671 23.4404 15.1138 24.2835C15.0531 24.4872 14.9979 24.6581 14.987 24.6691C14.9649 24.6966 14.21 23.9583 13.9621 23.6718C13.5323 23.1759 13.1963 22.68 12.9483 22.1952C12.8216 21.9472 12.6233 21.4624 12.6398 21.4458C12.7279 21.3852 15.6316 20.2612 15.6537 20.2832ZM12.0502 21.6993C12.0557 21.6993 12.0612 21.6993 12.0667 21.7048C12.0777 21.7158 12.1164 21.804 12.1494 21.9031C12.3257 22.3825 12.7223 23.0877 13.064 23.5396C13.4387 24.0355 13.9291 24.5644 14.3368 24.9115C14.4691 25.0217 14.5902 25.1264 14.6067 25.1429C14.6398 25.176 14.6508 25.1704 13.7527 25.5121C12.7114 25.9088 11.5763 26.3055 10.276 26.7242C9.96533 26.8244 9.65499 26.9254 9.34493 27.0273C9.29526 27.0439 9.31182 27.0163 9.45508 26.7904C10.0997 25.7821 11.0804 23.804 11.6315 22.4045C11.7251 22.1621 11.8188 21.9197 11.8354 21.8646C11.8574 21.7874 11.8849 21.7599 11.9565 21.7213C11.9951 21.7103 12.0337 21.6993 12.0502 21.6993ZM10.9483 22.1566C10.9648 22.1677 10.6838 22.7572 10.4083 23.2971C9.8738 24.3385 9.28977 25.3634 8.50738 26.6086C8.37516 26.8234 8.24847 27.0219 8.2319 27.0439C8.20439 27.0825 8.19331 27.0714 8.10517 26.9006C7.91784 26.5315 7.76351 26.0576 7.68088 25.6223C7.5982 25.1925 7.61477 24.4432 7.70847 23.9804C7.78002 23.6388 7.77459 23.6443 7.93986 23.5616C8.64512 23.2035 10.9263 22.1346 10.9483 22.1566ZM20.4528 22.5423V22.7737C20.4528 24.0024 20.3206 25.6884 20.1276 26.9172C20.0946 27.132 20.0669 27.3083 20.0615 27.3139C20.0615 27.3139 19.9018 27.2699 19.7144 27.2147C18.888 26.9557 17.9898 26.5755 17.1799 26.1293C16.6453 25.8373 15.8685 25.3578 15.8906 25.3358C15.896 25.3303 16.1275 25.2091 16.3974 25.0658C17.4775 24.5038 18.5132 23.8978 19.4114 23.2972C19.7475 23.0713 20.2543 22.7077 20.3646 22.6084L20.4528 22.5423ZM6.78827 24.1731C6.8103 24.1731 6.80478 24.2172 6.77173 24.4156C6.74967 24.5589 6.72216 24.8234 6.71121 25.0051C6.66702 25.8096 6.79935 26.4047 7.19604 27.2201C7.30624 27.446 7.39445 27.6334 7.38886 27.6388C7.35027 27.6719 3.70281 28.7409 2.55668 29.0549C2.2151 29.1486 1.91762 29.2312 1.89546 29.2367C1.85697 29.2477 1.85143 29.2423 1.86794 29.1485C1.99465 28.3386 2.61179 27.2807 3.4713 26.3881C4.04435 25.793 4.50169 25.4459 5.28409 24.9996C5.84609 24.6801 6.71113 24.2008 6.77724 24.1787C6.77729 24.1731 6.78278 24.1731 6.78827 24.1731ZM15.3837 25.7104C15.3892 25.7049 15.5214 25.7766 15.6812 25.8702C16.8603 26.5535 18.5022 27.1871 19.9017 27.5122L20.0285 27.5398L19.8521 27.6388C19.1193 28.0466 16.7115 29.0494 14.2487 29.9696C13.8905 30.1017 13.5379 30.234 13.4717 30.2616C13.4055 30.2891 13.3449 30.3056 13.3449 30.3002C13.3449 30.2946 13.4442 30.1017 13.5708 29.8649C14.2595 28.5756 14.9538 27.0053 15.3065 25.9143C15.3506 25.8096 15.3781 25.716 15.3837 25.7104ZM14.5076 25.997C14.5132 26.0026 14.4691 26.1182 14.4139 26.2504C13.9346 27.413 13.3064 28.6803 12.502 30.1018C12.2982 30.4655 12.1273 30.7576 12.1218 30.7576C12.1163 30.7576 11.951 30.6583 11.7526 30.5371C10.5845 29.8208 9.54868 28.9393 8.87102 28.0852L8.7718 27.964L9.27315 27.8262C11.0694 27.3359 12.5956 26.807 14.1108 26.1568C14.3258 26.0686 14.5021 25.997 14.5076 25.997ZM19.9514 27.8979C19.9569 28.0246 19.6759 29.1597 19.4444 29.9805C19.2516 30.6693 19.0862 31.2093 18.7832 32.1624C18.651 32.5813 18.5354 32.9283 18.5298 32.9283C18.5243 32.9283 18.4913 32.9228 18.4582 32.9119C16.8218 32.6142 15.3562 32.201 13.9787 31.6501C13.5929 31.4958 13.042 31.2478 13.0089 31.2203C12.9979 31.2092 13.3286 31.055 13.7473 30.8731C16.2543 29.7767 18.8549 28.5314 19.7475 27.997C19.8521 27.9309 19.9348 27.8979 19.9514 27.8979ZM7.38338 28.3277C7.3944 28.3386 6.69464 29.347 5.71384 30.7189C5.37225 31.1983 4.97555 31.7603 4.82682 31.9696C4.67803 32.179 4.45215 32.5096 4.32541 32.708L4.09389 33.0662L3.84594 32.8568C3.5539 32.6143 3.04706 32.0964 2.82115 31.8099C2.34727 31.2204 2.02776 30.5978 1.90103 30.0303C1.8404 29.7658 1.8404 29.6335 1.89544 29.617C1.97806 29.595 3.44922 29.2479 4.82676 28.9282C5.59264 28.752 6.47966 28.5426 6.79924 28.4655C7.11885 28.3882 7.37789 28.3277 7.38338 28.3277ZM8.0886 28.5977L8.26486 28.796C9.05838 29.6831 9.86831 30.3389 10.8491 30.9118C11.0254 31.011 11.1576 31.0991 11.1465 31.1047C11.1081 31.1322 7.74145 32.3278 6.18218 32.8678C5.30616 33.1763 4.58432 33.4242 4.57888 33.4242C4.5734 33.4242 4.52377 33.3912 4.46859 33.3526L4.36947 33.281L4.52924 33.0496C5.04713 32.3003 5.6974 31.4793 7.11342 29.7713L8.0886 28.5977ZM12.4855 31.7437C12.491 31.7383 12.7334 31.8264 13.0309 31.9367C13.7473 32.2066 14.3147 32.3774 15.0751 32.5703C16.0118 32.8072 17.3672 33.0386 18.1662 33.1047C18.2874 33.1157 18.3535 33.1268 18.3315 33.1433C18.2928 33.1654 17.483 33.4354 16.8879 33.6227C15.9401 33.9202 13.0475 34.7742 10.6893 35.4519C10.254 35.5787 9.87931 35.6834 9.85728 35.6888C9.80225 35.6999 9.62035 35.6502 9.62035 35.6282C9.62035 35.6173 9.75258 35.4465 9.91239 35.2591C10.7058 34.3114 11.4937 33.2535 12.1494 32.2507C12.3312 31.9751 12.4855 31.7493 12.4855 31.7437ZM11.5157 31.7714C11.5212 31.7768 11.1301 32.4049 10.4469 33.4848C10.1548 33.9422 9.82972 34.4601 9.71398 34.6419C9.60379 34.8182 9.43851 35.0938 9.34488 35.248L9.18506 35.5291L9.10244 35.507C8.90402 35.4519 7.51006 34.9615 7.14088 34.8127C6.68354 34.6309 6.2097 34.4105 5.85704 34.2232C5.41631 33.9863 4.86536 33.6336 4.90939 33.6226C4.92039 33.6172 5.67527 33.4132 6.58434 33.1653C8.9977 32.5096 10.3366 32.1294 11.2127 31.854C11.3725 31.8044 11.5102 31.7658 11.5157 31.7714ZM18.3755 33.3801H18.381C18.4031 33.4353 17.5105 35.9147 17.1853 36.6971C17.1138 36.8734 17.0863 36.9176 17.0477 36.9119C16.954 36.9065 15.6592 36.7247 14.8712 36.609C13.4993 36.3996 11.1962 35.9973 10.6177 35.8651L10.4854 35.8376L11.3063 35.6502C13.0695 35.2535 13.918 35.0386 14.7775 34.7741C15.863 34.4435 16.9375 34.0303 18.0229 33.5234C18.1937 33.4463 18.3369 33.3857 18.3755 33.3801Z" fill="url(#paint0_linear_2047_10729)"/>
<path d="M14.2815 0.800331C14.1602 0.783892 12.2042 1.48914 10.9425 2.0015C9.23986 2.69582 7.91757 3.35704 7.10207 3.92994C6.79908 4.14492 6.41882 4.52505 6.3583 4.67379C6.33627 4.7289 6.3252 4.79501 6.3252 4.86112L7.06355 5.56089L8.82116 6.12289L13.0032 6.87225L17.7857 7.69324L17.8353 7.28C17.8188 7.28 17.8077 7.27451 17.7914 7.27451L17.1631 7.17529L17.0364 6.94941C16.3862 5.80333 15.67 4.38178 15.2512 3.42305C14.9262 2.67921 14.6176 1.81975 14.4468 1.20262C14.3531 0.827949 14.3421 0.805921 14.2816 0.800433V0.800305H14.2815V0.800331ZM14.1932 1.08142H14.1989C14.2043 1.08686 14.2263 1.24124 14.2484 1.42296C14.342 2.19445 14.5129 2.93817 14.7829 3.74264C14.9867 4.34875 14.9867 4.31572 14.7498 4.24404C14.1878 4.08981 11.6698 3.65452 9.84604 3.40108C9.554 3.36248 9.30605 3.32394 9.30605 3.31845C9.28402 3.29642 10.6229 2.59661 11.2124 2.32118C11.9673 1.97398 14.039 1.10894 14.1932 1.08142ZM8.8817 3.54981L9.09668 3.62136C10.2647 4.01814 13.2014 4.58016 14.8214 4.71239C15.0031 4.72893 15.1575 4.74549 15.1629 4.74549C15.1684 4.75098 15.0142 4.83363 14.8158 4.92726C14.0335 5.31847 13.1739 5.79784 12.5788 6.16702C12.4026 6.27717 12.2427 6.36538 12.2207 6.36538C12.1987 6.36538 12.083 6.34333 11.9618 6.32679L11.7414 6.29368L11.1905 5.75368C10.2207 4.81155 9.46035 4.08427 9.16831 3.80872L8.8817 3.54981ZM8.66139 3.72058L9.43827 4.69036C9.86248 5.22482 10.2923 5.74822 10.386 5.86388C10.4796 5.97966 10.5568 6.07337 10.5513 6.07886C10.5292 6.09537 9.42734 5.88045 8.84321 5.74827C8.24264 5.61049 7.99471 5.54437 7.62556 5.42872L7.32249 5.3295V5.25231C7.32798 4.88313 7.79637 4.33218 8.58977 3.77023L8.66139 3.72058ZM15.2622 5.04297C15.2843 5.04297 15.3117 5.09254 15.3778 5.24131C15.5652 5.65452 16.1493 6.76757 16.2925 6.98242C16.3367 7.05412 16.4137 7.05961 15.6369 6.93287C13.7691 6.62976 13.1684 6.53069 13.1684 6.51966C13.1684 6.51417 13.2235 6.47558 13.2952 6.43698C13.8737 6.11748 14.4577 5.7097 14.9757 5.27441C15.1024 5.16971 15.2181 5.07054 15.2401 5.05397C15.2456 5.04297 15.2567 5.03748 15.2622 5.04297Z" fill="url(#paint1_linear_2047_10729)"/>
<path d="M6.39693 4.59637C6.39693 4.59637 6.27579 4.7893 6.39147 5.07582C6.46317 5.25208 6.67251 5.46693 6.90939 5.68737C6.90939 5.68737 9.36127 8.07863 9.65882 8.42029C11.0142 9.98504 11.6038 11.5278 11.6589 13.6547C11.692 15.0211 11.4329 16.2222 10.7883 17.6163C9.64226 20.1178 7.22338 22.8782 3.49323 25.9417L4.03879 25.7599C4.3914 25.4953 4.87077 25.2144 5.99475 24.5973C8.58986 23.1757 11.5101 21.8698 15.0916 20.5255C20.2487 18.5859 28.7284 16.3158 33.555 15.5776L34.0565 15.5004L33.9793 15.3792C33.5386 14.6959 33.2354 14.2717 32.8717 13.8199C31.8139 12.5085 30.5302 11.4452 28.9598 10.5636C26.8 9.35698 24.0064 8.4148 20.4691 7.71504C19.8024 7.58274 18.3368 7.32932 17.1467 7.1475C14.6231 6.75639 12.9922 6.48635 11.196 6.1778C10.5514 6.06755 9.58712 5.9023 8.94798 5.76459C8.6174 5.69289 7.98382 5.54415 7.48793 5.37335C7.09124 5.219 6.51816 5.06472 6.39693 4.59637ZM7.81857 5.9739C7.82401 5.96846 7.91215 6.00142 8.02793 6.04001C8.23729 6.11156 8.50725 6.19424 8.82691 6.28245C9.06874 6.34897 9.31118 6.41325 9.55419 6.47528C9.88478 6.55788 10.1602 6.63504 10.1657 6.63504C10.2044 6.67364 10.7609 8.45319 10.9482 9.13644C11.0197 9.39548 11.0749 9.61582 11.0694 9.61582C11.0638 9.62141 11.0032 9.52767 10.9316 9.40096C10.287 8.26591 9.26764 7.11437 8.0885 6.18867C7.9343 6.07858 7.81857 5.97939 7.81857 5.9739ZM10.5294 6.72323C10.557 6.72323 10.6782 6.73977 10.8269 6.7728C11.7636 6.98217 13.4441 7.30175 14.5185 7.4836C14.7003 7.51111 14.8436 7.54424 14.8436 7.5552C14.8436 7.56627 14.7775 7.60477 14.6948 7.6489C14.513 7.74253 13.7802 8.17777 13.5378 8.3431C12.9262 8.75082 12.3752 9.1916 11.9785 9.5883C11.8187 9.74812 11.6809 9.88034 11.6809 9.88034C11.6809 9.88034 11.6479 9.78671 11.6203 9.67092C11.422 8.90505 11.0087 7.76999 10.6341 6.97111C10.5734 6.84443 10.5238 6.7287 10.5238 6.71772C10.5238 6.72872 10.5238 6.72323 10.5294 6.72323ZM15.3009 7.63236C15.334 7.64334 15.3891 7.83069 15.4993 8.24391C15.7032 9.04289 15.7968 9.93547 15.7638 10.7675C15.7527 10.9989 15.7417 11.2137 15.7306 11.2413L15.7142 11.2964L15.4277 11.2028C14.8381 11.0154 13.8794 10.7344 13.0585 10.503C12.5901 10.3763 12.21 10.2605 12.21 10.2495C12.21 10.2164 12.8932 9.53324 13.1852 9.27431C13.7416 8.78385 15.2513 7.61579 15.3009 7.63236ZM15.6811 7.68739C15.6977 7.67095 17.9622 8.06206 18.9926 8.26045C19.7585 8.40919 20.8714 8.64063 20.9375 8.66822C20.9706 8.6792 20.8548 8.74531 20.4857 8.91059C19.0311 9.56632 17.9511 10.1558 16.8768 10.8721C16.5958 11.0595 16.3588 11.2137 16.3533 11.2137C16.3479 11.2137 16.3423 11.054 16.3423 10.8611C16.3423 9.81428 16.133 8.75636 15.7472 7.86378C15.7086 7.77561 15.6756 7.69298 15.6811 7.68739ZM21.5381 8.84453C21.5546 8.86104 21.483 9.30739 21.4168 9.57181C21.2185 10.3928 20.6841 11.6106 20.0285 12.7565C19.9127 12.9604 19.808 13.1257 19.7969 13.1312C19.786 13.1367 19.6372 13.054 19.4664 12.9548C18.8273 12.5802 18.1 12.2276 17.3065 11.8969C17.0862 11.8033 16.8933 11.7261 16.8878 11.7152C16.8491 11.6821 18.6234 10.5085 19.56 9.94648C20.3039 9.49469 21.516 8.82245 21.5381 8.84453ZM21.9568 8.91061C22.0064 8.91061 23.0092 9.18614 23.5326 9.34042C24.8274 9.72614 26.3151 10.2716 27.2848 10.7124L27.687 10.8942L27.4061 10.9603C25.0369 11.5057 23.0092 12.134 21.0532 12.9274C20.8934 12.9935 20.7501 13.0486 20.7392 13.0486C20.7281 13.0486 20.7832 12.9219 20.8549 12.7675C21.4444 11.5168 21.8246 10.211 21.9182 9.09792C21.9238 8.99322 21.9402 8.91061 21.9568 8.91061ZM11.973 11.2028C11.9895 11.1862 12.7554 11.3681 13.1686 11.4837C13.7967 11.66 15.1301 12.1063 15.1301 12.1394C15.1301 12.1449 14.9814 12.2716 14.8051 12.4259C14.0833 13.0265 13.389 13.6601 12.557 14.4645C12.309 14.7015 12.0997 14.8944 12.0887 14.8944C12.0776 14.8944 12.0722 14.8612 12.0776 14.8172C12.2044 13.8915 12.1769 12.7014 12.0006 11.4947C11.984 11.3404 11.9675 11.2082 11.973 11.2028ZM28.0673 11.2193C28.0782 11.2303 27.7146 11.8033 27.4832 12.1283C27.1527 12.6022 26.6677 13.2304 25.5712 14.6079C24.9928 15.3351 24.3425 16.1561 24.1277 16.4316C23.9072 16.7071 23.7255 16.9384 23.7199 16.9384C23.7144 16.9384 23.6429 16.8393 23.5657 16.7181C22.9486 15.7924 22.2102 14.9825 21.3341 14.2552C21.1689 14.1174 20.9871 13.9686 20.9265 13.9246C20.8659 13.8805 20.8162 13.8364 20.8162 13.8309C20.8162 13.8144 21.7528 13.4121 22.4637 13.1257C23.709 12.6187 25.4058 12.0127 26.6787 11.6215C27.3454 11.4121 28.0562 11.2082 28.0673 11.2193ZM28.4915 11.3294C28.5135 11.324 28.6458 11.3901 28.8056 11.4837C30.1445 12.2495 31.4558 13.2359 32.4917 14.2497C32.7837 14.5362 33.5055 15.2856 33.4944 15.2911C33.4944 15.2911 33.241 15.3131 32.9435 15.3351C30.6238 15.5115 27.6541 16.0018 24.7999 16.6905C24.6071 16.7345 24.4363 16.7731 24.4253 16.7731C24.4144 16.7731 24.6292 16.5583 24.8992 16.2993C26.5741 14.685 27.3401 13.6656 28.2436 11.8473C28.3703 11.5774 28.4805 11.346 28.4915 11.3294C28.486 11.3294 28.486 11.3294 28.4915 11.3294ZM16.221 12.5858C16.2982 12.6022 17.0145 12.9384 17.5545 13.2083C18.0503 13.4562 18.7942 13.853 18.8328 13.886C18.8383 13.8915 18.5737 14.0292 18.2488 14.1891C17.2128 14.707 16.3258 15.1973 15.4001 15.7593C15.1356 15.9192 14.9152 16.0515 14.9098 16.0515C14.8877 16.0515 14.8932 16.0293 15.042 15.7593C15.5379 14.8558 15.9345 13.7759 16.1605 12.7234C16.1825 12.6408 16.2046 12.5858 16.221 12.5858ZM15.5047 12.7179C15.5213 12.7345 15.334 13.4122 15.2183 13.7813C14.9923 14.4811 14.6122 15.3572 14.2431 16.0183C14.1548 16.1725 14.0226 16.3985 13.951 16.5252L13.8133 16.7456L13.5047 16.4481C13.1466 16.101 12.8545 15.8861 12.4799 15.6932C12.3311 15.6161 12.2154 15.5499 12.2154 15.539C12.2154 15.4949 13.1576 14.6409 13.8794 14.0238C14.3973 13.5775 15.4882 12.7014 15.5047 12.7179ZM19.8852 14.5197L20.1552 14.696C20.7722 15.0982 21.4994 15.6326 22.0561 16.101C22.37 16.3599 22.9761 16.9054 23.0974 17.0377L23.1634 17.1094L22.7172 17.2361C20.1937 17.9357 18.2432 18.5584 15.9676 19.3959C15.7142 19.4895 15.4993 19.5667 15.4827 19.5667C15.4497 19.5667 15.4221 19.5942 15.9897 19.0707C17.4443 17.732 18.7335 16.2552 19.6923 14.8172L19.8852 14.5197ZM18.7336 14.8062C18.7446 14.8172 17.9898 15.8806 17.5379 16.4812C16.9979 17.1975 16.0392 18.3986 15.378 19.1809C15.1026 19.5061 14.8657 19.776 14.8546 19.7816C14.8381 19.787 14.8326 19.7044 14.8326 19.5777C14.8326 18.9109 14.6618 18.2002 14.3642 17.5941C14.2375 17.3407 14.2155 17.2801 14.2431 17.2525C14.3478 17.1588 15.9511 16.2442 16.9649 15.6988C17.6481 15.3351 18.7169 14.7952 18.7336 14.8062ZM11.7691 16.5143C11.7856 16.5143 11.9124 16.5803 12.0556 16.6575C12.4083 16.8503 12.7223 17.0652 13.0033 17.2967C13.0143 17.3077 12.8711 17.4234 12.6838 17.5611C12.1603 17.9357 11.3669 18.5364 10.9041 18.9055C10.4192 19.2912 10.4027 19.3022 10.4578 19.2196C10.8215 18.6631 11.0032 18.349 11.1961 17.9468C11.3669 17.5887 11.5377 17.1645 11.6589 16.7953C11.703 16.6355 11.7581 16.5143 11.7691 16.5143ZM13.626 17.9688C13.6534 17.9634 13.6866 18.0129 13.8353 18.2333C14.1493 18.7016 14.3918 19.3298 14.4525 19.8367L14.4634 19.9469L13.7086 20.239C12.3586 20.7624 11.1135 21.2803 10.2704 21.6659C10.0335 21.7762 9.62025 21.9745 9.35032 22.1068C9.08031 22.2445 8.85992 22.3492 8.85992 22.3437C8.85992 22.3382 9.03069 22.2115 9.24005 22.0572C10.8876 20.8616 12.3146 19.5502 13.3835 18.2389C13.4992 18.1011 13.604 17.9743 13.6149 17.9688L13.626 17.9688ZM12.7719 18.1782C12.794 18.2003 12.1659 18.911 11.7361 19.3463C10.6727 20.4318 9.62031 21.2803 8.31443 22.1068C8.14915 22.2115 8.00041 22.3051 7.98385 22.3162C7.94525 22.3382 7.99482 22.2831 8.56788 21.6605C8.93157 21.2693 9.20702 20.9387 9.52109 20.531C9.73045 20.2611 9.76904 20.2225 10.0721 20.0075C10.8821 19.4234 12.7499 18.1562 12.7719 18.1782Z" fill="url(#paint2_radial_2047_10729)"/>
<defs>
<linearGradient id="paint0_linear_2047_10729" x1="6.28445" y1="33.5993" x2="8.92036" y2="32.0418" gradientUnits="userSpaceOnUse">
<stop stop-color="#909CA9"/>
<stop offset="1" stop-color="#EDEDEE"/>
</linearGradient>
<linearGradient id="paint1_linear_2047_10729" x1="6.34453" y1="4.23601" x2="8.46544" y2="4.23601" gradientUnits="userSpaceOnUse">
<stop stop-color="#939FAB"/>
<stop offset="1" stop-color="#DCDEE1"/>
</linearGradient>
<radialGradient id="paint2_radial_2047_10729" cx="0" cy="0" r="1" gradientUnits="userSpaceOnUse" gradientTransform="translate(17.0469 13.9629) rotate(-171.457) scale(2.73445 5.47025)">
<stop stop-color="#EE352C"/>
<stop offset="1" stop-color="#A91D22"/>
</radialGradient>
</defs>
</svg>
