<svg width="34" height="38" viewBox="0 0 34 38" fill="none" xmlns="http://www.w3.org/2000/svg">
<path fill-rule="evenodd" clip-rule="evenodd" d="M21.1885 1.21408C20.8243 0.780515 20.2173 0.676459 19.7317 0.953941L19.2808 1.19674L14.3728 3.9889L15.5174 6.00064L18.7085 4.17967L17.928 8.44595L20.1999 8.86217L20.9977 4.57855L23.3563 7.38805L25.1252 5.89658L21.5527 1.6303H21.5353L21.1885 1.21408ZM14.3034 37.2C15.4827 37.2 16.4366 36.2635 16.4366 35.1189C16.4366 33.9743 15.4827 33.0378 14.3034 33.0378C13.1241 33.0378 12.1703 33.9743 12.1703 35.1189C12.153 36.2635 13.1241 37.2 14.3034 37.2ZM17.165 25.7712L16.4019 30.0548L14.1127 29.6386L14.8757 25.3723L11.6847 27.2106L10.5228 25.1989L15.396 22.4067L15.8469 22.1466C16.3325 21.8691 16.9395 21.9732 17.3037 22.4067L17.6506 22.823L21.2752 27.0719L19.5062 28.5807L17.165 25.7712ZM19.0206 15.5391L18.2576 19.8227L15.9683 19.4065L16.7314 15.1575L13.5577 16.9785L12.4131 14.9668L17.269 12.1919V12.1573H17.3037L17.7546 11.8971C18.2402 11.6196 18.8472 11.7237 19.2114 12.1573L19.5583 12.5561L23.1655 16.8224L21.3966 18.3312L19.0206 15.5391ZM4.05396 32.4655H4.03662L3.56837 32.3267C3.06543 32.188 2.73592 31.7024 2.77061 31.1821L3.18683 25.3897L5.38934 25.5458L5.1292 29.0663L8.5457 26.7424L9.77702 28.5634L6.4299 30.8353L9.84639 31.8238L9.2394 33.9396L4.05396 32.4655ZM26.7207 34.8587L26.5647 35.3617C26.4086 35.8473 25.9577 36.1768 25.4374 36.1421L24.9518 36.1074L24.9171 36.1247L24.8998 36.1074L19.5236 35.7432L19.6623 33.5407L23.2349 33.7835L20.8936 30.5057L22.6799 29.2224L25.0732 32.5869L26.1138 29.1877L28.2122 29.8294L26.7207 34.8587ZM33.0335 22.927L33.2936 23.3953C33.5537 23.8635 33.4497 24.4532 33.0335 24.8L32.6519 25.1295V25.1469H32.6346L28.455 28.6848L26.9982 26.9679L29.7384 24.6439L25.6282 23.9156L26.027 21.6957L30.1719 22.4241L28.4377 19.3024L30.3974 18.2098L33.0335 22.927ZM28.7845 13.2499L25.0732 15.2443L23.998 13.2672L27.6573 11.3075L24.3101 9.93741L25.1599 7.8563L30.2586 9.92007L30.276 9.90273L30.2933 9.93741L30.7616 10.1282C31.2645 10.3363 31.542 10.8566 31.4553 11.3768L31.3686 11.8971L30.4147 17.1866L28.1949 16.7877L28.7845 13.2499ZM3.88054 17.8977L8.00808 18.5914L7.62654 20.8112L3.46431 20.1002L5.23326 23.2218L3.27355 24.3318L0.602784 19.6319L0.342645 19.181C0.0825056 18.7128 0.186561 18.1231 0.585441 17.7763L0.966978 17.4468V17.4294H0.984321L5.11186 13.8742L6.58598 15.5911L3.88054 17.8977ZM10.1065 8.28986L12.8467 11.3422L11.1644 12.851L8.35493 9.7293L7.71325 13.2845L5.4934 12.8857L6.46458 7.6135L6.56864 7.07588C6.65535 6.5556 7.10626 6.17407 7.62654 6.15672L8.11213 6.13938L8.12948 6.12204L8.14682 6.13938L13.6618 5.91393L13.7485 8.16847L10.1065 8.28986Z" fill="#111111"/>
</svg>
