<svg width="29" height="38" viewBox="0 0 29 38" fill="none" xmlns="http://www.w3.org/2000/svg">
<g clip-path="url(#clip0_2047_10804)">
<path d="M3.60467 5.58118C3.60467 10.4187 6.60904 13.3213 12.6178 14.8489L18.983 16.3256C24.6862 17.6496 28.1489 20.9086 28.1489 26.2044C28.1998 28.4959 27.436 30.7364 26.0611 32.5696C26.0611 27.2738 23.3113 24.4222 16.7424 22.6908L10.4791 21.265C5.43785 20.1447 1.56781 17.4459 1.56781 11.6918C1.56781 9.50214 2.28071 7.31251 3.60467 5.58118Z" fill="#F04939"/>
<path d="M22.1402 24.8805C24.839 26.6118 26.0611 29.0561 26.0611 32.5697C23.7697 35.4722 19.8487 37.0508 15.2149 37.0508C7.42386 37.0508 1.87341 33.1807 0.702209 26.51H8.18768C9.15519 29.5653 11.7013 30.9911 15.1639 30.9911C19.2886 31.042 22.0893 28.8015 22.1402 24.8805ZM3.60474 5.53033C5.79436 2.67872 9.56256 0.947388 14.1455 0.947388C22.1402 0.947388 26.7231 5.17388 27.8943 11.0808H20.6635C19.8487 8.73838 17.8628 6.90521 14.2473 6.90521C10.3264 6.95613 7.67846 9.19668 7.5257 12.7612C4.90172 11.3141 3.5029 8.48378 3.60474 5.53033Z" fill="#F37368"/>
</g>
<defs>
<clipPath id="clip0_2047_10804">
<rect width="27.637" height="36.4" fill="white" transform="translate(0.600159 0.799927)"/>
</clipPath>
</defs>
</svg>
