<svg width="37" height="34" viewBox="0 0 37 34" fill="none" xmlns="http://www.w3.org/2000/svg">
<g clip-path="url(#clip0_2047_10809)">
<path d="M9.86697 28.521C10.7757 28.521 11.6471 28.1632 12.2903 27.5274C12.9335 26.8917 13.2951 26.0278 13.2951 25.1278C13.2951 24.6815 13.2065 24.2402 13.0345 23.8289C12.8625 23.4175 12.6094 23.0435 12.2916 22.7281C11.9737 22.4127 11.5947 22.1634 11.1796 21.9926C10.7633 21.8219 10.3182 21.7346 9.86822 21.7359C8.95946 21.7359 8.08811 22.0936 7.44612 22.7294C6.80413 23.3651 6.44263 24.229 6.44263 25.129C6.44387 26.0291 6.80414 26.8917 7.44737 27.5274C8.08811 28.1619 8.95822 28.5197 9.86697 28.521Z" fill="#E94458"/>
<path d="M27.3079 25.6118C27.7579 25.6118 28.2042 25.5245 28.6193 25.3538C29.0356 25.183 29.4133 24.9337 29.7312 24.6183C30.0491 24.3029 30.3021 23.9289 30.4742 23.5175C30.6462 23.1062 30.7347 22.6649 30.7347 22.2186C30.7335 21.3186 30.372 20.456 29.73 19.819C29.0867 19.1832 28.2154 18.8254 27.3066 18.8254C26.3979 18.8267 25.5278 19.1845 24.8858 19.8202C24.2438 20.456 23.8823 21.3186 23.881 22.2186C23.881 23.1186 24.2413 23.9813 24.8845 24.6183C25.5278 25.254 26.3991 25.6118 27.3079 25.6118Z" fill="#E94458"/>
<path d="M1.43391 33.8229C1.3267 33.8229 1.2195 33.8042 1.11852 33.7656C1.01132 33.7244 0.914085 33.6634 0.830565 33.5861C0.747044 33.5075 0.680975 33.414 0.634851 33.3106C0.588728 33.2071 0.563797 33.0949 0.561304 32.9815C0.558811 32.868 0.578756 32.7558 0.62114 32.6499C0.641085 32.5925 1.46258 30.2615 1.84154 22.3656C2.04722 18.0712 2.05221 16.1839 1.70317 11.9667C1.36535 7.9303 1.91758 5.55558 3.33119 4.90611C5.3145 4.00484 7.11206 5.45834 8.85227 6.86697C10.772 8.42145 12.7553 10.0171 15.4142 9.63312C17.2268 9.36386 17.8912 7.68348 18.6977 5.14919C19.3285 3.17711 19.9755 1.14021 21.8777 0.854741C22.774 0.726343 23.7601 1.06915 24.8059 1.87943C29.8296 5.76999 35.7359 19.5596 36.7307 29.7204C36.7419 29.8326 36.7307 29.9461 36.697 30.0545C36.6634 30.163 36.6098 30.2627 36.5375 30.35C36.4652 30.4372 36.3754 30.5095 36.2744 30.5619C36.1735 30.6155 36.0638 30.6479 35.9503 30.6591C35.721 30.6803 35.4928 30.6117 35.3158 30.4659C35.1388 30.3213 35.0266 30.1119 35.0042 29.885C33.9832 19.4374 27.956 6.49674 23.7302 3.22947C23.0907 2.73707 22.5222 2.49399 22.1196 2.55382C21.2844 2.67723 20.8244 4.12576 20.3332 5.66278C19.5928 7.98765 18.674 10.8797 15.6561 11.3285C12.2367 11.8383 9.73859 9.81637 7.73534 8.17962C6.06119 6.82584 4.98665 6.01806 4.03551 6.46184C3.63411 6.64508 3.10806 8.2594 3.40474 11.8184C3.76376 16.1328 3.75503 18.0575 3.54685 22.4379C3.14545 30.795 2.25166 33.161 2.21426 33.2582C2.15567 33.4178 2.04971 33.5574 1.9101 33.6584C1.77173 33.7593 1.60593 33.8167 1.43391 33.8229Z" fill="#221F20"/>
<path d="M5.47426 27.1288C5.38949 27.1275 5.30722 27.1026 5.23616 27.0565C5.16511 27.0103 5.10901 26.9443 5.07536 26.8682C5.05167 26.8159 5.0392 26.7598 5.03671 26.7024C5.03546 26.6451 5.04544 26.5877 5.06663 26.5341C5.08782 26.4805 5.12023 26.4319 5.16012 26.3908C5.20126 26.3497 5.24863 26.3172 5.30223 26.2948L8.71037 24.8463L5.13145 24.1245C5.07536 24.1133 5.023 24.0921 4.97563 24.0609C4.92826 24.0298 4.88837 23.9899 4.85596 23.9425C4.82479 23.8951 4.80236 23.8428 4.79238 23.7879C4.78116 23.7331 4.78116 23.6757 4.79363 23.6209C4.80485 23.5648 4.82604 23.5124 4.85721 23.4651C4.88837 23.4177 4.92951 23.3778 4.97688 23.3466C5.02425 23.3155 5.07785 23.293 5.1327 23.2831C5.18879 23.2719 5.24614 23.2719 5.30223 23.2831L10.2424 24.2791C10.3334 24.2965 10.4157 24.3427 10.478 24.41C10.5403 24.4773 10.579 24.5633 10.589 24.6543C10.5977 24.7453 10.5777 24.8376 10.5316 24.9161C10.4842 24.9946 10.4144 25.0582 10.3297 25.0944L5.64379 27.0901C5.59144 27.1163 5.53285 27.13 5.47426 27.1288Z" fill="#221F20"/>
<path d="M31.7036 22.9428H31.6799L26.5889 22.671C26.4992 22.6673 26.4131 22.6374 26.3421 22.5838C26.271 22.5302 26.2187 22.4554 26.1925 22.3706C26.1701 22.2821 26.1763 22.1886 26.2112 22.1038C26.2461 22.0191 26.3072 21.948 26.3857 21.9006L30.6789 19.2803C30.7774 19.2218 30.8946 19.2031 31.0055 19.2292C31.1165 19.2554 31.2137 19.324 31.2748 19.42C31.3346 19.5172 31.3521 19.6344 31.3259 19.7453C31.2997 19.8563 31.2299 19.9522 31.1327 20.0133L28.0225 21.9081L31.726 22.1051C31.8407 22.1113 31.9479 22.1624 32.0252 22.2472C32.1025 22.332 32.1424 22.4429 32.1362 22.5563C32.1237 22.6623 32.0738 22.7595 31.9928 22.8306C31.9143 22.9041 31.8108 22.9428 31.7036 22.9428Z" fill="#221F20"/>
<path d="M18.1458 25.8948C17.4365 25.9247 16.7384 25.7215 16.1588 25.3151C15.5791 24.91 15.1528 24.3241 14.9459 23.6534C14.9022 23.5113 14.916 23.3568 14.9845 23.2246C15.0531 23.0925 15.1715 22.9915 15.3136 22.9429C15.4582 22.893 15.6165 22.9005 15.7549 22.9666C15.8933 23.0327 15.9992 23.1486 16.0503 23.2919C16.4293 24.4375 17.4266 24.9349 18.7878 24.6918C20.1491 24.4488 20.8783 23.621 20.8521 22.4181C20.8521 22.266 20.9132 22.1202 21.0217 22.013C21.1301 21.9057 21.2772 21.8447 21.4306 21.8447C21.5839 21.8447 21.731 21.9045 21.8394 22.013C21.9479 22.1202 22.009 22.266 22.009 22.4181C22.0464 24.187 20.8908 25.4984 18.9935 25.8399C18.713 25.8836 18.4301 25.9023 18.1458 25.8948Z" fill="#221F20"/>
<path d="M8.4708 20.7962C8.42842 20.8012 8.38603 20.8012 8.34365 20.7962C8.19406 20.7625 8.06442 20.6715 7.98215 20.5431C7.89987 20.4147 7.87369 20.2602 7.90735 20.1118C8.19656 18.8839 9.77721 16.9792 11.7343 16.6763C13.6915 16.3733 15.6885 17.8219 16.0188 18.9351C16.04 19.0074 16.0462 19.0834 16.0388 19.1582C16.03 19.233 16.0076 19.3053 15.9714 19.3714C15.9353 19.4374 15.8854 19.496 15.8268 19.5421C15.7683 19.5895 15.6997 19.6244 15.6274 19.6456C15.4803 19.688 15.3232 19.6718 15.1886 19.5995C15.054 19.5272 14.9542 19.405 14.9106 19.2592C14.7486 18.7094 13.3324 17.5838 11.9188 17.8081C10.5052 18.0313 9.2362 19.491 9.02802 20.3848C8.99312 20.5032 8.91957 20.608 8.81984 20.6828C8.71762 20.7563 8.59546 20.7962 8.4708 20.7962Z" fill="#221F20"/>
<path d="M19.7413 18.8889C19.6877 18.8901 19.6341 18.8814 19.5818 18.8664C19.5082 18.8465 19.4409 18.8116 19.3811 18.7642C19.3212 18.7181 19.2714 18.6595 19.2352 18.5947C19.1978 18.5286 19.1741 18.4563 19.1654 18.3815C19.1567 18.3067 19.1629 18.2307 19.1829 18.1584C19.4721 17.1187 20.5217 15.2751 22.5386 14.9572C24.3748 14.6705 26.4878 15.8871 27.0799 17.13C27.1123 17.1985 27.1298 17.2733 27.1323 17.3481C27.1348 17.4229 27.1223 17.499 27.0961 17.57C27.0687 17.6411 27.0288 17.7059 26.9764 17.7607C26.9241 17.8156 26.8618 17.8605 26.792 17.8916C26.7222 17.924 26.6474 17.9415 26.5701 17.9452C26.494 17.9477 26.4167 17.9365 26.3457 17.9091C26.2734 17.8829 26.2086 17.8418 26.1525 17.7894C26.0964 17.737 26.0515 17.6747 26.0203 17.6049C25.6613 16.852 24.0744 15.856 22.7082 16.0729C21.2634 16.2985 20.4905 17.7308 20.2823 18.4576C20.2512 18.5772 20.1814 18.6844 20.0841 18.7617C19.9869 18.8403 19.866 18.8851 19.7413 18.8889Z" fill="#221F20"/>
<path fill-rule="evenodd" clip-rule="evenodd" d="M22.8665 20.9397C21.6524 20.9385 20.4868 20.4598 19.6279 19.6084C18.7765 18.7657 18.2941 17.6251 18.2841 16.4333C18.1121 16.4047 17.9388 16.3897 17.7643 16.3897C17.1896 16.3897 16.6299 16.5455 16.1437 16.8372C16.3083 17.3084 16.3955 17.8083 16.3968 18.3169C16.3955 19.5199 15.9119 20.673 15.053 21.5244C14.1941 22.3745 13.0298 22.8532 11.8144 22.8557C10.6002 22.8545 9.43467 22.3758 8.57578 21.5244C7.8216 20.7764 7.35662 19.7954 7.25316 18.752L6.34939 18.9153C6.30701 18.9265 6.26338 18.9327 6.21975 18.9352C6.05021 18.934 5.88691 18.8754 5.75727 18.7669C5.62762 18.6597 5.54036 18.5101 5.51045 18.3456C5.49299 18.2533 5.49424 18.1586 5.51419 18.0676C5.53413 17.9766 5.57153 17.8893 5.62513 17.8121C5.67873 17.7348 5.7473 17.6687 5.82708 17.6176C5.90686 17.5665 5.99536 17.5316 6.08886 17.5154L7.35288 17.2848C7.54735 16.4683 7.96745 15.7141 8.57578 15.112C9.43467 14.2618 10.599 13.7831 11.8131 13.7819C13.0273 13.7831 14.1916 14.2618 15.0505 15.112C15.1976 15.2578 15.3335 15.4112 15.4581 15.5732C16.1537 15.1718 16.949 14.9562 17.7643 14.9562C18.0124 14.9562 18.2604 14.9761 18.5047 15.016C18.7254 14.3354 19.1081 13.7096 19.6279 13.1947C20.4868 12.3446 21.6511 11.8659 22.8665 11.8634C24.0807 11.8646 25.2462 12.3433 26.1051 13.1947C26.2996 13.3867 26.4741 13.5949 26.6287 13.8155C26.6411 13.813 26.6536 13.8106 26.6648 13.8081L27.7543 13.6111C27.9426 13.5774 28.1358 13.6186 28.2929 13.7258C28.4499 13.833 28.5584 13.9975 28.5933 14.1833C28.6282 14.3703 28.5871 14.5622 28.4786 14.7181C28.3701 14.8739 28.2031 14.9811 28.0161 15.016L27.2707 15.1506C27.3878 15.5533 27.4489 15.9746 27.4489 16.4009C27.4477 17.6039 26.964 18.757 26.1051 19.6084C25.245 20.4598 24.0807 20.9385 22.8665 20.9397ZM22.8665 13.2945C22.0351 13.2957 21.2372 13.6223 20.6489 14.2057C20.0605 14.7879 19.7301 15.5782 19.7289 16.4009C19.7301 17.2249 20.0617 18.014 20.6489 18.5962C21.2372 19.1783 22.0338 19.5062 22.8653 19.5074C23.6967 19.5062 24.4933 19.1783 25.0817 18.5962C25.6701 18.014 26.0004 17.2249 26.0017 16.4009C26.0004 15.577 25.6701 14.7879 25.0817 14.2057C24.4958 13.6236 23.698 13.2957 22.8665 13.2945ZM11.8156 15.2105C10.9842 15.2117 10.1876 15.5396 9.59921 16.1217C9.01083 16.7039 8.68049 17.4929 8.67924 18.3169C8.68049 19.1409 9.01208 19.93 9.59921 20.5121C10.1876 21.0943 10.9842 21.4221 11.8156 21.4234C12.6471 21.4221 13.4437 21.0943 14.032 20.5121C14.6204 19.93 14.9508 19.1409 14.952 18.3169C14.9495 17.4942 14.6179 16.7051 14.0308 16.1242C13.4424 15.542 12.6471 15.2154 11.8156 15.2142V15.2105Z" fill="#B4B9DF"/>
</g>
<defs>
<clipPath id="clip0_2047_10809">
<rect width="36.4" height="33.0342" fill="white" transform="translate(0.437012 0.799866)"/>
</clipPath>
</defs>
</svg>
