<svg width="32" height="39" viewBox="0 0 32 39" fill="none" xmlns="http://www.w3.org/2000/svg">
<path fill-rule="evenodd" clip-rule="evenodd" d="M4.75 7.30005H25.55V29.4H4.75V7.30005Z" fill="white"/>
<path d="M17.7911 19.4338H11.251V22.9001H17.6343C18.0117 22.9001 18.3576 22.7269 18.6409 22.4501C18.8918 22.172 19.0496 21.7561 19.0496 21.2365C19.0583 20.7892 18.9367 20.351 18.7036 19.9888C18.4517 19.6412 18.1684 19.4338 17.7911 19.4338ZM18.0117 15.2383C18.2949 15.0309 18.4203 14.5796 18.4203 13.9905C18.4203 13.471 18.2949 13.0892 18.0743 12.8465C17.8467 12.6261 17.5572 12.5034 17.257 12.5001H11.25V15.62H17.1315C17.4451 15.62 17.7598 15.4469 18.0117 15.2383Z" fill="#0AB3AF"/>
<path d="M29.4074 3.39984H2.39858C1.53792 3.39984 0.850037 4.08376 0.850037 4.90489V31.7936C0.850037 32.6158 1.53792 33.1284 2.36444 33.1284H6.35524V38.4998L11.3102 33.1625H29.4084C30.2339 33.1625 30.75 32.6498 30.75 31.7946V4.93892C30.75 4.1178 30.2339 3.43388 29.3743 3.43388L29.4074 3.39984ZM24.8673 25.1916C24.5128 25.8125 24.0032 26.3314 23.3881 26.6978C22.7344 27.1073 22.0123 27.4848 21.1858 27.655C20.3604 27.8603 19.4656 28.0316 18.5367 28.0316H6.35524V8.87331H20.1876C20.8755 8.87331 21.4599 9.01053 22.0113 9.31791C22.5264 9.59233 23.0084 9.9678 23.3871 10.4135C24.1577 11.3472 24.5721 12.5228 24.557 13.732C24.557 14.6212 24.316 15.4764 23.8681 16.2975C23.4039 17.1239 22.6781 17.7737 21.8044 18.1451C22.905 18.4524 23.7656 19.0002 24.4183 19.7862C25.038 20.6073 25.3483 21.6689 25.3483 23.0027C25.3483 23.8578 25.1755 24.5768 24.8322 25.1916H24.8673Z" fill="#0AB3AF"/>
</svg>
