<svg width="34" height="38" viewBox="0 0 34 38" fill="none" xmlns="http://www.w3.org/2000/svg">
<g clip-path="url(#clip0_2047_10686)">
<path d="M23.2953 14.0634C23.2946 14.521 23.2042 14.9739 23.0293 15.3962C22.8544 15.8186 22.5983 16.2021 22.2759 16.5249C21.9534 16.8477 21.5708 17.1034 21.15 17.2773C20.7291 17.4513 20.2783 17.5401 19.8233 17.5387C19.3683 17.5401 18.9175 17.4513 18.4967 17.2773C18.0759 17.1034 17.6933 16.8477 17.3708 16.5249C17.0483 16.2021 16.7923 15.8186 16.6174 15.3962C16.4425 14.9739 16.3521 14.521 16.3514 14.0634C16.3524 13.6061 16.4431 13.1535 16.6181 12.7315C16.7932 12.3094 17.0493 11.9262 17.3717 11.6037C17.6942 11.2812 18.0766 11.0258 18.4973 10.852C18.918 10.6782 19.3686 10.5894 19.8233 10.5908C20.2781 10.5894 20.7287 10.6782 21.1494 10.852C21.57 11.0258 21.9525 11.2812 22.2749 11.6037C22.5974 11.9262 22.8534 12.3094 23.0285 12.7315C23.2036 13.1535 23.2942 13.6061 23.2953 14.0634Z" fill="#FFC131"/>
<path d="M17.4771 23.8252C17.4761 24.2825 17.3854 24.7351 17.2104 25.1572C17.0353 25.5792 16.7792 25.9625 16.4568 26.285C16.1343 26.6075 15.7519 26.8629 15.3312 27.0367C14.9105 27.2105 14.4599 27.2992 14.0052 27.2978C13.5502 27.2996 13.0993 27.2111 12.6783 27.0375C12.2574 26.8638 11.8746 26.6084 11.5519 26.2859C11.2291 25.9634 10.9728 25.58 10.7976 25.1578C10.6224 24.7356 10.5316 24.2827 10.5306 23.8252C10.5313 23.3675 10.6218 22.9143 10.7968 22.4918C10.9719 22.0693 11.2282 21.6856 11.5509 21.3628C11.8737 21.04 12.2566 20.7844 12.6777 20.6106C13.0989 20.4368 13.55 20.3482 14.0052 20.3499C14.4602 20.3485 14.911 20.4374 15.3318 20.6113C15.7526 20.7853 16.1352 21.041 16.4577 21.3637C16.7802 21.6865 17.0362 22.0701 17.2111 22.4924C17.386 22.9148 17.4764 23.3677 17.4771 23.8252Z" fill="#24C8DB"/>
<path d="M11.3574 10.9363C5.36472 12.1638 0.856995 17.4671 0.856995 23.8225C0.856995 31.0892 6.74399 36.977 14.005 36.977C16.8031 36.9807 19.5294 36.0865 21.7872 34.4245C24.045 32.7625 25.7165 30.4194 26.5584 27.7361C24.9791 28.5148 23.2781 29.0136 21.5302 29.2107C20.6718 30.4106 19.5415 31.3876 18.2328 32.0608C16.9242 32.734 15.4749 33.084 14.005 33.0819C12.7929 33.085 11.5921 32.8481 10.4712 32.3846C9.35021 31.9211 8.33101 31.2401 7.47177 30.3806C6.61252 29.521 5.93006 28.4997 5.46335 27.3749C4.99665 26.2501 4.75483 25.0439 4.75171 23.8251C4.75424 21.9247 5.33792 20.071 6.42362 18.5154C7.50932 16.9598 9.04451 15.7775 10.821 15.129C10.6754 13.7085 10.859 12.2735 11.3574 10.9363Z" fill="#24C8DB"/>
<path fill-rule="evenodd" clip-rule="evenodd" d="M22.4712 26.9522C28.4612 25.7273 32.9716 20.4214 32.9716 14.066C32.9716 6.79665 27.0846 0.908885 19.8236 0.908885C17.0251 0.905348 14.2986 1.79993 12.0408 3.46244C9.78293 5.12495 8.11164 7.46862 7.27014 10.1524C8.84941 9.37368 10.5504 8.87483 12.2984 8.67776C13.1569 7.47802 14.2873 6.50113 15.5959 5.82795C16.9045 5.15477 18.3537 4.80467 19.8236 4.80661C21.0356 4.80346 22.2364 5.0404 23.3574 5.5039C24.4783 5.96739 25.4975 6.64837 26.3568 7.50794C27.216 8.36751 27.8985 9.38884 28.3652 10.5136C28.8319 11.6384 29.0737 12.8446 29.0768 14.0634C29.0743 15.9638 28.4906 17.8175 27.4049 19.3731C26.3192 20.9287 24.7841 22.111 23.0075 22.7595C23.1531 24.18 22.9695 25.615 22.4712 26.9522Z" fill="#FFC131"/>
</g>
<defs>
<clipPath id="clip0_2047_10686">
<rect width="32.5" height="36.4" fill="white" transform="translate(0.635315 0.799927)"/>
</clipPath>
</defs>
</svg>
