<svg width="37" height="38" viewBox="0 0 37 38" fill="none" xmlns="http://www.w3.org/2000/svg">
<g clip-path="url(#clip0_2047_10726)">
<path d="M12.1351 19.0878C12.1351 19.8507 12.2792 20.5544 12.5673 21.199C12.8555 21.8421 13.2453 22.4017 13.7367 22.8764C14.2281 23.3512 14.7968 23.7258 15.4399 23.9957C16.1027 24.2505 16.7973 24.3779 17.5253 24.3779C18.2548 24.3779 18.9419 24.2505 19.5865 23.9957C20.229 23.7364 20.8159 23.3565 21.3155 22.8764C21.835 22.3926 22.248 21.8058 22.5282 21.1535C22.8083 20.5012 22.9496 19.7977 22.9428 19.0878C22.9495 18.3779 22.8082 17.6744 22.528 17.0222C22.2478 16.3699 21.8349 15.7831 21.3155 15.2992C20.8191 14.8214 20.2309 14.4494 19.5865 14.2057C18.9339 13.9322 18.2328 13.7935 17.5253 13.7977C16.7973 13.7977 16.1027 13.9342 15.4414 14.2057C14.7968 14.4589 14.2281 14.8245 13.7367 15.2977C13.2423 15.7767 12.8452 16.3468 12.5673 16.9766C12.2748 17.6416 12.1275 18.3614 12.1351 19.0878ZM6.92229 19.0878C6.92229 17.6637 7.18467 16.3426 7.71096 15.1202C8.21791 13.909 8.96085 12.8109 9.89647 11.8897C10.8515 10.9601 11.985 10.2336 13.2286 9.75424C14.5329 9.22948 15.9662 8.96558 17.5253 8.96558C19.0693 8.96558 20.4934 9.22948 21.7978 9.75424C23.0507 10.2299 24.193 10.9572 25.1541 11.8912C26.1145 12.8259 26.8756 13.9454 27.3915 15.1823C27.9073 16.4192 28.1673 17.7477 28.1556 19.0878C28.1556 20.512 27.8932 21.8421 27.367 23.0797C26.8516 24.2854 26.0991 25.3753 25.1541 26.2844C24.1898 27.2203 23.0489 27.955 21.7978 28.4456C20.4934 28.9537 19.0678 29.2085 17.5253 29.2085C15.9662 29.2085 14.5329 28.9537 13.2286 28.4456C11.9869 27.9508 10.8546 27.2164 9.89647 26.2844C8.96459 25.3697 8.2215 24.2809 7.70944 23.0797C7.17861 21.8163 6.9118 20.4581 6.92229 19.0878ZM18.1851 0.811976C13.9991 0.666376 9.81306 1.96464 6.34747 4.70829L8.65736 6.00808C11.3995 3.98484 14.8651 3.12034 18.1851 3.26443V0.810459V0.811976ZM30.4549 6.29624C27.5687 3.26443 23.8149 1.38831 19.773 0.954543V3.40851C23.1699 3.96279 26.3035 5.58027 28.7229 8.02828L30.4549 6.29624ZM35.6525 18.1338C35.5084 14.3801 34.0646 10.6263 31.6106 7.45194L29.8786 9.18398C31.8988 11.9261 33.0545 14.9579 33.1985 18.1323L35.6525 18.1338ZM31.6106 30.5477C34.0646 27.3718 35.5084 23.6196 35.6525 19.8659H33.1985C33.0545 23.0418 31.8988 26.0736 29.877 28.8157L31.6106 30.5477ZM19.773 37.0451C23.6708 36.6114 27.5687 34.7353 30.4549 31.7034L28.7229 29.9714C26.2689 32.5695 23.093 34.1574 19.773 34.5912V37.0451ZM6.34747 33.2914C9.70323 35.9589 13.9009 37.3411 18.1851 37.1892V34.7353C14.8636 34.8793 11.5451 34.0133 8.65736 31.9916L6.34747 33.2914Z" fill="black"/>
</g>
<defs>
<clipPath id="clip0_2047_10726">
<rect width="36.4" height="36.4" fill="white" transform="translate(0.19989 0.799927)"/>
</clipPath>
</defs>
</svg>
