<svg width="37" height="38" viewBox="0 0 37 38" fill="none" xmlns="http://www.w3.org/2000/svg">
<g clip-path="url(#clip0_2047_10705)">
<mask id="mask0_2047_10705" style="mask-type:luminance" maskUnits="userSpaceOnUse" x="5" y="0" width="28" height="38">
<path d="M5.22729 0.800049H32.3731V37.2001H5.22729V0.800049Z" fill="white"/>
</mask>
<g mask="url(#mask0_2047_10705)">
<path d="M5.25952 32.6484C11.2489 38.6716 20.9593 38.6716 26.9487 32.6484C32.938 26.6251 32.938 16.8591 26.9487 10.8358L24.2375 13.5624C28.7295 18.08 28.7295 25.4041 24.2375 29.9218C19.7455 34.4391 12.4627 34.4391 7.9707 29.9218L5.25952 32.6484Z" fill="#00E9A3"/>
<path d="M10.6821 27.195C13.6767 30.2066 18.5318 30.2066 21.5265 27.195C24.5212 24.1834 24.5212 19.3005 21.5265 16.2889L18.8156 19.0155C20.313 20.5212 20.313 22.9627 18.8156 24.4684C18.4606 24.8263 18.0383 25.1103 17.5729 25.3041C17.1076 25.498 16.6085 25.5978 16.1044 25.5978C15.6004 25.5978 15.1013 25.498 14.6359 25.3041C14.1706 25.1103 13.7483 24.8263 13.3933 24.4684L10.6821 27.195Z" fill="#00E9A3"/>
<path d="M32.371 5.38245C26.3817 -0.640828 16.6712 -0.640828 10.6819 5.38245C4.69254 11.406 4.69254 21.1717 10.6819 27.195L13.3928 24.4684C8.90106 19.9508 8.90106 12.6267 13.3928 8.10905C17.8848 3.59175 25.1679 3.59175 29.6599 8.10905L32.371 5.38245Z" fill="#00E9A3"/>
<path d="M26.9488 10.8357C23.9542 7.82406 19.0988 7.82406 16.1041 10.8357C13.1094 13.8473 13.1094 18.7302 16.1041 21.7418L18.8156 19.0152C17.3179 17.5095 17.3179 15.0683 18.8156 13.5623C19.1706 13.2045 19.5929 12.9205 20.0582 12.7267C20.5235 12.5329 21.0226 12.4331 21.5266 12.4331C22.0307 12.4331 22.5297 12.5329 22.995 12.7267C23.4603 12.9205 23.8826 13.2045 24.2376 13.5623L26.9488 10.8357Z" fill="#00E9A3"/>
<path d="M32.3709 5.38245C26.3816 -0.640828 16.6708 -0.640828 10.6815 5.38245C4.69212 11.406 4.69212 21.1717 10.6815 27.195L13.393 24.4684C8.90064 19.9508 8.90064 12.6267 13.393 8.10905C17.8847 3.59175 25.1674 3.59175 29.6594 8.10905L32.3709 5.38245Z" fill="white" fill-opacity="0.8"/>
<path d="M26.9488 10.8357C23.9542 7.82406 19.0988 7.82406 16.1041 10.8357C13.1094 13.8473 13.1094 18.7302 16.1041 21.7418L18.8156 19.0152C17.3179 17.5095 17.3179 15.0683 18.8156 13.5623C19.1706 13.2045 19.5929 12.9205 20.0582 12.7267C20.5235 12.5329 21.0226 12.4331 21.5266 12.4331C22.0307 12.4331 22.5297 12.5329 22.995 12.7267C23.4603 12.9205 23.8826 13.2045 24.2376 13.5623L26.9488 10.8357Z" fill="white" fill-opacity="0.8"/>
</g>
</g>
<defs>
<clipPath id="clip0_2047_10705">
<rect width="36.4" height="36.4" fill="white" transform="translate(0.599976 0.799927)"/>
</clipPath>
</defs>
</svg>
