<svg width="37" height="38" viewBox="0 0 37 38" fill="none" xmlns="http://www.w3.org/2000/svg">
<path d="M19.8349 8.10476C19.8349 4.8465 17.1844 2.19604 13.9262 2.19604C10.4924 2.19604 8.43953 4.77055 8.43953 7.26063H11.8159C11.8159 6.56004 12.4709 5.57243 13.9262 5.57243C15.3223 5.57243 16.4585 6.70862 16.4585 8.10476C16.4585 9.5009 15.4394 10.6371 12.8695 10.6371H3.67657V14.0134H12.8695C17.2068 14.0134 19.8349 11.363 19.8349 8.10476ZM19.8349 8.10476C19.8349 4.8465 17.1844 2.19604 13.9262 2.19604C10.4924 2.19604 8.43953 4.77055 8.43953 7.26063H11.8159C11.8159 6.56004 12.4709 5.57243 13.9262 5.57243C15.3223 5.57243 16.4585 6.70862 16.4585 8.10476C16.4585 9.5009 15.4394 10.6371 12.8695 10.6371H3.67657V14.0134H12.8695C17.2068 14.0134 19.8349 11.363 19.8349 8.10476Z" fill="url(#paint0_linear_2047_10720)"/>
<path d="M27.3254 29.8953C27.3254 33.1537 24.6749 35.804 21.4167 35.804C17.9829 35.804 15.93 33.2297 15.93 30.7394H19.3065C19.3065 31.44 19.9615 32.4278 21.4167 32.4278C22.8128 32.4278 23.949 31.2915 23.949 29.8953C23.949 28.4992 22.6651 27.363 20.36 27.363H10.1589V23.9866H20.36C24.6973 23.9866 27.3254 26.6371 27.3254 29.8953ZM27.3254 29.8953C27.3254 33.1537 24.6749 35.804 21.4167 35.804C17.9829 35.804 15.93 33.2297 15.93 30.7394H19.3065C19.3065 31.44 19.9615 32.4278 21.4167 32.4278C22.8128 32.4278 23.949 31.2915 23.949 29.8953C23.949 28.4992 22.6651 27.363 20.36 27.363H10.1589V23.9866H20.36C24.6973 23.9866 27.3254 26.6371 27.3254 29.8953Z" fill="url(#paint1_linear_2047_10720)"/>
<path d="M28.2104 7.40521C24.4862 7.40521 21.8591 10.2373 21.8591 13.9615H24.8496C24.8496 12.1103 26.1939 10.766 28.2104 10.766C30.2269 10.766 31.2351 12.1103 31.2351 13.9615C31.2351 15.8126 29.9256 17.3379 26.3619 17.3379H3.67657V20.7143H26.8661C32.1435 20.7143 34.5959 17.3223 34.5959 13.9615C34.5959 10.2373 32.0753 7.40521 28.2104 7.40521Z" fill="url(#paint2_linear_2047_10720)"/>
<path d="M8.10278 23.9866H3.67657V27.3914H8.10278V23.9866Z" fill="url(#paint3_linear_2047_10720)"/>
<defs>
<linearGradient id="paint0_linear_2047_10720" x1="6.36521" y1="5.05272" x2="25.8578" y2="35.804" gradientUnits="userSpaceOnUse">
<stop offset="0.078225" stop-color="#54C8F1"/>
<stop offset="0.572917" stop-color="#41A2EF"/>
<stop offset="1" stop-color="#3386EE"/>
</linearGradient>
<linearGradient id="paint1_linear_2047_10720" x1="6.36524" y1="5.05275" x2="25.8579" y2="35.804" gradientUnits="userSpaceOnUse">
<stop offset="0.078225" stop-color="#54C8F1"/>
<stop offset="0.572917" stop-color="#41A2EF"/>
<stop offset="1" stop-color="#3386EE"/>
</linearGradient>
<linearGradient id="paint2_linear_2047_10720" x1="6.36521" y1="5.05266" x2="25.8578" y2="35.8039" gradientUnits="userSpaceOnUse">
<stop offset="0.078225" stop-color="#54C8F1"/>
<stop offset="0.572917" stop-color="#41A2EF"/>
<stop offset="1" stop-color="#3386EE"/>
</linearGradient>
<linearGradient id="paint3_linear_2047_10720" x1="6.36521" y1="5.05276" x2="25.8578" y2="35.804" gradientUnits="userSpaceOnUse">
<stop offset="0.078225" stop-color="#54C8F1"/>
<stop offset="0.572917" stop-color="#41A2EF"/>
<stop offset="1" stop-color="#3386EE"/>
</linearGradient>
</defs>
</svg>
