<svg width="38" height="35" viewBox="0 0 38 35" fill="none" xmlns="http://www.w3.org/2000/svg">
<g clip-path="url(#clip0_2047_10760)">
<path d="M11.6377 6.034L7.35535 11.268L5.21417 7.93726L11.6377 6.034Z" fill="#F7A41D"/>
<path d="M11.6379 6.034L8.54507 8.65099L7.35553 11.268H5.92808V23.4013H8.06925L5.45226 24.5909L3.54899 28.6353H0.694092V6.034H11.6379Z" fill="#F7A41D"/>
<path d="M8.06916 23.4016L3.5489 28.6356L1.64563 26.0186L8.06916 23.4016Z" fill="#F7A41D"/>
<path d="M14.0173 6.03381L15.4448 9.36453L9.49707 11.2678L14.0173 6.03381Z" fill="#F7A41D"/>
<path d="M14.0173 6.03381H27.1023V11.2678H9.49707L14.0173 8.4129V6.03381Z" fill="#F7A41D"/>
<path d="M28.2919 23.401L23.7716 28.635L22.1063 25.5422L28.2919 23.401Z" fill="#F7A41D"/>
<path d="M28.2918 23.401L24.4853 25.5422L23.7716 28.635H10.6866V23.401H28.2918Z" fill="#F7A41D"/>
<path d="M36.3806 0.799927L13.0655 28.6352L1.40802 34.1071L24.723 6.03391L36.3806 0.799927Z" fill="#F7A41D"/>
<path d="M34.2394 6.034L34.0015 10.3163L29.7191 11.5059L34.2394 6.034Z" fill="#F7A41D"/>
<path d="M37.0941 6.034V28.6353H25.9124L29.2431 25.7804L30.4327 23.4013H31.8601V11.5059H29.719L32.098 9.36472L34.2392 6.034H37.0941Z" fill="#F7A41D"/>
<path d="M30.4326 23.4016L31.6221 26.9702L25.9123 28.6356L30.4326 23.4016Z" fill="#F7A41D"/>
</g>
<defs>
<clipPath id="clip0_2047_10760">
<rect width="36.4" height="33.3072" fill="white" transform="translate(0.694031 0.80011)"/>
</clipPath>
</defs>
</svg>
