<svg width="322" height="155" viewBox="0 0 322 155" fill="none" xmlns="http://www.w3.org/2000/svg">
<path d="M294.619 7.66846H22.1159C18.868 7.66846 16.2344 10.3011 16.2344 13.549V140.979C16.2344 144.228 18.868 146.86 22.1159 146.86H294.619C297.868 146.86 300.501 144.228 300.501 140.979V13.549C300.501 10.3011 297.868 7.66846 294.619 7.66846Z" stroke="#26262A" stroke-opacity="0.5" stroke-width="1.35245" stroke-miterlimit="10"/>
<path d="M242.862 31.8701H281.916C283.167 31.8701 284.18 32.8831 284.18 34.1341V71.3831C284.18 72.6333 283.167 73.6472 281.916 73.6472H242.862C241.611 73.6472 240.598 72.6333 240.598 71.3831V34.1341C240.598 32.8831 241.611 31.8701 242.862 31.8701Z" stroke="#26262A" stroke-opacity="0.5" stroke-width="1.35245"/>
<path d="M242.862 87.7417H281.916C283.167 87.7417 284.18 88.7554 284.18 90.0067V127.256C284.18 128.506 283.167 129.52 281.916 129.52H242.862C241.611 129.52 240.598 128.506 240.598 127.256V90.0067C240.598 88.7554 241.611 87.7417 242.862 87.7417Z" stroke="#26262A" stroke-opacity="0.5" stroke-width="1.35245"/>
<path d="M30.9325 56.3754H217.177C218.426 56.3754 219.441 57.3895 219.441 58.6395C219.441 59.8906 218.426 60.9045 217.177 60.9045H30.9325C29.6826 60.9045 28.6684 59.8906 28.6684 58.6395C28.6684 57.3895 29.6825 56.3754 30.9325 56.3754Z" stroke="#26262A" stroke-opacity="0.5" stroke-width="1.35245"/>
<path d="M30.9325 46.5732H69.1619C70.4119 46.5732 71.4259 47.5873 71.4259 48.8372C71.4259 50.0884 70.4117 51.1023 69.1619 51.1023H30.9325C29.6826 51.1023 28.6684 50.0884 28.6684 48.8372C28.6684 47.5873 29.6825 46.5732 30.9325 46.5732Z" stroke="#26262A" stroke-opacity="0.5" stroke-width="1.35245"/>
<path d="M30.9325 114.208H206.394C207.645 114.208 208.658 115.222 208.658 116.473C208.658 117.724 207.645 118.738 206.394 118.738H30.9325C29.6823 118.738 28.6684 117.724 28.6684 116.473C28.6684 115.222 29.6826 114.208 30.9325 114.208Z" stroke="#26262A" stroke-opacity="0.5" stroke-width="1.35245"/>
<path d="M30.9325 125.972H126.996C128.246 125.972 129.26 126.986 129.26 128.236C129.26 129.487 128.246 130.501 126.996 130.501H30.9325C29.6826 130.501 28.6684 129.487 28.6684 128.236C28.6684 126.986 29.6825 125.972 30.9325 125.972Z" stroke="#26262A" stroke-opacity="0.5" stroke-width="1.35245"/>
<path d="M30.9325 103.427H69.1619C70.4117 103.427 71.4259 104.441 71.4259 105.692C71.4259 106.942 70.4119 107.956 69.1619 107.956H30.9325C29.6825 107.956 28.6684 106.942 28.6684 105.692C28.6684 104.441 29.6826 103.427 30.9325 103.427Z" stroke="#26262A" stroke-opacity="0.5" stroke-width="1.35245"/>
<path d="M30.9325 70.0986H103.47C104.721 70.0986 105.735 71.1128 105.735 72.3626C105.735 73.6136 104.721 74.6277 103.47 74.6277H30.9325C29.6826 74.6277 28.6684 73.6138 28.6684 72.3626C28.6684 71.1126 29.6825 70.0986 30.9325 70.0986Z" stroke="#26262A" stroke-opacity="0.5" stroke-width="1.35245"/>
<path d="M30.9325 80.8808H193.65C194.901 80.8808 195.915 81.8949 195.915 83.1459C195.915 84.3957 194.902 85.4099 193.65 85.4099H30.9325C29.6825 85.4099 28.6684 84.3958 28.6684 83.1459C28.6684 81.8947 29.6826 80.8808 30.9325 80.8808Z" stroke="#26262A" stroke-opacity="0.5" stroke-width="1.35245"/>
<path d="M30.9325 90.6831H120.134C121.384 90.6831 122.398 91.6968 122.398 92.9481C122.398 94.1982 121.385 95.2121 120.134 95.2121H30.9325C29.6825 95.2121 28.6684 94.1981 28.6684 92.9481C28.6684 91.697 29.6826 90.6831 30.9325 90.6831Z" stroke="#26262A" stroke-opacity="0.5" stroke-width="1.35245"/>
<path d="M31.9129 31.8701H205.413C207.205 31.8701 208.658 33.3227 208.658 35.1145C208.658 36.9063 207.205 38.359 205.413 38.359H31.9129C30.1211 38.359 28.6684 36.9063 28.6684 35.1145C28.6684 33.3227 30.1211 31.8701 31.9129 31.8701Z" stroke="#26262A" stroke-opacity="0.5" stroke-width="1.35245"/>
<path d="M32.8855 20.4085C32.8855 19.3269 32.0082 18.4507 30.9266 18.4507C29.845 18.4507 28.9688 19.3269 28.9688 20.4085V20.4135C28.9688 21.4942 29.845 22.3714 30.9266 22.3714C32.0082 22.3714 32.8855 21.4942 32.8855 20.4135V20.4085Z" fill="#26262A" fill-opacity="0.5"/>
<path d="M40.7292 20.4085C40.7292 19.3269 39.852 18.4507 38.7714 18.4507C37.6897 18.4507 36.8125 19.3269 36.8125 20.4085V20.4135C36.8125 21.4942 37.6897 22.3714 38.7714 22.3714C39.852 22.3714 40.7292 21.4942 40.7292 20.4135V20.4085Z" fill="#26262A" fill-opacity="0.5"/>
<path d="M48.564 20.4085C48.564 19.3269 47.6878 18.4507 46.6061 18.4507C45.5245 18.4507 44.6483 19.3269 44.6483 20.4085V20.4135C44.6483 21.4942 45.5245 22.3714 46.6061 22.3714C47.6878 22.3714 48.564 21.4942 48.564 20.4135V20.4085Z" fill="#26262A" fill-opacity="0.5"/>
<path d="M9.60259 131.3L13.6634 128.662L13.6793 128.651C14.0322 128.428 14.4772 128.418 14.8411 128.621L19.1539 130.992C19.5154 131.196 19.7416 131.579 19.7453 131.997V132.017L19.7133 136.787C19.717 137.219 19.5019 137.622 19.1429 137.857L15.001 140.56L14.9838 140.572C14.6285 140.802 14.1773 140.817 13.8072 140.611L9.59152 138.254C9.22024 138.045 8.9928 137.646 9.00017 137.216V137.195L9.01739 132.345C9.02476 131.921 9.24483 131.526 9.60259 131.3Z" fill="#5754DA"/>
<path d="M292.495 14.312L300.071 9.80906C300.753 9.416 301.59 9.40974 302.279 9.79237L302.318 9.81427L310.711 14.4027L310.75 14.4246C311.434 14.8052 311.873 15.5152 311.908 16.2992L312.166 24.9372C312.202 25.716 311.814 26.4375 311.148 26.8347L303.42 31.4513C302.734 31.8611 301.883 31.8736 301.186 31.4857L301.144 31.4628L292.938 26.9056L292.896 26.8827C292.194 26.4927 291.752 25.7556 291.739 24.9507L291.446 16.1668C291.432 15.3984 291.831 14.6957 292.495 14.312Z" fill="#5754DA"/>
</svg>
