<svg width="322" height="155" viewBox="0 0 322 155" fill="none" xmlns="http://www.w3.org/2000/svg">
<g clip-path="url(#clip0_1799_1161)">
<path d="M-16.0703 134.568H147.671H-16.0703Z" fill="#DA54B9"/>
<path d="M-16.0703 134.568H147.671" stroke="#26262A" stroke-opacity="0.5" stroke-width="1.29144" stroke-miterlimit="10"/>
<path d="M193.281 106.338H300.117H193.281Z" fill="#DA54B9"/>
<path d="M193.281 106.338H300.117" stroke="#26262A" stroke-opacity="0.5" stroke-width="1.29144" stroke-miterlimit="10"/>
<path d="M-16.0703 76.2241H196.135H-16.0703Z" fill="#DA54B9"/>
<path d="M-16.0703 76.2241H196.135" stroke="#26262A" stroke-opacity="0.5" stroke-width="1.29144" stroke-miterlimit="10"/>
<path d="M-18.8984 106.337H193.307H-18.8984Z" fill="#DA54B9"/>
<path d="M-18.8984 106.337H193.307" stroke="#26262A" stroke-opacity="0.5" stroke-width="1.29144" stroke-miterlimit="10"/>
<path d="M193.312 76.2241H337.763H193.312Z" fill="#DA54B9"/>
<path d="M193.312 76.2241H337.763" stroke="#26262A" stroke-opacity="0.5" stroke-width="1.29144" stroke-miterlimit="10"/>
<path d="M282.234 7.52734V144.92V7.52734Z" fill="#DA54B9"/>
<path d="M282.234 7.52734V144.92" stroke="#26262A" stroke-opacity="0.5" stroke-width="1.29144" stroke-miterlimit="10"/>
<path d="M252.125 33.876V146.331V33.876Z" fill="#DA54B9"/>
<path d="M252.125 33.876V146.331" stroke="#26262A" stroke-opacity="0.5" stroke-width="1.29144" stroke-miterlimit="10"/>
<path d="M211.656 7.05664V106.337V7.05664Z" fill="#DA54B9"/>
<path d="M211.656 7.05664V106.337" stroke="#26262A" stroke-opacity="0.5" stroke-width="1.29144" stroke-miterlimit="10"/>
<path d="M-14.1953 42.3467H308.583H-14.1953Z" fill="#DA54B9"/>
<path d="M-14.1953 42.3467H308.583" stroke="#26262A" stroke-opacity="0.5" stroke-width="1.29144" stroke-miterlimit="10"/>
<path d="M106.258 13.1738V105.396V13.1738Z" fill="#DA54B9"/>
<path d="M106.258 13.1738V105.396" stroke="#26262A" stroke-opacity="0.5" stroke-width="1.29144" stroke-miterlimit="10"/>
<path d="M146.719 42.3467V134.569V42.3467Z" fill="#DA54B9"/>
<path d="M146.719 42.3467V134.569" stroke="#26262A" stroke-opacity="0.5" stroke-width="1.29144" stroke-miterlimit="10"/>
<path d="M22.5078 -0.000488281V145.862V-0.000488281Z" fill="#DA54B9"/>
<path d="M22.5078 -0.000488281V145.862" stroke="#26262A" stroke-opacity="0.5" stroke-width="1.29144" stroke-miterlimit="10"/>
<path d="M63.9141 43.2861V142.096V43.2861Z" fill="#DA54B9"/>
<path d="M63.9141 43.2861V142.096" stroke="#26262A" stroke-opacity="0.5" stroke-width="1.29144" stroke-miterlimit="10"/>
<path d="M63.7039 80.9304C66.0807 80.9304 68.0081 79.0031 68.0081 76.625C68.0081 74.2482 66.0807 72.3208 63.7039 72.3208C61.3258 72.3208 59.3984 74.2482 59.3984 76.625C59.3984 79.0031 61.3258 80.9304 63.7039 80.9304Z" fill="#DA54B9"/>
<path d="M22.3836 46.492C24.7604 46.492 26.6878 44.5656 26.6878 42.1871C26.6878 39.81 24.7604 37.8823 22.3836 37.8823C20.0055 37.8823 18.0781 39.81 18.0781 42.1871C18.0781 44.5656 20.0055 46.492 22.3836 46.492Z" fill="#DA54B9"/>
<path d="M22.3823 138.615C24.7604 138.615 26.6878 136.688 26.6878 134.31C26.6878 131.933 24.7604 130.005 22.3823 130.005C20.0055 130.005 18.0781 131.933 18.0781 134.31C18.0781 136.688 20.0055 138.615 22.3823 138.615Z" fill="#DA54B9"/>
<path d="M282.39 47.3528C284.768 47.3528 286.696 45.4264 286.696 43.048C286.696 40.6708 284.768 38.7432 282.39 38.7432C280.013 38.7432 278.086 40.6708 278.086 43.048C278.086 45.4264 280.013 47.3528 282.39 47.3528Z" fill="#DA54B9"/>
<path d="M252.259 80.9304C254.635 80.9304 256.563 79.0031 256.563 76.625C256.563 74.2482 254.635 72.3208 252.259 72.3208C249.88 72.3208 247.953 74.2482 247.953 76.625C247.953 79.0031 249.88 80.9304 252.259 80.9304Z" fill="#DA54B9"/>
</g>
<defs>
<clipPath id="clip0_1799_1161">
<rect width="322" height="154.331" fill="white"/>
</clipPath>
</defs>
</svg>
