<svg width="437" height="360" viewBox="0 0 437 360" fill="none" xmlns="http://www.w3.org/2000/svg">
<g clip-path="url(#clip0_1680_7860)">
<g clip-path="url(#clip1_1680_7860)">
<path fill-rule="evenodd" clip-rule="evenodd" d="M-22 360H458V0H-22V360Z" fill="#F8F8F8"/>
<path opacity="0.3" fill-rule="evenodd" clip-rule="evenodd" d="M97.7568 217.74C147.563 188.984 228.436 188.984 278.243 217.74C328.049 246.496 328.049 293.188 278.243 321.943C228.436 350.699 147.563 350.699 97.7568 321.943C47.9502 293.188 47.9502 246.496 97.7568 217.74Z" fill="#262725"/>
<path fill-rule="evenodd" clip-rule="evenodd" d="M127.757 179.127C177.563 150.372 258.436 150.372 308.243 179.127C358.049 207.883 358.049 254.575 308.243 283.331C258.436 312.087 177.563 312.087 127.757 283.331C77.9502 254.575 77.9502 207.883 127.757 179.127Z" fill="white"/>
<path fill-rule="evenodd" clip-rule="evenodd" d="M127.757 179.127C177.563 150.372 258.436 150.372 308.243 179.127C358.049 207.883 358.049 254.575 308.243 283.331C258.436 312.087 177.563 312.087 127.757 283.331C77.9502 254.575 77.9502 207.883 127.757 179.127Z" stroke="#262725" stroke-width="2" stroke-linecap="round" stroke-linejoin="round"/>
<path fill-rule="evenodd" clip-rule="evenodd" d="M158.539 170.68C191.357 151.733 244.644 151.733 277.461 170.68C310.279 189.627 310.279 220.393 277.461 239.34C244.644 258.287 191.357 258.287 158.539 239.34C125.721 220.393 125.721 189.627 158.539 170.68Z" fill="white"/>
<path fill-rule="evenodd" clip-rule="evenodd" d="M158.539 170.68C191.357 151.733 244.644 151.733 277.461 170.68C310.279 189.627 310.279 220.393 277.461 239.34C244.644 258.287 191.357 258.287 158.539 239.34C125.721 220.393 125.721 189.627 158.539 170.68Z" stroke="#262725" stroke-width="2" stroke-linecap="round" stroke-linejoin="round"/>
<path fill-rule="evenodd" clip-rule="evenodd" d="M199.731 194.462C209.814 188.64 226.187 188.64 236.27 194.462C246.353 200.283 246.353 209.736 236.27 215.557C226.187 221.379 209.814 221.379 199.731 215.557C189.648 209.736 189.648 200.283 199.731 194.462Z" fill="#262725"/>
<path fill-rule="evenodd" clip-rule="evenodd" d="M199.731 194.462C209.814 188.64 226.187 188.64 236.27 194.462C246.353 200.283 246.353 209.736 236.27 215.557C226.187 221.379 209.814 221.379 199.731 215.557C189.648 209.736 189.648 200.283 199.731 194.462Z" stroke="#262725" stroke-width="2" stroke-linecap="round" stroke-linejoin="round"/>
<path fill-rule="evenodd" clip-rule="evenodd" d="M194.338 211.007C195.592 209.356 197.389 207.808 199.731 206.456C209.814 200.635 226.186 200.635 236.269 206.456C238.611 207.808 240.408 209.356 241.662 211.007C240.408 212.658 238.611 214.206 236.269 215.557C226.186 221.379 209.814 221.379 199.731 215.557C197.389 214.206 195.592 212.658 194.338 211.007Z" fill="#262725"/>
<path fill-rule="evenodd" clip-rule="evenodd" d="M194.338 211.007C195.592 209.356 197.389 207.808 199.731 206.456C209.814 200.635 226.186 200.635 236.269 206.456C238.611 207.808 240.408 209.356 241.662 211.007C240.408 212.658 238.611 214.206 236.269 215.557C226.186 221.379 209.814 221.379 199.731 215.557C197.389 214.206 195.592 212.658 194.338 211.007Z" stroke="white" stroke-width="2" stroke-linecap="round" stroke-linejoin="round"/>
<path fill-rule="evenodd" clip-rule="evenodd" d="M345.598 268.964H345.55C346.473 288.496 334.038 308.2 308.243 323.092C258.437 351.848 177.564 351.848 127.757 323.092C101.963 308.2 89.5269 288.496 90.4503 268.964H90.4023V231.229C90.4023 250.091 102.854 268.953 127.757 283.331C177.564 312.086 258.437 312.086 308.243 283.331C333.146 268.953 345.598 250.091 345.598 231.229V268.964Z" fill="#262725"/>
<path fill-rule="evenodd" clip-rule="evenodd" d="M345.598 268.964H345.55C346.473 288.496 334.038 308.2 308.243 323.092C258.437 351.848 177.564 351.848 127.757 323.092C101.963 308.2 89.5269 288.496 90.4503 268.964H90.4023V231.229C90.4023 250.091 102.854 268.953 127.757 283.331C177.564 312.086 258.437 312.086 308.243 283.331C333.146 268.953 345.598 250.091 345.598 231.229V268.964Z" stroke="#262725" stroke-width="2" stroke-linecap="round" stroke-linejoin="round"/>
<path fill-rule="evenodd" clip-rule="evenodd" d="M302.075 225.129H302.043C302.651 237.999 294.458 250.982 277.461 260.795C244.644 279.742 191.357 279.742 158.539 260.795C141.543 250.982 133.349 237.999 133.958 225.129H133.926V205.01C133.926 217.438 142.13 229.866 158.539 239.339C191.357 258.287 244.644 258.287 277.461 239.339C293.87 229.866 302.075 217.438 302.075 205.01V225.129Z" fill="#262725"/>
<path fill-rule="evenodd" clip-rule="evenodd" d="M302.075 225.129H302.043C302.651 237.999 294.458 250.982 277.461 260.795C244.644 279.742 191.357 279.742 158.539 260.795C141.543 250.982 133.349 237.999 133.958 225.129H133.926V205.01C133.926 217.438 142.13 229.866 158.539 239.339C191.357 258.287 244.644 258.287 277.461 239.339C293.87 229.866 302.075 217.438 302.075 205.01V225.129Z" stroke="#262725" stroke-width="2" stroke-linecap="round" stroke-linejoin="round"/>
<path fill-rule="evenodd" clip-rule="evenodd" d="M218 46.3052V150.894L172.615 124.691L218 46.3052Z" fill="#262725"/>
<path fill-rule="evenodd" clip-rule="evenodd" d="M218 46.3052V150.894L172.615 124.691L218 46.3052Z" stroke="#262725" stroke-width="2" stroke-linecap="round" stroke-linejoin="round"/>
<path fill-rule="evenodd" clip-rule="evenodd" d="M263.385 135.571L218 213.957V161.774L263.385 135.571Z" fill="white"/>
<path fill-rule="evenodd" clip-rule="evenodd" d="M263.385 135.571L218 213.957V161.774L263.385 135.571Z" stroke="#262725" stroke-width="2" stroke-linecap="round" stroke-linejoin="round"/>
<path fill-rule="evenodd" clip-rule="evenodd" d="M218 161.774V213.957L172.615 135.571L218 161.774Z" fill="#262725"/>
<path fill-rule="evenodd" clip-rule="evenodd" d="M218 161.774V213.957L172.615 135.571L218 161.774Z" stroke="#262725" stroke-width="2" stroke-linecap="round" stroke-linejoin="round"/>
<path fill-rule="evenodd" clip-rule="evenodd" d="M218 109.369L172.615 135.571L218 161.774L263.385 135.571L218 109.369Z" fill="#262725"/>
<path fill-rule="evenodd" clip-rule="evenodd" d="M218 109.369L172.615 135.571L218 161.774L263.385 135.571L218 109.369Z" stroke="white" stroke-width="2" stroke-linecap="round" stroke-linejoin="round"/>
<path fill-rule="evenodd" clip-rule="evenodd" d="M218 98.4878L172.615 124.691L218 150.894L263.385 124.691L218 98.4878Z" fill="white"/>
<path fill-rule="evenodd" clip-rule="evenodd" d="M218 98.4878L172.615 124.691L218 150.894L263.385 124.691L218 98.4878Z" stroke="#262725" stroke-width="2" stroke-linecap="round" stroke-linejoin="round"/>
<path fill-rule="evenodd" clip-rule="evenodd" d="M218 46.3052V150.894L263.385 124.691L218 46.3052Z" stroke="#262725" stroke-width="2" stroke-linecap="round" stroke-linejoin="round"/>
<path fill-rule="evenodd" clip-rule="evenodd" d="M182.706 28.9084C202.185 17.662 233.815 17.662 253.294 28.9084C272.773 40.1548 272.773 58.4158 253.294 69.6622C233.815 80.9086 202.185 80.9086 182.706 69.6622C163.227 58.4158 163.227 40.1548 182.706 28.9084ZM192.207 34.3936C206.443 26.1748 229.557 26.1748 243.793 34.3936C258.028 42.6124 258.028 55.9582 243.793 64.177C229.557 72.3958 206.443 72.3958 192.207 64.177C177.972 55.9582 177.972 42.6124 192.207 34.3936Z" fill="white"/>
<path fill-rule="evenodd" clip-rule="evenodd" d="M182.706 28.9084C202.185 17.662 233.815 17.662 253.294 28.9084C272.773 40.1548 272.773 58.4158 253.294 69.6622C233.815 80.9086 202.185 80.9086 182.706 69.6622C163.227 58.4158 163.227 40.1548 182.706 28.9084ZM192.207 34.3936C206.443 26.1748 229.557 26.1748 243.793 34.3936C258.028 42.6124 258.028 55.9582 243.793 64.177C229.557 72.3958 206.443 72.3958 192.207 64.177C177.972 55.9582 177.972 42.6124 192.207 34.3936Z" stroke="#262725" stroke-width="2" stroke-linecap="round" stroke-linejoin="round"/>
<path fill-rule="evenodd" clip-rule="evenodd" d="M182.794 54.7968C184.4 51.36 187.538 48.1128 192.207 45.417C206.443 37.1976 229.557 37.1976 243.793 45.417C248.462 48.1128 251.6 51.36 253.206 54.7968C251.6 58.2342 248.462 61.4814 243.793 64.1772C229.557 72.396 206.443 72.396 192.207 64.1772C187.538 61.4814 184.4 58.2342 182.794 54.7968Z" stroke="#262725" stroke-width="2" stroke-linecap="round" stroke-linejoin="round"/>
<path fill-rule="evenodd" clip-rule="evenodd" d="M267.903 61.2274H267.885C268.246 68.8666 263.382 76.5724 253.294 82.3972C233.815 93.6436 202.185 93.6436 182.706 82.3972C172.618 76.5724 167.754 68.8666 168.115 61.2274H168.097V49.2856C168.097 56.662 172.966 64.039 182.706 69.6622C202.185 80.9086 233.815 80.9086 253.294 69.6622C263.034 64.039 267.903 56.662 267.903 49.2856V61.2274Z" fill="#262725"/>
<path fill-rule="evenodd" clip-rule="evenodd" d="M267.903 61.2274H267.885C268.246 68.8666 263.382 76.5724 253.294 82.3972C233.815 93.6436 202.185 93.6436 182.706 82.3972C172.618 76.5724 167.754 68.8666 168.115 61.2274H168.097V49.2856C168.097 56.662 172.966 64.039 182.706 69.6622C202.185 80.9086 233.815 80.9086 253.294 69.6622C263.034 64.039 267.903 56.662 267.903 49.2856V61.2274Z" stroke="#262725" stroke-width="2" stroke-linecap="round" stroke-linejoin="round"/>
<path fill-rule="evenodd" clip-rule="evenodd" d="M107.415 224.965L115.351 220.548C118.587 218.715 123.076 219.011 128.033 221.873C137.891 227.565 145.894 241.26 145.894 252.438C145.894 257.912 143.974 261.774 140.856 263.621L132.591 268.224C135.821 266.424 137.821 262.517 137.821 256.93C137.821 245.753 129.817 232.057 119.959 226.366C115.073 223.545 110.642 223.216 107.415 224.965Z" fill="white"/>
<path fill-rule="evenodd" clip-rule="evenodd" d="M107.415 224.965L115.351 220.548C118.587 218.715 123.076 219.011 128.033 221.873C137.891 227.565 145.894 241.26 145.894 252.438C145.894 257.912 143.974 261.774 140.856 263.621L132.591 268.224C135.821 266.424 137.821 262.517 137.821 256.93C137.821 245.753 129.817 232.057 119.959 226.366C115.073 223.545 110.642 223.216 107.415 224.965Z" stroke="#262725" stroke-width="2" stroke-linecap="round" stroke-linejoin="round"/>
<path fill-rule="evenodd" clip-rule="evenodd" d="M256.476 261.142L302.528 234.653C304.465 233.555 307.152 233.732 310.12 235.445C316.021 238.852 320.812 247.051 320.812 253.742C320.812 257.019 319.662 259.33 317.796 260.436L271.546 287.038C273.48 285.96 274.677 283.621 274.677 280.277C274.677 273.586 269.886 265.388 263.985 261.981C261.06 260.292 258.407 260.096 256.476 261.142Z" fill="white"/>
<path fill-rule="evenodd" clip-rule="evenodd" d="M256.476 261.142L302.528 234.653C304.465 233.555 307.152 233.732 310.12 235.445C316.021 238.852 320.812 247.051 320.812 253.742C320.812 257.019 319.662 259.33 317.796 260.436L271.546 287.038C273.48 285.96 274.677 283.621 274.677 280.277C274.677 273.586 269.886 265.388 263.985 261.981C261.06 260.292 258.407 260.096 256.476 261.142Z" stroke="#262725" stroke-width="2" stroke-linecap="round" stroke-linejoin="round"/>
<path fill-rule="evenodd" clip-rule="evenodd" d="M119.959 226.366C129.817 232.057 137.821 245.753 137.821 256.93C137.821 268.108 129.817 272.562 119.959 266.871C110.101 261.179 102.099 247.484 102.099 236.306C102.099 225.129 110.101 220.675 119.959 226.366Z" fill="white"/>
<path fill-rule="evenodd" clip-rule="evenodd" d="M119.959 226.366C129.817 232.057 137.821 245.753 137.821 256.93C137.821 268.108 129.817 272.562 119.959 266.871C110.101 261.179 102.099 247.484 102.099 236.306C102.099 225.129 110.101 220.675 119.959 226.366Z" stroke="#262725" stroke-width="2" stroke-linecap="round" stroke-linejoin="round"/>
<path fill-rule="evenodd" clip-rule="evenodd" d="M263.984 261.981C269.885 265.388 274.676 273.586 274.676 280.277C274.676 286.968 269.885 289.635 263.984 286.227C258.083 282.82 253.292 274.622 253.292 267.931C253.292 261.24 258.083 258.574 263.984 261.981Z" fill="#262725"/>
<path fill-rule="evenodd" clip-rule="evenodd" d="M263.984 261.981C269.885 265.388 274.676 273.586 274.676 280.277C274.676 286.968 269.885 289.635 263.984 286.227C258.083 282.82 253.292 274.622 253.292 267.931C253.292 261.24 258.083 258.574 263.984 261.981Z" stroke="#262725" stroke-width="2" stroke-linecap="round" stroke-linejoin="round"/>
</g>
</g>
<defs>
<clipPath id="clip0_1680_7860">
<rect width="437" height="360" rx="20" fill="white"/>
</clipPath>
<clipPath id="clip1_1680_7860">
<rect x="-22" width="480" height="360" rx="10" fill="white"/>
</clipPath>
</defs>
</svg>
