<svg width="437" height="360" viewBox="0 0 437 360" fill="none" xmlns="http://www.w3.org/2000/svg">
<g clip-path="url(#clip0_1680_7692)">
<g clip-path="url(#clip1_1680_7692)">
<path fill-rule="evenodd" clip-rule="evenodd" d="M-22 -1H459V361H-22V-1Z" fill="#F8F8F8"/>
<path opacity="0.3" fill-rule="evenodd" clip-rule="evenodd" d="M238.358 229.484C233.91 226.914 228.419 226.92 223.954 229.499C208.379 238.497 171.355 259.889 150.771 271.781C147.795 273.501 145.954 276.675 145.943 280.108C145.933 283.541 147.753 286.711 150.718 288.424C178.754 304.622 194.062 313.467 214.966 325.544C219.414 328.114 224.905 328.108 229.37 325.529C244.945 316.53 281.969 295.14 302.553 283.246C305.53 281.527 307.37 278.353 307.381 274.92C307.392 271.487 305.572 268.317 302.606 266.603C274.571 250.406 259.262 241.561 238.358 229.484Z" fill="#26262A"/>
<path opacity="0.3" fill-rule="evenodd" clip-rule="evenodd" d="M64.3559 263.158C81.7783 253.092 110.068 253.092 127.49 263.158C144.913 273.224 144.913 289.568 127.49 299.634C110.068 309.7 81.7783 309.7 64.3559 299.634C46.9335 289.568 46.9335 273.224 64.3559 263.158Z" fill="#26262A"/>
<path fill-rule="evenodd" clip-rule="evenodd" d="M246.174 218.654C241.726 216.084 236.236 216.09 231.771 218.669C216.195 227.667 179.172 249.058 158.587 260.951C155.611 262.671 153.771 265.845 153.76 269.277C153.749 272.711 155.569 275.881 158.534 277.594C186.57 293.792 201.878 302.636 222.783 314.714C227.231 317.284 232.721 317.278 237.186 314.698C252.762 305.7 289.785 284.31 310.37 272.416C313.346 270.697 315.186 267.523 315.197 264.09C315.208 260.657 313.388 257.487 310.422 255.773C282.387 239.576 267.079 230.731 246.174 218.654Z" fill="white"/>
<path fill-rule="evenodd" clip-rule="evenodd" d="M246.174 218.654C241.726 216.084 236.236 216.09 231.771 218.669C216.195 227.667 179.172 249.058 158.587 260.951C155.611 262.671 153.771 265.845 153.76 269.277C153.749 272.711 155.569 275.881 158.534 277.594C186.57 293.792 201.878 302.636 222.783 314.714C227.231 317.284 232.721 317.278 237.186 314.698C252.762 305.7 289.785 284.31 310.37 272.416C313.346 270.697 315.186 267.523 315.197 264.09C315.208 260.657 313.388 257.487 310.422 255.773C282.387 239.576 267.079 230.731 246.174 218.654Z" stroke="#26262A" stroke-width="2" stroke-linecap="round" stroke-linejoin="round"/>
<path opacity="0.3" fill-rule="evenodd" clip-rule="evenodd" d="M188.779 261.815L176.248 269.055L188.779 276.295H194.791L201.309 269.055L188.779 261.815Z" fill="#26262A"/>
<path opacity="0.3" fill-rule="evenodd" clip-rule="evenodd" d="M204.734 272.771L192.203 280.01L204.734 287.25H213.753L220.271 280.01L204.734 272.771Z" fill="#26262A"/>
<path opacity="0.3" fill-rule="evenodd" clip-rule="evenodd" d="M224.95 284.45L212.419 291.69L224.95 298.929H233.968L240.487 291.69L224.95 284.45Z" fill="#26262A"/>
<path fill-rule="evenodd" clip-rule="evenodd" d="M314.85 264.08V264.247C314.79 267.739 312.905 270.952 309.875 272.703C281.631 289.022 258.521 302.373 237.434 314.556C232.816 317.224 227.127 317.224 222.509 314.556C201.422 302.373 187.014 294.049 158.769 277.73C155.691 275.952 153.794 272.664 153.794 269.107C153.794 269.107 153.794 275.145 153.794 278.702C153.794 282.259 155.691 285.546 158.769 287.325C187.014 303.643 201.422 311.968 222.509 324.151C227.127 326.819 232.816 326.819 237.434 324.151C258.521 311.968 281.631 298.616 309.875 282.299C312.953 280.52 314.85 277.233 314.85 273.675V264.08Z" fill="#26262A"/>
<path fill-rule="evenodd" clip-rule="evenodd" d="M314.85 264.08V264.247C314.79 267.739 312.905 270.952 309.875 272.703C281.631 289.022 258.521 302.373 237.434 314.556C232.816 317.224 227.127 317.224 222.509 314.556C201.422 302.373 187.014 294.049 158.769 277.73C155.691 275.952 153.794 272.664 153.794 269.107C153.794 269.107 153.794 275.145 153.794 278.702C153.794 282.259 155.691 285.546 158.769 287.325C187.014 303.643 201.422 311.968 222.509 324.151C227.127 326.819 232.816 326.819 237.434 324.151C258.521 311.968 281.631 298.616 309.875 282.299C312.953 280.52 314.85 277.233 314.85 273.675V264.08Z" stroke="#26262A" stroke-width="2" stroke-linecap="round" stroke-linejoin="round"/>
<path fill-rule="evenodd" clip-rule="evenodd" d="M288.292 76.319C289.882 75.81 291.636 75.9832 293.115 76.8376C314.28 89.0659 327.328 96.6042 347.459 108.235C352.404 111.092 355.45 116.373 355.45 122.087C355.45 158.579 355.45 152.668 355.45 191.142C355.45 192.898 354.684 194.543 353.388 195.67C356.533 193.899 361.501 191.038 362.826 190.273C364.681 189.201 365.823 187.221 365.823 185.078C365.823 146.604 365.823 152.515 365.823 116.022C365.823 110.308 362.777 105.028 357.831 102.171C337.7 90.54 324.653 83.0017 303.487 70.7734C301.633 69.7018 299.348 69.7018 297.494 70.7734C295.639 71.845 288.292 76.319 288.292 76.319Z" fill="white"/>
<path fill-rule="evenodd" clip-rule="evenodd" d="M288.292 76.319C289.882 75.81 291.636 75.9832 293.115 76.8376C314.28 89.0659 327.328 96.6042 347.459 108.235C352.404 111.092 355.45 116.373 355.45 122.087C355.45 158.579 355.45 152.668 355.45 191.142C355.45 192.898 354.684 194.543 353.388 195.67C356.533 193.899 361.501 191.038 362.826 190.273C364.681 189.201 365.823 187.221 365.823 185.078C365.823 146.604 365.823 152.515 365.823 116.022C365.823 110.308 362.777 105.028 357.831 102.171C337.7 90.54 324.653 83.0017 303.487 70.7734C301.633 69.7018 299.348 69.7018 297.494 70.7734C295.639 71.845 288.292 76.319 288.292 76.319Z" stroke="#26262A" stroke-width="2" stroke-linecap="round" stroke-linejoin="round"/>
<path fill-rule="evenodd" clip-rule="evenodd" d="M355.267 121.856C355.267 116.36 352.337 111.281 347.581 108.534C334.249 100.831 306.927 85.0457 292.954 76.9732C291.171 75.9425 288.973 75.9425 287.189 76.9732C285.406 78.0032 284.307 79.9081 284.307 81.9688C284.307 99.3257 284.307 134.769 284.307 151.319C284.307 156.815 287.237 161.894 291.994 164.641C305.326 172.344 332.647 188.129 346.62 196.202C348.404 197.233 350.601 197.233 352.385 196.202C354.169 195.172 355.267 193.267 355.267 191.206C355.267 173.849 355.267 138.406 355.267 121.856Z" fill="#26262A"/>
<path fill-rule="evenodd" clip-rule="evenodd" d="M355.267 121.856C355.267 116.36 352.337 111.281 347.581 108.534C334.249 100.831 306.927 85.0457 292.954 76.9732C291.171 75.9425 288.973 75.9425 287.189 76.9732C285.406 78.0032 284.307 79.9081 284.307 81.9688C284.307 99.3257 284.307 134.769 284.307 151.319C284.307 156.815 287.237 161.894 291.994 164.641C305.326 172.344 332.647 188.129 346.62 196.202C348.404 197.233 350.601 197.233 352.385 196.202C354.169 195.172 355.267 193.267 355.267 191.206C355.267 173.849 355.267 138.406 355.267 121.856Z" stroke="#26262A" stroke-width="2" stroke-linecap="round" stroke-linejoin="round"/>
<path fill-rule="evenodd" clip-rule="evenodd" d="M72.1723 252.328C89.5947 242.262 117.884 242.262 135.307 252.328C152.729 262.394 152.729 278.738 135.307 288.804C117.884 298.87 89.5947 298.87 72.1723 288.804C54.7499 278.738 54.7499 262.394 72.1723 252.328Z" fill="white"/>
<path fill-rule="evenodd" clip-rule="evenodd" d="M72.1723 252.328C89.5947 242.262 117.884 242.262 135.307 252.328C152.729 262.394 152.729 278.738 135.307 288.804C117.884 298.87 89.5947 298.87 72.1723 288.804C54.7499 278.738 54.7499 262.394 72.1723 252.328Z" stroke="#26262A" stroke-width="2" stroke-linecap="round" stroke-linejoin="round"/>
<path fill-rule="evenodd" clip-rule="evenodd" d="M148.373 279.563H148.356C148.68 286.401 144.33 293.297 135.307 298.511C117.884 308.576 89.5949 308.576 72.1724 298.511C63.1495 293.297 58.7994 286.401 59.1223 279.563H59.1055V270.566C59.1055 277.169 63.4615 283.771 72.1724 288.804C89.5949 298.87 117.884 298.87 135.307 288.804C144.018 283.771 148.373 277.169 148.373 270.566V279.563Z" fill="#26262A"/>
<path fill-rule="evenodd" clip-rule="evenodd" d="M148.373 279.563H148.356C148.68 286.401 144.33 293.297 135.307 298.511C117.884 308.576 89.5949 308.576 72.1724 298.511C63.1495 293.297 58.7994 286.401 59.1223 279.563H59.1055V270.566C59.1055 277.169 63.4615 283.771 72.1724 288.804C89.5949 298.87 117.884 298.87 135.307 288.804C144.018 283.771 148.373 277.169 148.373 270.566V279.563Z" stroke="#26262A" stroke-width="2" stroke-linecap="round" stroke-linejoin="round"/>
<path fill-rule="evenodd" clip-rule="evenodd" d="M93.9708 264.922C99.3628 261.807 108.118 261.807 113.51 264.922C118.902 268.037 118.902 273.095 113.51 276.21C108.118 279.325 99.3628 279.325 93.9708 276.21C88.5788 273.095 88.5788 268.037 93.9708 264.922Z" fill="#26262A"/>
<path fill-rule="evenodd" clip-rule="evenodd" d="M103.74 195.46C119.104 195.46 131.577 207.942 131.577 223.317C131.577 238.691 119.104 251.173 103.74 251.173C88.3759 251.173 75.9023 238.691 75.9023 223.317C75.9023 207.942 88.3759 195.46 103.74 195.46Z" fill="#26262A"/>
<path fill-rule="evenodd" clip-rule="evenodd" d="M103.74 195.46C119.104 195.46 131.577 207.942 131.577 223.317C131.577 238.691 119.104 251.173 103.74 251.173C88.3759 251.173 75.9023 238.691 75.9023 223.317C75.9023 207.942 88.3759 195.46 103.74 195.46Z" stroke="white" stroke-width="2" stroke-linecap="round" stroke-linejoin="round"/>
<path fill-rule="evenodd" clip-rule="evenodd" d="M324.973 141.892C324.973 136.733 322.223 131.966 317.758 129.387C291.82 114.401 202.987 63.0774 167.893 42.8019C164.916 41.0823 161.249 41.0823 158.273 42.8019C155.296 44.5214 153.463 47.6994 153.463 51.1392V196.225C153.463 201.384 156.213 206.151 160.678 208.73C186.616 223.716 275.449 275.039 310.543 295.315C313.519 297.035 317.186 297.035 320.163 295.315C323.139 293.595 324.973 290.417 324.973 286.978V141.892Z" fill="white"/>
<path fill-rule="evenodd" clip-rule="evenodd" d="M324.973 141.892C324.973 136.733 322.223 131.966 317.758 129.387C291.82 114.401 202.987 63.0774 167.893 42.8019C164.916 41.0823 161.249 41.0823 158.273 42.8019C155.296 44.5214 153.463 47.6994 153.463 51.1392V196.225C153.463 201.384 156.213 206.151 160.678 208.73C186.616 223.716 275.449 275.039 310.543 295.315C313.519 297.035 317.186 297.035 320.163 295.315C323.139 293.595 324.973 290.417 324.973 286.978V141.892Z" stroke="#26262A" stroke-width="2" stroke-linecap="round" stroke-linejoin="round"/>
<path fill-rule="evenodd" clip-rule="evenodd" d="M158.479 42.6873C161.418 41.0839 164.986 41.1224 167.894 42.8022C202.988 63.0778 291.821 114.401 317.759 129.387C322.224 131.966 324.974 136.734 324.974 141.893V286.978C324.974 289.944 323.61 292.716 321.327 294.525C323.166 293.52 325.488 292.239 327.06 291.331C330.037 289.611 331.87 286.433 331.87 282.994V137.908C331.87 132.749 329.12 127.982 324.655 125.403C298.717 110.417 209.885 59.0936 174.79 38.818C171.814 37.0984 168.146 37.0984 165.17 38.818C162.194 40.5376 158.479 42.6867 158.479 42.6867V42.6873Z" fill="white"/>
<path fill-rule="evenodd" clip-rule="evenodd" d="M167.894 42.8022C202.988 63.0778 291.821 114.401 317.759 129.387C322.224 131.966 324.974 136.734 324.974 141.893V286.978C324.974 289.944 323.61 292.716 321.327 294.525C323.166 293.52 325.488 292.239 327.06 291.331C330.037 289.611 331.87 286.433 331.87 282.994V137.908C331.87 132.749 329.12 127.982 324.655 125.403C298.717 110.417 209.885 59.0936 174.79 38.818C171.814 37.0984 168.146 37.0984 165.17 38.818C162.194 40.5376 158.479 42.6867 158.479 42.6867C161.418 41.0839 164.986 41.1224 167.894 42.8022Z" stroke="#26262A" stroke-width="2" stroke-linecap="round" stroke-linejoin="round"/>
<path fill-rule="evenodd" clip-rule="evenodd" d="M324.973 273.732L153.463 174.642V196.225C153.463 201.384 156.213 206.151 160.678 208.73C186.616 223.716 275.449 275.039 310.543 295.315C313.519 297.035 317.186 297.035 320.163 295.315C323.139 293.595 324.973 290.417 324.973 286.978V273.732Z" fill="#26262A"/>
<path fill-rule="evenodd" clip-rule="evenodd" d="M324.973 273.732L153.463 174.642V196.225C153.463 201.384 156.213 206.151 160.678 208.73C186.616 223.716 275.449 275.039 310.543 295.315C313.519 297.035 317.186 297.035 320.163 295.315C323.139 293.595 324.973 290.417 324.973 286.978V273.732Z" stroke="#26262A" stroke-width="2" stroke-linecap="round" stroke-linejoin="round"/>
<path fill-rule="evenodd" clip-rule="evenodd" d="M133.237 99.2705C133.989 99.0299 134.817 99.1117 135.516 99.5154C145.516 105.293 151.681 108.855 161.193 114.35C163.529 115.7 164.969 118.195 164.969 120.895C164.969 138.137 164.969 135.344 164.969 153.522C164.969 154.352 164.606 155.129 163.994 155.662C165.48 154.825 173.616 150.163 174.242 149.801C175.119 149.294 175.658 148.359 175.658 147.347V114.719C175.658 112.019 174.219 109.524 171.882 108.175C162.37 102.679 156.206 99.1171 146.206 93.3399C145.33 92.8333 144.25 92.8333 143.374 93.3399C142.498 93.8459 133.237 99.2705 133.237 99.2705Z" fill="white"/>
<path fill-rule="evenodd" clip-rule="evenodd" d="M133.237 99.2705C133.989 99.0299 134.817 99.1117 135.516 99.5154C145.516 105.293 151.681 108.855 161.193 114.35C163.529 115.7 164.969 118.195 164.969 120.895C164.969 138.137 164.969 135.344 164.969 153.522C164.969 154.352 164.606 155.129 163.994 155.662C165.48 154.825 173.616 150.163 174.242 149.801C175.119 149.294 175.658 148.359 175.658 147.347V114.719C175.658 112.019 174.219 109.524 171.882 108.175C162.37 102.679 156.206 99.1171 146.206 93.3399C145.33 92.8333 144.25 92.8333 143.374 93.3399C142.498 93.8459 133.237 99.2705 133.237 99.2705Z" stroke="#26262A" stroke-width="2" stroke-linecap="round" stroke-linejoin="round"/>
<path fill-rule="evenodd" clip-rule="evenodd" d="M164.969 120.75C164.969 118.14 163.577 115.728 161.318 114.423C154.987 110.765 142.012 103.268 135.376 99.4342C134.529 98.9451 133.485 98.9451 132.638 99.4342C131.79 99.9234 131.269 100.828 131.269 101.807C131.269 110.05 131.269 126.883 131.269 134.742C131.269 137.352 132.66 139.765 134.919 141.07C141.251 144.728 154.226 152.224 160.862 156.058C161.709 156.547 162.753 156.547 163.6 156.058C164.447 155.569 164.969 154.664 164.969 153.685C164.969 145.442 164.969 128.61 164.969 120.75Z" fill="#26262A"/>
<path fill-rule="evenodd" clip-rule="evenodd" d="M164.969 120.75C164.969 118.14 163.577 115.728 161.318 114.423C154.987 110.765 142.012 103.268 135.376 99.4342C134.529 98.9451 133.485 98.9451 132.638 99.4342C131.79 99.9234 131.269 100.828 131.269 101.807C131.269 110.05 131.269 126.883 131.269 134.742C131.269 137.352 132.66 139.765 134.919 141.07C141.251 144.728 154.226 152.224 160.862 156.058C161.709 156.547 162.753 156.547 163.6 156.058C164.447 155.569 164.969 154.664 164.969 153.685C164.969 145.442 164.969 128.61 164.969 120.75Z" stroke="#26262A" stroke-width="2" stroke-linecap="round" stroke-linejoin="round"/>
<path fill-rule="evenodd" clip-rule="evenodd" d="M166.649 52.5152C168.491 53.5796 169.987 56.1722 169.987 58.3008C169.987 60.4295 168.491 61.2941 166.649 60.2298C164.806 59.1648 163.311 56.5729 163.311 54.4436C163.311 52.3149 164.806 51.4509 166.649 52.5152Z" fill="white"/>
<path fill-rule="evenodd" clip-rule="evenodd" d="M166.649 52.5152C168.491 53.5796 169.987 56.1722 169.987 58.3008C169.987 60.4295 168.491 61.2941 166.649 60.2298C164.806 59.1648 163.311 56.5729 163.311 54.4436C163.311 52.3149 164.806 51.4509 166.649 52.5152Z" stroke="#26262A" stroke-width="2" stroke-linecap="round" stroke-linejoin="round"/>
<path fill-rule="evenodd" clip-rule="evenodd" d="M177.446 58.754C179.289 59.8183 180.784 62.4109 180.784 64.5396C180.784 66.6683 179.289 67.5323 177.446 66.468C175.604 65.4036 174.108 62.811 174.108 60.6823C174.108 58.5536 175.604 57.6896 177.446 58.754Z" fill="#26262A"/>
<path fill-rule="evenodd" clip-rule="evenodd" d="M177.446 58.754C179.289 59.8183 180.784 62.4109 180.784 64.5396C180.784 66.6683 179.289 67.5323 177.446 66.468C175.604 65.4036 174.108 62.811 174.108 60.6823C174.108 58.5536 175.604 57.6896 177.446 58.754Z" stroke="#26262A" stroke-width="2" stroke-linecap="round" stroke-linejoin="round"/>
<path fill-rule="evenodd" clip-rule="evenodd" d="M188.244 64.9921C190.087 66.0571 191.583 68.6491 191.583 70.7784C191.583 72.9071 190.087 73.7711 188.244 72.7067C186.402 71.6424 184.906 69.0498 184.906 66.9211C184.906 64.7924 186.402 63.9278 188.244 64.9921Z" fill="white"/>
<path fill-rule="evenodd" clip-rule="evenodd" d="M188.244 64.9921C190.087 66.0571 191.583 68.6491 191.583 70.7784C191.583 72.9071 190.087 73.7711 188.244 72.7067C186.402 71.6424 184.906 69.0498 184.906 66.9211C184.906 64.7924 186.402 63.9278 188.244 64.9921Z" stroke="#26262A" stroke-width="2" stroke-linecap="round" stroke-linejoin="round"/>
<path fill-rule="evenodd" clip-rule="evenodd" d="M276.797 199.107C276.797 193.948 274.046 189.181 269.582 186.601C254.169 177.697 218.123 156.871 201.94 147.521C200.266 146.554 198.203 146.554 196.529 147.521C194.854 148.489 193.823 150.276 193.823 152.211C193.823 158.748 193.823 167.392 193.823 173.688C193.823 178.847 196.573 183.614 201.038 186.193C216.45 195.098 252.497 215.923 268.68 225.273C270.354 226.241 272.417 226.241 274.091 225.273C275.765 224.306 276.797 222.518 276.797 220.584C276.797 214.047 276.797 205.403 276.797 199.107Z" fill="white"/>
<path fill-rule="evenodd" clip-rule="evenodd" d="M276.797 199.107C276.797 193.948 274.046 189.181 269.582 186.601C254.169 177.697 218.123 156.871 201.94 147.521C200.266 146.554 198.203 146.554 196.529 147.521C194.854 148.489 193.823 150.276 193.823 152.211C193.823 158.748 193.823 167.392 193.823 173.688C193.823 178.847 196.573 183.614 201.038 186.193C216.45 195.098 252.497 215.923 268.68 225.273C270.354 226.241 272.417 226.241 274.091 225.273C275.765 224.306 276.797 222.518 276.797 220.584C276.797 214.047 276.797 205.403 276.797 199.107Z" stroke="#26262A" stroke-width="2" stroke-linecap="round" stroke-linejoin="round"/>
<path fill-rule="evenodd" clip-rule="evenodd" d="M276.797 144.3C276.797 139.141 274.046 134.374 269.582 131.794C254.169 122.89 218.123 102.064 201.94 92.7144C200.266 91.7475 198.203 91.7475 196.529 92.7144C194.854 93.6819 193.823 95.4695 193.823 97.4044C193.823 103.942 193.823 112.585 193.823 118.881C193.823 124.04 196.573 128.807 201.038 131.387C216.45 140.291 252.497 161.117 268.68 170.467C270.354 171.434 272.417 171.434 274.091 170.467C275.765 169.499 276.797 167.712 276.797 165.777C276.797 159.239 276.797 150.597 276.797 144.3Z" fill="#26262A"/>
<path fill-rule="evenodd" clip-rule="evenodd" d="M276.797 144.3C276.797 139.141 274.046 134.374 269.582 131.794C254.169 122.89 218.123 102.064 201.94 92.7144C200.266 91.7475 198.203 91.7475 196.529 92.7144C194.854 93.6819 193.823 95.4695 193.823 97.4044C193.823 103.942 193.823 112.585 193.823 118.881C193.823 124.04 196.573 128.807 201.038 131.387C216.45 140.291 252.497 161.117 268.68 170.467C270.354 171.434 272.417 171.434 274.091 170.467C275.765 169.499 276.797 167.712 276.797 165.777C276.797 159.239 276.797 150.597 276.797 144.3Z" stroke="#26262A" stroke-width="2" stroke-linecap="round" stroke-linejoin="round"/>
<path fill-rule="evenodd" clip-rule="evenodd" d="M212.146 98.6108V108.295C212.146 113.454 214.897 118.221 219.361 120.801L276.798 153.985V144.3C276.798 139.142 274.047 134.375 269.583 131.795L212.146 98.6108Z" fill="white"/>
<path fill-rule="evenodd" clip-rule="evenodd" d="M212.146 98.6108V108.295C212.146 113.454 214.897 118.221 219.361 120.801L276.798 153.985V144.3C276.798 139.142 274.047 134.375 269.583 131.795L212.146 98.6108Z" stroke="#26262A" stroke-width="2" stroke-linecap="round" stroke-linejoin="round"/>
<path fill-rule="evenodd" clip-rule="evenodd" d="M209.085 161.933C213.533 164.503 217.144 170.762 217.144 175.902C217.144 181.042 213.533 183.128 209.085 180.558C204.637 177.989 201.025 171.729 201.025 166.589C201.025 161.449 204.637 159.363 209.085 161.933Z" fill="#26262A"/>
<path fill-rule="evenodd" clip-rule="evenodd" d="M209.085 161.933C213.533 164.503 217.144 170.762 217.144 175.902C217.144 181.042 213.533 183.128 209.085 180.558C204.637 177.989 201.025 171.729 201.025 166.589C201.025 161.449 204.637 159.363 209.085 161.933Z" stroke="#26262A" stroke-width="2" stroke-linecap="round" stroke-linejoin="round"/>
<path fill-rule="evenodd" clip-rule="evenodd" d="M263.809 195.355L223.283 171.941V177.137L263.809 200.551V195.355Z" fill="#26262A"/>
<path fill-rule="evenodd" clip-rule="evenodd" d="M263.809 195.355L223.283 171.941V177.137L263.809 200.551V195.355Z" stroke="#26262A" stroke-width="2" stroke-linecap="round" stroke-linejoin="round"/>
<path fill-rule="evenodd" clip-rule="evenodd" d="M243.547 193.467L223.283 181.761V186.956L243.547 198.663V193.467Z" fill="#26262A"/>
<path fill-rule="evenodd" clip-rule="evenodd" d="M243.547 193.467L223.283 181.761V186.956L243.547 198.663V193.467Z" stroke="#26262A" stroke-width="2" stroke-linecap="round" stroke-linejoin="round"/>
<path fill-rule="evenodd" clip-rule="evenodd" d="M194.791 246.646L182.261 253.885V269.055L194.791 276.295L207.322 269.055V253.885L194.791 246.646Z" fill="#26262A"/>
<path fill-rule="evenodd" clip-rule="evenodd" d="M194.791 246.646L182.261 253.885V269.055L194.791 276.295L207.322 269.055V253.885L194.791 246.646Z" stroke="#26262A" stroke-width="2" stroke-linecap="round" stroke-linejoin="round"/>
<path fill-rule="evenodd" clip-rule="evenodd" d="M207.322 253.885L194.791 261.125V276.295L207.322 269.055V253.885Z" fill="white"/>
<path fill-rule="evenodd" clip-rule="evenodd" d="M207.322 253.885L194.791 261.125V276.295L207.322 269.055V253.885Z" stroke="#26262A" stroke-width="2" stroke-linecap="round" stroke-linejoin="round"/>
<path fill-rule="evenodd" clip-rule="evenodd" d="M194.791 246.646L182.261 253.885L194.791 261.125L207.322 253.885L194.791 246.646Z" fill="white"/>
<path fill-rule="evenodd" clip-rule="evenodd" d="M194.791 246.646L182.261 253.885L194.791 261.125L207.322 253.885L194.791 246.646Z" stroke="#26262A" stroke-width="2" stroke-linecap="round" stroke-linejoin="round"/>
<path fill-rule="evenodd" clip-rule="evenodd" d="M213.412 243.128L200.881 250.367V279.813L213.412 287.052L225.942 279.813V250.367L213.412 243.128Z" fill="#26262A"/>
<path fill-rule="evenodd" clip-rule="evenodd" d="M213.412 243.128L200.881 250.367V279.813L213.412 287.052L225.942 279.813V250.367L213.412 243.128Z" stroke="#26262A" stroke-width="2" stroke-linecap="round" stroke-linejoin="round"/>
<path fill-rule="evenodd" clip-rule="evenodd" d="M225.942 250.367L213.411 257.607V287.052L225.942 279.813V250.367Z" fill="white"/>
<path fill-rule="evenodd" clip-rule="evenodd" d="M225.942 250.367L213.411 257.607V287.052L225.942 279.813V250.367Z" stroke="#26262A" stroke-width="2" stroke-linecap="round" stroke-linejoin="round"/>
<path fill-rule="evenodd" clip-rule="evenodd" d="M213.412 243.128L200.881 250.367L213.412 257.607L225.942 250.367L213.412 243.128Z" fill="white"/>
<path fill-rule="evenodd" clip-rule="evenodd" d="M213.412 243.128L200.881 250.367L213.412 257.607L225.942 250.367L213.412 243.128Z" stroke="#26262A" stroke-width="2" stroke-linecap="round" stroke-linejoin="round"/>
<path fill-rule="evenodd" clip-rule="evenodd" d="M233.467 234.124L220.937 241.364V291.4L233.467 298.64L245.998 291.4V241.364L233.467 234.124Z" fill="#26262A"/>
<path fill-rule="evenodd" clip-rule="evenodd" d="M233.467 234.124L220.937 241.364V291.4L233.467 298.64L245.998 291.4V241.364L233.467 234.124Z" stroke="#26262A" stroke-width="2" stroke-linecap="round" stroke-linejoin="round"/>
<path fill-rule="evenodd" clip-rule="evenodd" d="M245.997 241.364L233.467 248.603V298.639L245.997 291.4V241.364Z" fill="white"/>
<path fill-rule="evenodd" clip-rule="evenodd" d="M245.997 241.364L233.467 248.603V298.639L245.997 291.4V241.364Z" stroke="#26262A" stroke-width="2" stroke-linecap="round" stroke-linejoin="round"/>
<path fill-rule="evenodd" clip-rule="evenodd" d="M233.467 234.124L220.937 241.364L233.467 248.603L245.998 241.364L233.467 234.124Z" fill="white"/>
<path fill-rule="evenodd" clip-rule="evenodd" d="M233.467 234.124L220.937 241.364L233.467 248.603L245.998 241.364L233.467 234.124Z" stroke="#26262A" stroke-width="2" stroke-linecap="round" stroke-linejoin="round"/>
<path fill-rule="evenodd" clip-rule="evenodd" d="M209.726 107.949C214.089 110.469 217.63 116.608 217.63 121.648C217.63 126.689 214.089 128.736 209.726 126.215C205.364 123.695 201.822 117.556 201.822 112.515C201.822 107.474 205.364 105.428 209.726 107.949Z" fill="white"/>
<path fill-rule="evenodd" clip-rule="evenodd" d="M209.726 107.949C214.089 110.469 217.63 116.608 217.63 121.648C217.63 126.689 214.089 128.736 209.726 126.215C205.364 123.695 201.822 117.556 201.822 112.515C201.822 107.474 205.364 105.428 209.726 107.949Z" stroke="#26262A" stroke-width="2" stroke-linecap="round" stroke-linejoin="round"/>
<path fill-rule="evenodd" clip-rule="evenodd" d="M204.299 107.309L209.621 104.235C209.734 104.162 209.85 104.095 209.969 104.035L209.969 104.034C211.383 103.315 213.288 103.473 215.38 104.682C219.743 107.203 223.284 113.341 223.284 118.382C223.284 120.942 222.371 122.729 220.901 123.538L215.323 126.762C216.748 125.934 217.63 124.164 217.63 121.649C217.63 116.608 214.089 110.469 209.726 107.949C207.626 106.735 205.715 106.58 204.299 107.309Z" fill="white"/>
<path fill-rule="evenodd" clip-rule="evenodd" d="M204.299 107.309L209.621 104.235C209.734 104.162 209.85 104.095 209.969 104.035C211.383 103.315 213.288 103.473 215.38 104.682C219.743 107.202 223.284 113.341 223.284 118.382C223.284 120.942 222.371 122.728 220.901 123.538L215.323 126.762C216.748 125.934 217.63 124.164 217.63 121.648C217.63 116.608 214.089 110.469 209.726 107.949C207.626 106.735 205.715 106.58 204.299 107.309Z" stroke="#26262A" stroke-width="2" stroke-linecap="round" stroke-linejoin="round"/>
<path fill-rule="evenodd" clip-rule="evenodd" d="M119.731 134.193C124.094 136.714 127.635 142.852 127.635 147.893C127.635 152.933 124.094 154.98 119.731 152.459C115.369 149.939 111.827 143.801 111.827 138.76C111.827 133.719 115.369 131.673 119.731 134.193Z" fill="white"/>
<path fill-rule="evenodd" clip-rule="evenodd" d="M119.731 134.193C124.094 136.714 127.635 142.852 127.635 147.893C127.635 152.933 124.094 154.98 119.731 152.459C115.369 149.939 111.827 143.801 111.827 138.76C111.827 133.719 115.369 131.673 119.731 134.193Z" stroke="#26262A" stroke-width="2" stroke-linecap="round" stroke-linejoin="round"/>
<path fill-rule="evenodd" clip-rule="evenodd" d="M114.304 133.553L122.349 128.906C122.461 128.833 122.578 128.766 122.697 128.705H122.697C124.112 127.986 126.015 128.144 128.108 129.353C132.47 131.874 136.012 138.012 136.012 143.053C136.012 145.613 135.099 147.4 133.63 148.209L125.328 153.006C126.753 152.178 127.635 150.408 127.635 147.893C127.635 142.852 124.093 136.714 119.731 134.194C117.63 132.98 115.72 132.825 114.304 133.553Z" fill="white"/>
<path fill-rule="evenodd" clip-rule="evenodd" d="M114.304 133.553L122.349 128.906C122.461 128.833 122.578 128.766 122.697 128.705C124.112 127.986 126.015 128.144 128.108 129.353C132.47 131.874 136.012 138.012 136.012 143.053C136.012 145.613 135.099 147.4 133.63 148.209L125.328 153.006C126.753 152.178 127.635 150.408 127.635 147.893C127.635 142.852 124.093 136.714 119.731 134.194C117.63 132.98 115.72 132.825 114.304 133.553Z" stroke="#26262A" stroke-width="2" stroke-linecap="round" stroke-linejoin="round"/>
</g>
</g>
<defs>
<clipPath id="clip0_1680_7692">
<rect width="437" height="360" rx="20" fill="white"/>
</clipPath>
<clipPath id="clip1_1680_7692">
<rect x="-22" width="481" height="361" rx="10" fill="white"/>
</clipPath>
</defs>
</svg>
