<svg width="437" height="360" viewBox="0 0 437 360" fill="none" xmlns="http://www.w3.org/2000/svg">
<g clip-path="url(#clip0_1680_7781)">
<g clip-path="url(#clip1_1680_7781)">
<path fill-rule="evenodd" clip-rule="evenodd" d="M-21 360H458V0H-21V360Z" fill="#F8F8F8"/>
<path opacity="0.3" fill-rule="evenodd" clip-rule="evenodd" d="M231.768 340.557H231.768C232.145 340.571 232.523 340.571 232.9 340.557H250.005V332.572L312.398 296.474C315.363 294.759 317.188 291.59 317.188 288.16C317.188 284.73 315.363 281.561 312.398 279.846C284.377 263.635 223.354 228.329 202.461 216.241C198.015 213.669 192.537 213.669 188.091 216.241C172.581 225.215 135.711 246.546 115.211 258.406C112.248 260.12 110.421 263.29 110.421 266.72C110.421 270.149 112.248 273.319 115.211 275.033C143.233 291.245 204.256 326.551 225.149 338.639C227.203 339.827 229.477 340.466 231.768 340.557Z" fill="#262725"/>
<path opacity="0.3" fill-rule="evenodd" clip-rule="evenodd" d="M58.686 287.614C75.936 277.634 103.946 277.634 121.196 287.614C138.446 297.595 138.446 313.8 121.196 323.78C103.946 333.76 75.936 333.76 58.686 323.78C41.436 313.8 41.436 297.595 58.686 287.614Z" fill="#262725"/>
<path fill-rule="evenodd" clip-rule="evenodd" d="M265.266 120.21C266.745 119.736 268.375 119.896 269.751 120.693C289.433 132.08 301.567 139.099 320.288 149.931C324.887 152.592 327.72 157.509 327.72 162.83C327.72 196.813 327.72 191.308 327.72 227.137C327.72 228.772 327.007 230.304 325.801 231.354C328.726 229.704 344.74 220.515 345.972 219.802C347.697 218.804 348.759 216.96 348.759 214.965C348.759 179.136 348.759 184.641 348.759 150.657C348.759 145.336 345.926 140.419 341.327 137.758C322.606 126.927 310.473 119.907 290.79 108.52C289.066 107.522 286.941 107.522 285.216 108.52C283.492 109.518 265.266 120.21 265.266 120.21Z" fill="white"/>
<path fill-rule="evenodd" clip-rule="evenodd" d="M265.266 120.21C266.745 119.736 268.375 119.896 269.751 120.693C289.433 132.08 301.567 139.099 320.288 149.931C324.887 152.592 327.72 157.509 327.72 162.83C327.72 196.813 327.72 191.308 327.72 227.137C327.72 228.772 327.007 230.304 325.801 231.354C328.726 229.704 344.74 220.515 345.972 219.802C347.697 218.804 348.759 216.96 348.759 214.965C348.759 179.136 348.759 184.641 348.759 150.657C348.759 145.336 345.926 140.419 341.327 137.758C322.606 126.927 310.473 119.907 290.79 108.52C289.066 107.522 286.941 107.522 285.216 108.52C283.492 109.518 265.266 120.21 265.266 120.21Z" stroke="#262725" stroke-width="2" stroke-linecap="round" stroke-linejoin="round"/>
<path fill-rule="evenodd" clip-rule="evenodd" d="M327.72 162.544C327.72 157.399 324.98 152.646 320.535 150.073C308.072 142.864 282.534 128.088 269.473 120.532C267.806 119.567 265.751 119.567 264.085 120.532C262.417 121.497 261.39 123.279 261.39 125.208C261.39 141.454 261.39 174.631 261.39 190.122C261.39 195.267 264.129 200.021 268.575 202.593C281.037 209.803 306.575 224.578 319.637 232.135C321.303 233.099 323.358 233.099 325.025 232.135C326.692 231.17 327.72 229.387 327.72 227.458C327.72 211.212 327.72 178.035 327.72 162.544Z" fill="#262725"/>
<path fill-rule="evenodd" clip-rule="evenodd" d="M327.72 162.544C327.72 157.399 324.98 152.645 320.535 150.073C308.072 142.864 282.534 128.088 269.473 120.532C267.806 119.567 265.751 119.567 264.085 120.532C262.417 121.497 261.39 123.279 261.39 125.208C261.39 141.454 261.39 174.631 261.39 190.122C261.39 195.267 264.129 200.021 268.575 202.593C281.037 209.803 306.575 224.578 319.637 232.135C321.303 233.099 323.358 233.099 325.025 232.135C326.692 231.17 327.72 229.387 327.72 227.458C327.72 211.212 327.72 178.035 327.72 162.544Z" stroke="#262725" stroke-width="2" stroke-linecap="round" stroke-linejoin="round"/>
<path fill-rule="evenodd" clip-rule="evenodd" d="M220.423 200.629C215.977 198.057 210.499 198.057 206.053 200.629C190.543 209.603 153.673 230.935 133.174 242.794C130.21 244.509 128.384 247.678 128.384 251.108C128.384 254.538 130.21 257.707 133.174 259.422C161.195 275.634 222.219 310.939 243.111 323.027C247.558 325.599 253.036 325.599 257.481 323.027C272.992 314.053 309.862 292.722 330.361 280.863C333.325 279.147 335.151 275.978 335.151 272.548C335.151 269.119 333.325 265.95 330.361 264.235C302.34 248.023 241.316 212.718 220.423 200.629Z" fill="white"/>
<path fill-rule="evenodd" clip-rule="evenodd" d="M220.423 200.629C215.977 198.057 210.499 198.057 206.053 200.629C190.543 209.603 153.673 230.935 133.174 242.794C130.21 244.509 128.384 247.678 128.384 251.108C128.384 254.538 130.21 257.707 133.174 259.422C161.195 275.634 222.219 310.939 243.111 323.027C247.558 325.599 253.036 325.599 257.481 323.027C272.992 314.053 309.862 292.722 330.361 280.863C333.325 279.147 335.151 275.978 335.151 272.548C335.151 269.119 333.325 265.95 330.361 264.235C302.34 248.023 241.316 212.718 220.423 200.629Z" stroke="#262725" stroke-width="2" stroke-linecap="round" stroke-linejoin="round"/>
<path fill-rule="evenodd" clip-rule="evenodd" d="M334.822 272.548V272.715C334.763 276.198 332.886 279.402 329.868 281.148C301.741 297.421 278.728 310.735 257.729 322.884C253.13 325.545 247.464 325.545 242.865 322.884C221.866 310.735 161.795 275.98 133.668 259.707C130.602 257.934 128.713 254.656 128.713 251.108C128.713 251.108 128.713 263.129 128.713 266.677C128.713 270.224 130.602 273.502 133.668 275.276C161.795 291.549 221.866 326.303 242.865 338.453C247.464 341.113 253.13 341.113 257.729 338.453C278.728 326.303 301.741 312.989 329.868 296.716C332.934 294.943 334.822 291.664 334.822 288.117V272.548Z" fill="#262725"/>
<path fill-rule="evenodd" clip-rule="evenodd" d="M334.822 272.548V272.715C334.763 276.198 332.886 279.402 329.868 281.148C301.741 297.421 278.728 310.735 257.729 322.884C253.13 325.545 247.464 325.545 242.865 322.884C221.866 310.735 161.795 275.98 133.668 259.707C130.602 257.934 128.713 254.656 128.713 251.108C128.713 251.108 128.713 263.129 128.713 266.677C128.713 270.224 130.602 273.502 133.668 275.276C161.795 291.549 221.866 326.303 242.865 338.453C247.464 341.113 253.13 341.113 257.729 338.453C278.728 326.303 301.741 312.989 329.868 296.716C332.934 294.943 334.822 291.664 334.822 288.117V272.548Z" stroke="#262725" stroke-width="2" stroke-linecap="round" stroke-linejoin="round"/>
<path fill-rule="evenodd" clip-rule="evenodd" d="M188.234 38.2806L178.792 32.8182C177.998 32.3586 177.236 32.283 176.675 32.6082C176.113 32.9328 175.797 33.6318 175.797 34.5504C175.797 59.1072 175.797 206.597 175.797 231.154C175.797 232.073 176.113 233.137 176.675 234.112C177.236 235.086 177.998 235.892 178.792 236.351C193.053 244.602 253.991 279.858 268.253 288.109C269.047 288.569 269.809 288.644 270.371 288.32C270.932 287.995 271.247 287.296 271.247 286.377C271.247 261.82 271.247 114.33 271.247 89.7738C271.247 88.8546 270.932 87.7908 270.371 86.8164C269.809 85.8414 269.047 85.0362 268.253 84.5766L258.811 79.1136V84.5094C258.811 85.4286 258.496 86.127 257.934 86.4522C257.372 86.7768 256.611 86.7012 255.817 86.2416C244.278 79.566 202.767 55.5492 191.228 48.8736C190.434 48.414 189.672 47.6088 189.111 46.6338C188.549 45.6594 188.234 44.5956 188.234 43.6764V38.2806Z" fill="#262725"/>
<path fill-rule="evenodd" clip-rule="evenodd" d="M188.234 38.2806L178.792 32.8182C177.998 32.3586 177.236 32.283 176.675 32.6082C176.113 32.9328 175.797 33.6318 175.797 34.5504C175.797 59.1072 175.797 206.597 175.797 231.154C175.797 232.073 176.113 233.137 176.675 234.112C177.236 235.086 177.998 235.892 178.792 236.351C193.053 244.602 253.991 279.858 268.253 288.109C269.047 288.569 269.809 288.644 270.371 288.32C270.932 287.995 271.247 287.296 271.247 286.377C271.247 261.82 271.247 114.33 271.247 89.7738C271.247 88.8546 270.932 87.7908 270.371 86.8164C269.809 85.8414 269.047 85.0362 268.253 84.5766L258.811 79.1136V84.5094C258.811 85.4286 258.496 86.127 257.934 86.4522C257.372 86.7768 256.611 86.7012 255.817 86.2416C244.278 79.566 202.767 55.5492 191.228 48.8736C190.434 48.414 189.672 47.6088 189.111 46.6338C188.549 45.6594 188.234 44.5956 188.234 43.6764V38.2806Z" stroke="white" stroke-width="2" stroke-linecap="round" stroke-linejoin="round"/>
<path fill-rule="evenodd" clip-rule="evenodd" d="M131.727 300.676C131.778 300.782 131.825 300.888 131.872 300.995L131.875 301C134.285 306.545 131.744 312.667 124.252 317.002C112.916 323.56 94.5084 323.56 83.1723 317.002C75.6801 312.667 73.139 306.545 75.5496 301L75.552 300.995C75.5987 300.888 75.6466 300.782 75.6969 300.676L103.712 238.88L131.727 300.676Z" fill="#262725"/>
<path fill-rule="evenodd" clip-rule="evenodd" d="M131.727 300.676C131.778 300.782 131.825 300.888 131.872 300.995L131.875 301C134.285 306.545 131.744 312.667 124.252 317.002C112.916 323.56 94.5084 323.56 83.1723 317.002C75.6801 312.667 73.139 306.545 75.5496 301L75.552 300.995C75.5987 300.888 75.6466 300.782 75.6969 300.676L103.712 238.88L131.727 300.676Z" stroke="#262725" stroke-width="2" stroke-linecap="round" stroke-linejoin="round"/>
<path fill-rule="evenodd" clip-rule="evenodd" d="M83.1725 293.234C94.5086 286.676 112.916 286.676 124.252 293.234C135.589 299.793 135.589 310.443 124.252 317.002C112.916 323.56 94.5086 323.56 83.1725 317.002C71.8357 310.443 71.8357 299.793 83.1725 293.234Z" fill="#262725"/>
<path fill-rule="evenodd" clip-rule="evenodd" d="M83.1725 293.234C94.5086 286.676 112.916 286.676 124.252 293.234C135.589 299.793 135.589 310.443 124.252 317.002C112.916 323.56 94.5086 323.56 83.1725 317.002C71.8357 310.443 71.8357 299.793 83.1725 293.234Z" stroke="#262725" stroke-width="2" stroke-linecap="round" stroke-linejoin="round"/>
<path fill-rule="evenodd" clip-rule="evenodd" d="M72.457 198.414C89.707 188.434 117.717 188.434 134.967 198.414C152.217 208.394 152.217 224.599 134.967 234.579C117.717 244.56 89.707 244.56 72.457 234.579C55.207 224.599 55.207 208.394 72.457 198.414Z" fill="white"/>
<path fill-rule="evenodd" clip-rule="evenodd" d="M72.457 198.414C89.707 188.434 117.717 188.434 134.967 198.414C152.217 208.394 152.217 224.599 134.967 234.579C117.717 244.56 89.707 244.56 72.457 234.579C55.207 224.599 55.207 208.394 72.457 198.414Z" stroke="#262725" stroke-width="2" stroke-linecap="round" stroke-linejoin="round"/>
<path fill-rule="evenodd" clip-rule="evenodd" d="M147.905 229.593H147.888C148.208 236.372 143.901 243.21 134.967 248.379C117.717 258.359 89.7071 258.359 72.4571 248.379C63.5232 243.21 59.2164 236.372 59.5361 229.593H59.5195V216.496C59.5195 223.043 63.8321 229.589 72.4571 234.579C89.7071 244.559 117.717 244.559 134.967 234.579C143.592 229.589 147.905 223.043 147.905 216.496V229.593Z" fill="#262725"/>
<path fill-rule="evenodd" clip-rule="evenodd" d="M147.905 229.593H147.888C148.208 236.372 143.901 243.21 134.967 248.379C117.717 258.359 89.7071 258.359 72.4571 248.379C63.5232 243.21 59.2164 236.372 59.5361 229.593H59.5195V216.496C59.5195 223.043 63.8321 229.589 72.4571 234.579C89.7071 244.559 117.717 244.559 134.967 234.579C143.592 229.589 147.905 223.043 147.905 216.496V229.593Z" stroke="#262725" stroke-width="2" stroke-linecap="round" stroke-linejoin="round"/>
<path fill-rule="evenodd" clip-rule="evenodd" d="M285.45 86.4882C285.45 81.1668 282.617 76.2498 278.018 73.5894C259.297 62.7582 210.291 34.4058 190.609 23.0184C188.884 22.0206 186.76 22.0206 185.035 23.0184C183.31 24.0162 175.797 28.5102 175.797 28.5102C175.797 28.5102 182.248 188.507 182.248 222.49C182.248 227.812 185.082 232.729 189.68 235.389C208.402 246.221 271.247 292.418 271.247 292.418C271.247 292.418 280.938 286.958 282.663 285.96C284.387 284.962 285.45 283.118 285.45 281.123C285.45 245.294 285.45 120.472 285.45 86.4882Z" fill="white"/>
<path fill-rule="evenodd" clip-rule="evenodd" d="M285.45 86.4882C285.45 81.1668 282.617 76.2498 278.018 73.5894C259.297 62.7582 210.291 34.4058 190.609 23.0184C188.884 22.0206 186.76 22.0206 185.035 23.0184C183.31 24.0162 175.797 28.5102 175.797 28.5102C175.797 28.5102 182.248 188.507 182.248 222.49C182.248 227.812 185.082 232.729 189.68 235.389C208.402 246.221 271.247 292.418 271.247 292.418C271.247 292.418 280.938 286.958 282.663 285.96C284.387 284.962 285.45 283.118 285.45 281.123C285.45 245.294 285.45 120.472 285.45 86.4882Z" stroke="#262725" stroke-width="2" stroke-linecap="round" stroke-linejoin="round"/>
<path fill-rule="evenodd" clip-rule="evenodd" d="M275.123 92.1775C275.123 87.0331 272.384 82.2793 267.938 79.7065C249.317 68.9335 199.585 40.1611 180.005 28.8325C178.337 27.8677 176.283 27.8677 174.616 28.8325C172.948 29.7967 171.921 31.5799 171.921 33.5089C171.921 69.0061 171.921 195.086 171.921 228.75C171.921 233.895 174.66 238.649 179.106 241.221C197.728 251.995 247.458 280.766 267.04 292.096C268.707 293.06 270.761 293.06 272.429 292.096C274.096 291.131 275.123 289.348 275.123 287.419C275.123 251.921 275.123 125.842 275.123 92.1775Z" fill="#262725"/>
<path fill-rule="evenodd" clip-rule="evenodd" d="M275.123 92.1775C275.123 87.0331 272.384 82.2793 267.938 79.7065C249.317 68.9335 199.585 40.1611 180.005 28.8325C178.337 27.8677 176.283 27.8677 174.616 28.8325C172.948 29.7967 171.921 31.5799 171.921 33.5089C171.921 69.0061 171.921 195.086 171.921 228.75C171.921 233.895 174.66 238.649 179.106 241.221C197.728 251.995 247.458 280.766 267.04 292.096C268.707 293.06 270.761 293.06 272.429 292.096C274.096 291.131 275.123 289.348 275.123 287.419C275.123 251.921 275.123 125.842 275.123 92.1775Z" stroke="white" stroke-width="2" stroke-linecap="round" stroke-linejoin="round"/>
<path fill-rule="evenodd" clip-rule="evenodd" d="M257.512 78.3625V90.1363C257.512 91.0231 257.04 91.8427 256.274 92.2861C255.507 92.7295 254.563 92.7295 253.797 92.2861C242.328 85.6507 207.481 65.4901 194.487 57.9721C191.421 56.1985 189.533 52.9201 189.533 49.3729V39.0325L179.513 33.2359C178.747 32.7925 177.803 32.7925 177.036 33.2359C176.27 33.6793 175.797 34.4989 175.797 35.3857C175.797 61.5283 175.797 199.01 175.797 228.886C175.797 232.433 177.686 235.711 180.752 237.485C197.634 247.253 252.688 279.104 267.531 287.692C268.298 288.136 269.242 288.136 270.009 287.692C270.775 287.248 271.247 286.429 271.247 285.542C271.247 259.399 271.247 121.918 271.247 92.0419C271.247 88.4941 269.359 85.2163 266.293 83.4427L257.512 78.3625Z" fill="#262725"/>
<path fill-rule="evenodd" clip-rule="evenodd" d="M257.512 78.3625V90.1363C257.512 91.0231 257.04 91.8427 256.274 92.2861C255.507 92.7295 254.563 92.7295 253.797 92.2861C242.328 85.6507 207.481 65.4901 194.487 57.9721C191.421 56.1985 189.533 52.9201 189.533 49.3729V39.0325L179.513 33.2359C178.747 32.7925 177.803 32.7925 177.036 33.2359C176.27 33.6793 175.797 34.4989 175.797 35.3857C175.797 61.5283 175.797 199.01 175.797 228.886C175.797 232.433 177.686 235.711 180.752 237.485C197.634 247.253 252.688 279.104 267.531 287.692C268.298 288.136 269.242 288.136 270.009 287.692C270.775 287.248 271.247 286.429 271.247 285.542C271.247 259.399 271.247 121.918 271.247 92.0419C271.247 88.4941 269.359 85.2163 266.293 83.4427L257.512 78.3625Z" stroke="#262725" stroke-width="2" stroke-linecap="round" stroke-linejoin="round"/>
<path fill-rule="evenodd" clip-rule="evenodd" d="M161.142 202.079C162.85 201.133 164.93 201.15 166.624 202.131C182.784 211.48 218.066 231.893 233.46 240.799C238.059 243.46 240.892 248.377 240.892 253.698C240.892 259.847 240.892 268.129 240.892 274.509C240.892 276.153 240.171 277.693 238.954 278.743C244.473 275.578 260.622 266.319 262.049 265.493C263.774 264.495 264.837 262.651 264.837 260.656C264.837 254.276 264.837 245.994 264.837 239.845C264.837 234.523 262.003 229.606 257.405 226.946C242.01 218.04 206.729 197.627 190.568 188.277C188.844 187.28 186.719 187.28 184.994 188.277L161.142 202.079Z" fill="white"/>
<path fill-rule="evenodd" clip-rule="evenodd" d="M161.142 202.079C162.85 201.133 164.93 201.15 166.624 202.131C182.784 211.48 218.066 231.893 233.46 240.799C238.059 243.46 240.892 248.377 240.892 253.698C240.892 259.847 240.892 268.129 240.892 274.509C240.892 276.153 240.171 277.693 238.954 278.743C244.473 275.578 260.622 266.319 262.049 265.493C263.774 264.495 264.837 262.651 264.837 260.656C264.837 254.276 264.837 245.994 264.837 239.845C264.837 234.523 262.003 229.606 257.405 226.946C242.01 218.04 206.729 197.627 190.568 188.277C188.844 187.28 186.719 187.28 184.994 188.277L161.142 202.079Z" stroke="#262725" stroke-width="2" stroke-linecap="round" stroke-linejoin="round"/>
<path fill-rule="evenodd" clip-rule="evenodd" d="M240.892 253.413C240.892 248.268 238.153 243.514 233.707 240.942C218.359 232.062 182.462 211.294 166.346 201.97C164.679 201.006 162.625 201.006 160.958 201.97C159.29 202.935 158.263 204.717 158.263 206.647C158.263 213.166 158.263 221.785 158.263 228.064C158.263 233.209 161.002 237.963 165.448 240.535C180.797 249.415 216.693 270.183 232.809 279.507C234.476 280.471 236.53 280.471 238.198 279.507C239.865 278.542 240.892 276.759 240.892 274.83C240.892 268.311 240.892 259.692 240.892 253.413Z" fill="white"/>
<path fill-rule="evenodd" clip-rule="evenodd" d="M240.892 253.413C240.892 248.268 238.153 243.514 233.707 240.942C218.359 232.062 182.462 211.294 166.346 201.97C164.679 201.006 162.625 201.006 160.958 201.97C159.29 202.935 158.263 204.717 158.263 206.647C158.263 213.166 158.263 221.785 158.263 228.064C158.263 233.209 161.002 237.963 165.448 240.535C180.797 249.415 216.693 270.183 232.809 279.507C234.476 280.471 236.53 280.471 238.198 279.507C239.865 278.542 240.892 276.759 240.892 274.83C240.892 268.311 240.892 259.692 240.892 253.413Z" stroke="#262725" stroke-width="2" stroke-linecap="round" stroke-linejoin="round"/>
<path fill-rule="evenodd" clip-rule="evenodd" d="M198.134 142.96C205.31 147.111 211.136 157.223 211.136 165.526C211.136 173.83 205.31 177.2 198.134 173.049C190.958 168.897 185.132 158.785 185.132 150.482C185.132 142.178 190.958 138.808 198.134 142.96Z" fill="white"/>
<path fill-rule="evenodd" clip-rule="evenodd" d="M198.134 142.96C205.31 147.111 211.136 157.223 211.136 165.526C211.136 173.83 205.31 177.2 198.134 173.049C190.958 168.897 185.132 158.785 185.132 150.482C185.132 142.178 190.958 138.808 198.134 142.96Z" stroke="white" stroke-width="2" stroke-linecap="round" stroke-linejoin="round"/>
<path fill-rule="evenodd" clip-rule="evenodd" d="M210.521 186.982C217.697 191.134 223.522 201.246 223.522 209.549C223.522 217.853 217.697 221.224 210.521 217.072C203.345 212.92 197.518 202.808 197.518 194.505C197.518 186.202 203.345 182.831 210.521 186.982Z" fill="#262725"/>
<path fill-rule="evenodd" clip-rule="evenodd" d="M210.521 186.982C217.697 191.134 223.522 201.246 223.522 209.549C223.522 217.853 217.697 221.224 210.521 217.072C203.345 212.92 197.518 202.808 197.518 194.505C197.518 186.202 203.345 182.831 210.521 186.982Z" stroke="#262725" stroke-width="2" stroke-linecap="round" stroke-linejoin="round"/>
<path fill-rule="evenodd" clip-rule="evenodd" d="M173.462 216.342C177.892 218.905 181.488 225.147 181.488 230.272C181.488 235.398 177.892 237.478 173.462 234.916C169.033 232.353 165.437 226.111 165.437 220.986C165.437 215.86 169.033 213.78 173.462 216.342Z" fill="#262725"/>
<path fill-rule="evenodd" clip-rule="evenodd" d="M173.462 216.342C177.892 218.905 181.488 225.147 181.488 230.272C181.488 235.398 177.892 237.478 173.462 234.916C169.033 232.353 165.437 226.111 165.437 220.986C165.437 215.86 169.033 213.78 173.462 216.342Z" stroke="#262725" stroke-width="2" stroke-linecap="round" stroke-linejoin="round"/>
<path fill-rule="evenodd" clip-rule="evenodd" d="M201.592 185.929L232.899 167.818C233.084 167.697 233.275 167.587 233.471 167.487L233.472 167.486C235.798 166.302 238.93 166.562 242.373 168.554C249.549 172.706 255.374 182.818 255.374 191.121C255.374 195.337 253.873 198.281 251.455 199.615L219.727 217.973C222.071 216.608 223.522 213.693 223.522 209.549C223.522 201.246 217.696 191.134 210.52 186.982C207.065 184.984 203.923 184.729 201.592 185.929Z" fill="white"/>
<path fill-rule="evenodd" clip-rule="evenodd" d="M201.592 185.928L232.899 167.817C233.084 167.697 233.275 167.586 233.471 167.487C235.798 166.302 238.93 166.562 242.373 168.554C249.549 172.706 255.374 182.817 255.374 191.121C255.374 195.336 253.873 198.281 251.455 199.614L219.727 217.973C222.071 216.608 223.522 213.693 223.522 209.549C223.522 201.246 217.696 191.134 210.52 186.982C207.065 184.983 203.923 184.728 201.592 185.928Z" stroke="#262725" stroke-width="2" stroke-linecap="round" stroke-linejoin="round"/>
<path fill-rule="evenodd" clip-rule="evenodd" d="M196.848 142.289C197.271 142.485 197.7 142.709 198.134 142.959C205.31 147.111 211.135 157.223 211.135 165.526C211.135 166.028 211.114 166.511 211.073 166.977C210.649 166.781 210.221 166.557 209.787 166.306C202.611 162.155 196.785 152.043 196.785 143.739C196.785 143.238 196.807 142.754 196.848 142.289Z" fill="#262725"/>
<path fill-rule="evenodd" clip-rule="evenodd" d="M196.848 142.289C197.271 142.485 197.7 142.709 198.134 142.959C205.31 147.111 211.135 157.223 211.135 165.526C211.135 166.028 211.114 166.511 211.073 166.977C210.649 166.781 210.221 166.557 209.787 166.306C202.611 162.155 196.785 152.043 196.785 143.739C196.785 143.238 196.807 142.754 196.848 142.289Z" stroke="white" stroke-width="2" stroke-linecap="round" stroke-linejoin="round"/>
<path fill-rule="evenodd" clip-rule="evenodd" d="M198.493 46.7428C200.236 47.7508 201.651 50.2066 201.651 52.2238C201.651 54.2404 200.236 55.0588 198.493 54.0502C196.75 53.0422 195.335 50.5864 195.335 48.5698C195.335 46.5532 196.75 45.7342 198.493 46.7428Z" fill="white"/>
<path fill-rule="evenodd" clip-rule="evenodd" d="M198.493 46.7428C200.236 47.7508 201.651 50.2066 201.651 52.2238C201.651 54.2404 200.236 55.0588 198.493 54.0502C196.75 53.0422 195.335 50.5864 195.335 48.5698C195.335 46.5532 196.75 45.7342 198.493 46.7428Z" stroke="white" stroke-width="2" stroke-linecap="round" stroke-linejoin="round"/>
<path fill-rule="evenodd" clip-rule="evenodd" d="M163.834 73.3969C165.542 72.4513 167.622 72.4687 169.316 73.4491C185.476 82.7983 220.758 103.211 236.152 112.117C240.751 114.778 243.584 119.695 243.584 125.016C243.584 131.165 243.584 139.447 243.584 145.827C243.584 147.47 242.864 149.011 241.646 150.061C247.166 146.896 242.874 149.462 244.301 148.637C246.026 147.639 247.088 145.795 247.088 143.8C247.088 137.42 247.088 129.138 247.088 122.989C247.088 117.668 244.255 112.751 239.657 110.09C224.262 101.183 188.98 80.7709 172.821 71.4217C171.096 70.4239 168.971 70.4239 167.246 71.4217L163.834 73.3969Z" fill="white"/>
<path fill-rule="evenodd" clip-rule="evenodd" d="M163.834 73.3969C165.542 72.4513 167.622 72.4687 169.316 73.4491C185.476 82.7983 220.758 103.211 236.152 112.117C240.751 114.778 243.584 119.695 243.584 125.016C243.584 131.165 243.584 139.447 243.584 145.827C243.584 147.47 242.864 149.011 241.646 150.061C247.166 146.896 242.874 149.462 244.301 148.637C246.026 147.639 247.088 145.795 247.088 143.8C247.088 137.42 247.088 129.138 247.088 122.989C247.088 117.668 244.255 112.751 239.657 110.09C224.262 101.183 188.98 80.7709 172.821 71.4217C171.096 70.4239 168.971 70.4239 167.246 71.4217L163.834 73.3969Z" stroke="#262725" stroke-width="2" stroke-linecap="round" stroke-linejoin="round"/>
<path fill-rule="evenodd" clip-rule="evenodd" d="M243.584 125.016C243.584 119.695 240.752 114.778 236.153 112.117C220.759 103.211 185.476 82.7982 169.317 73.449C167.592 72.4512 165.467 72.4512 163.743 73.449C162.018 74.4468 160.956 76.2906 160.956 78.2862C160.956 84.6654 160.956 92.9478 160.956 99.0966C160.956 104.418 163.789 109.335 168.387 111.995C183.782 120.902 219.064 141.315 235.224 150.664C236.948 151.662 239.073 151.662 240.798 150.664C242.522 149.666 243.584 147.823 243.584 145.827C243.584 139.447 243.584 131.165 243.584 125.016Z" fill="white"/>
<path fill-rule="evenodd" clip-rule="evenodd" d="M243.584 125.016C243.584 119.695 240.752 114.778 236.153 112.117C220.759 103.211 185.476 82.7982 169.317 73.449C167.592 72.4512 165.467 72.4512 163.743 73.449C162.018 74.4468 160.956 76.2906 160.956 78.2862C160.956 84.6654 160.956 92.9478 160.956 99.0966C160.956 104.418 163.789 109.335 168.387 111.995C183.782 120.902 219.064 141.315 235.224 150.664C236.948 151.662 239.073 151.662 240.798 150.664C242.522 149.666 243.584 147.823 243.584 145.827C243.584 139.447 243.584 131.165 243.584 125.016Z" stroke="#262725" stroke-width="2" stroke-linecap="round" stroke-linejoin="round"/>
<path fill-rule="evenodd" clip-rule="evenodd" d="M242.584 75.0485C242.584 74.5667 242.327 74.1209 241.911 73.8803C237.941 71.5835 217.537 59.7785 210.998 55.9949C210.581 55.7537 210.068 55.7537 209.651 55.9949C209.235 56.2361 208.978 56.6813 208.978 57.1631C208.978 57.2171 208.978 57.2693 208.978 57.3203C208.978 57.8027 209.235 58.2479 209.651 58.4885C213.621 60.7853 234.025 72.5903 240.565 76.3739C240.981 76.6151 241.494 76.6151 241.911 76.3739C242.327 76.1333 242.584 75.6875 242.584 75.2057C242.584 75.1517 242.584 75.0995 242.584 75.0485Z" fill="white"/>
<path fill-rule="evenodd" clip-rule="evenodd" d="M227.959 249.671L187.602 226.322V231.503L227.959 254.852V249.671Z" fill="#262725"/>
<path fill-rule="evenodd" clip-rule="evenodd" d="M227.959 249.671L187.602 226.322V231.503L227.959 254.852V249.671Z" stroke="#262725" stroke-width="2" stroke-linecap="round" stroke-linejoin="round"/>
<path fill-rule="evenodd" clip-rule="evenodd" d="M207.78 247.789L187.602 236.115V241.296L207.78 252.97V247.789Z" fill="#262725"/>
<path fill-rule="evenodd" clip-rule="evenodd" d="M207.78 247.789L187.602 236.115V241.296L207.78 252.97V247.789Z" stroke="#262725" stroke-width="2" stroke-linecap="round" stroke-linejoin="round"/>
</g>
</g>
<defs>
<clipPath id="clip0_1680_7781">
<rect width="437" height="360" rx="20" fill="white"/>
</clipPath>
<clipPath id="clip1_1680_7781">
<rect x="-21" width="479" height="360" rx="10" fill="white"/>
</clipPath>
</defs>
</svg>
