<svg width="36" height="36" viewBox="0 0 36 36" fill="none" xmlns="http://www.w3.org/2000/svg">
<circle cx="18" cy="18" r="18" fill="#26262A"/>
<path fill-rule="evenodd" clip-rule="evenodd" d="M15.6013 11.4468C15.6013 11.4468 16.7139 11.214 17.9992 11.214C19.2845 11.214 20.3971 11.4468 20.3971 11.4468L20.8421 10.5289C20.936 10.3351 21.1428 10.222 21.3539 10.256C23.5 10.6021 25.5 11.75 25.5 11.75C25.5 11.75 27.9984 14.25 27.9984 23.0673C27.9994 23.2261 27.9255 23.3801 27.7976 23.4725C26.1572 24.6572 24.1649 25.4353 23.3611 25.7224C23.1481 25.7985 22.9148 25.7127 22.7934 25.5205L22.2309 24.6301C22.0769 24.3864 22.1569 24.0622 22.4061 23.9198L23.5816 23.2483L23.1061 22.8731C23.1061 22.8731 21.2041 24.0247 17.9992 24.0247C14.7943 24.0247 12.8923 22.8731 12.8923 22.8731L12.4169 23.2483L13.5923 23.9198C13.8415 24.0622 13.9215 24.3864 13.7675 24.6301L13.205 25.5205C13.0836 25.7127 12.8503 25.7985 12.6373 25.7224C11.8335 25.4353 9.84117 24.6572 8.2008 23.4725C8.07286 23.3801 7.99901 23.2261 8.00001 23.0673C8.00001 14.25 10.5 11.75 10.5 11.75C10.5 11.75 12.5 10.6019 14.6445 10.256C14.8557 10.222 15.0624 10.3351 15.1563 10.5289L15.6013 11.4468ZM23.25 18.75C23.25 19.8546 22.4665 20.75 21.5 20.75C20.5335 20.75 19.75 19.8546 19.75 18.75C19.75 17.6454 20.5335 16.75 21.5 16.75C22.4665 16.75 23.25 17.6454 23.25 18.75ZM14.5 20.75C15.4665 20.75 16.25 19.8546 16.25 18.75C16.25 17.6454 15.4665 16.75 14.5 16.75C13.5335 16.75 12.75 17.6454 12.75 18.75C12.75 19.8546 13.5335 20.75 14.5 20.75Z" fill="white"/>
</svg>
