<svg width="36" height="36" viewBox="0 0 36 36" fill="none" xmlns="http://www.w3.org/2000/svg">
<g clip-path="url(#clip0_2384_748)">
<path d="M18 0C8.05888 0 0 8.13337 0 18.1664C0 27.0095 6.26067 34.3768 14.5527 36V31.0836C14.4695 31.0727 14.3746 31.058 14.2691 31.0377C13.9072 30.9684 13.4209 30.8354 12.854 30.5816C11.7116 30.0702 10.2846 29.0873 8.9019 27.2274L10.9109 25.7062C12.0398 27.2247 13.1277 27.9311 13.8723 28.2644C14.1428 28.3856 14.3739 28.4599 14.5527 28.5058V27.7582C14.5527 27.144 14.7339 26.6102 15.0259 26.128C15.2262 25.7971 15.089 25.3276 14.727 25.2239C11.7297 24.3651 9.62791 22.9842 9.62791 18.404C9.62791 17.2132 10.0022 16.0937 10.6603 15.1192C10.6735 15.0996 10.6862 15.0808 10.6983 15.0629C10.8362 14.8593 10.9053 14.7573 10.9254 14.6464C10.9456 14.5351 10.9167 14.4147 10.8588 14.1737C10.8536 14.1521 10.8482 14.1295 10.8426 14.1059C10.6019 13.0979 10.5826 12.0359 10.8516 11.0453C10.94 10.7196 11.1295 10.5297 11.4725 10.5664C11.9175 10.6139 12.688 10.8265 13.8307 11.5706C14.2797 11.8629 14.5042 12.0091 14.7019 12.0418C14.8996 12.0745 15.1639 12.006 15.6927 11.869C16.4155 11.6817 17.1604 11.5812 18 11.5812C18.8396 11.5812 19.5845 11.6817 20.3073 11.869C20.8361 12.006 21.1004 12.0745 21.2981 12.0418C21.4958 12.0091 21.7204 11.863 22.1693 11.5706C23.3121 10.8265 24.0825 10.6139 24.5274 10.5664C24.8705 10.5297 25.06 10.7196 25.1484 11.0453C25.4173 12.0359 25.3981 13.0978 25.1575 14.1059C25.1518 14.1295 25.1464 14.1521 25.1412 14.1737C25.0833 14.4147 25.0543 14.5351 25.0746 14.6464C25.0934 14.7501 25.1551 14.846 25.2757 15.0245C25.2837 15.0364 25.292 15.0487 25.3006 15.0614L25.3016 15.0629C25.3139 15.0808 25.3264 15.0996 25.3396 15.1192C25.9977 16.0935 26.3721 17.2132 26.3721 18.404C26.3721 22.9842 24.2702 24.3651 21.273 25.2239C20.911 25.3276 20.7738 25.7971 20.9741 26.128C21.2661 26.6102 21.4473 27.144 21.4473 27.7582V36C29.7393 34.3768 36 27.0095 36 18.1664C36 8.13337 27.9412 0 18 0Z" fill="#26262A"/>
<path fill-rule="evenodd" clip-rule="evenodd" d="M25.3006 15.0614C25.292 15.0487 25.2837 15.0364 25.2757 15.0245L25.3006 15.0614Z" fill="#26262A"/>
<path d="M14.5525 31.0827V35.9992H21.4471V27.7573C21.4471 27.1432 21.266 26.6094 20.9739 26.1271C20.7737 25.7963 20.9108 25.3268 21.2728 25.2231C24.27 24.3643 26.3719 22.9834 26.3719 18.4032C26.3719 17.2124 25.9975 16.0927 25.3395 15.1183L25.3015 15.0621L25.3004 15.0605L25.2755 15.0237C25.1549 14.8452 25.0932 14.7493 25.0744 14.6455C25.0542 14.5343 25.0831 14.4139 25.1411 14.1728L25.1573 14.1051C25.3979 13.097 25.4172 12.0351 25.1483 11.0444C25.0599 10.7188 24.8703 10.5289 24.5272 10.5655C24.0823 10.6131 23.3119 10.8257 22.1691 11.5698C21.7202 11.8621 21.4957 12.0083 21.2979 12.041C21.1002 12.0737 20.836 12.0052 20.3072 11.8682C19.5843 11.6809 18.8394 11.5804 17.9998 11.5804C17.1603 11.5804 16.4153 11.6809 15.6925 11.8682C15.1637 12.0052 14.8995 12.0737 14.7017 12.041C14.504 12.0083 14.2795 11.8621 13.8305 11.5698C12.6878 10.8257 11.9173 10.6131 11.4724 10.5655C11.1294 10.5289 10.9398 10.7188 10.8514 11.0444C10.5824 12.0351 10.6017 13.097 10.8424 14.1051L10.8587 14.1729C10.9166 14.4139 10.9455 14.5343 10.9253 14.6455C10.9051 14.7565 10.8361 14.8585 10.6982 15.0621L10.6601 15.1183C10.0021 16.0928 9.62774 17.2124 9.62774 18.4032C9.62774 22.9834 11.7296 24.3643 14.7269 25.2231C15.0889 25.3268 15.226 25.7963 15.0257 26.1271C14.7337 26.6094 14.5525 27.1432 14.5525 27.7573V28.505C14.3738 28.4591 14.1427 28.3848 13.8721 28.2635C13.1275 27.9303 12.0397 27.2239 10.9108 25.7053L8.90173 27.2266C10.2844 29.0865 11.7115 30.0694 12.8538 30.5807C13.4208 30.8346 13.9071 30.9675 14.2689 31.0369C14.3745 31.0571 14.4693 31.0719 14.5525 31.0827Z" fill="white"/>
</g>
<defs>
<clipPath id="clip0_2384_748">
<rect width="36" height="36" fill="white"/>
</clipPath>
</defs>
</svg>
