<svg width="130" height="22" viewBox="0 0 130 22" fill="none" xmlns="http://www.w3.org/2000/svg">
<path d="M14.8857 3L11.074 18.4858L12.7782 19L16.59 3.51418L14.8857 3ZM8.88407 4.10901L1.84704 10.2388L0.976562 11.005L1.84704 11.7612L8.88407 17.891L9.98361 16.3686L3.81706 11.005L9.98361 5.63136L8.88407 4.10901ZM18.7799 4.10901L17.6804 5.63138L23.8469 11.005L17.6804 16.3686L18.7799 17.891L25.8169 11.7612L26.6874 11.005L25.8169 10.2388L18.7799 4.10901Z" fill="url(#paint0_linear_2056_452)"/>
<path d="M39.2878 7.432C38.3598 7.432 37.6504 7.77867 37.1598 8.472C36.6691 9.16533 36.4238 10.1147 36.4238 11.32C36.4238 12.536 36.6478 13.48 37.0958 14.152C37.5544 14.8133 38.2851 15.144 39.2878 15.144C39.7571 15.144 40.2211 15.0907 40.6798 14.984C41.1491 14.8773 41.6558 14.728 42.1998 14.536V16.568C41.6984 16.7707 41.2024 16.92 40.7118 17.016C40.2211 17.112 39.6718 17.16 39.0638 17.16C37.8904 17.16 36.9198 16.92 36.1518 16.44C35.3944 15.9493 34.8344 15.2667 34.4718 14.392C34.1091 13.5067 33.9278 12.4773 33.9278 11.304C33.9278 10.152 34.1358 9.13333 34.5518 8.248C34.9678 7.36267 35.5704 6.66933 36.3598 6.168C37.1598 5.66667 38.1358 5.416 39.2878 5.416C39.8531 5.416 40.4184 5.49067 40.9838 5.64C41.5598 5.77867 42.1091 5.97067 42.6318 6.216L41.8478 8.184C41.4211 7.98133 40.9891 7.80533 40.5518 7.656C40.1251 7.50667 39.7038 7.432 39.2878 7.432ZM54.6828 11.272C54.6828 12.456 54.4854 13.4907 54.0908 14.376C53.7068 15.2507 53.1148 15.9333 52.3148 16.424C51.5148 16.9147 50.4908 17.16 49.2428 17.16C48.0054 17.16 46.9814 16.9147 46.1708 16.424C45.3708 15.9333 44.7734 15.2453 44.3788 14.36C43.9948 13.4747 43.8028 12.44 43.8028 11.256C43.8028 10.072 43.9948 9.04267 44.3788 8.168C44.7734 7.29333 45.3708 6.616 46.1708 6.136C46.9814 5.64533 48.0108 5.4 49.2588 5.4C50.4961 5.4 51.5148 5.64533 52.3148 6.136C53.1148 6.616 53.7068 7.29867 54.0908 8.184C54.4854 9.05867 54.6828 10.088 54.6828 11.272ZM46.3468 11.272C46.3468 12.4667 46.5761 13.4107 47.0348 14.104C47.4934 14.7867 48.2294 15.128 49.2428 15.128C50.2774 15.128 51.0188 14.7867 51.4668 14.104C51.9148 13.4107 52.1388 12.4667 52.1388 11.272C52.1388 10.0667 51.9148 9.12267 51.4668 8.44C51.0188 7.75733 50.2828 7.416 49.2588 7.416C48.2348 7.416 47.4934 7.75733 47.0348 8.44C46.5761 9.12267 46.3468 10.0667 46.3468 11.272ZM60.3771 5.576C61.9345 5.576 63.0811 5.85867 63.8171 6.424C64.5638 6.98933 64.9371 7.848 64.9371 9C64.9371 9.52267 64.8358 9.98133 64.6331 10.376C64.4411 10.76 64.1798 11.0907 63.8491 11.368C63.5291 11.6347 63.1825 11.8533 62.8091 12.024L66.1691 17H63.4811L60.7611 12.616H59.4651V17H57.0491V5.576H60.3771ZM60.2011 7.56H59.4651V10.648H60.2491C61.0491 10.648 61.6198 10.5147 61.9611 10.248C62.3131 9.98133 62.4891 9.58667 62.4891 9.064C62.4891 8.52 62.3025 8.136 61.9291 7.912C61.5665 7.67733 60.9905 7.56 60.2011 7.56ZM72.0116 17H69.5956V7.592H66.4916V5.576H75.1156V7.592H72.0116V17ZM83.4533 17H76.8773V5.576H83.4533V7.56H79.2933V10.072H83.1653V12.056H79.2933V15H83.4533V17ZM95.9584 17H92.8864L87.9104 8.36H87.8464C87.8677 8.904 87.889 9.448 87.9104 9.992C87.9424 10.536 87.969 11.08 87.9904 11.624V17H85.8304V5.576H88.8864L93.8464 14.136H93.8944C93.8837 13.784 93.873 13.432 93.8624 13.08C93.8517 12.728 93.8357 12.3813 93.8144 12.04C93.8037 11.688 93.793 11.336 93.7824 10.984V5.576H95.9584V17ZM105.582 13.832C105.582 14.8453 105.214 15.656 104.478 16.264C103.753 16.8613 102.718 17.16 101.374 17.16C100.787 17.16 100.217 17.1013 99.662 16.984C99.118 16.8667 98.6113 16.696 98.142 16.472V14.216C98.686 14.4507 99.246 14.6693 99.822 14.872C100.409 15.064 100.99 15.16 101.566 15.16C102.163 15.16 102.585 15.048 102.83 14.824C103.086 14.5893 103.214 14.296 103.214 13.944C103.214 13.656 103.113 13.4107 102.91 13.208C102.718 13.0053 102.457 12.8187 102.126 12.648C101.795 12.4667 101.417 12.2747 100.99 12.072C100.723 11.944 100.435 11.7947 100.126 11.624C99.8167 11.4427 99.518 11.224 99.23 10.968C98.9527 10.7013 98.7233 10.3813 98.542 10.008C98.3607 9.63467 98.27 9.18667 98.27 8.664C98.27 7.98133 98.4247 7.4 98.734 6.92C99.054 6.42933 99.502 6.056 100.078 5.8C100.665 5.544 101.353 5.416 102.142 5.416C102.739 5.416 103.305 5.48533 103.838 5.624C104.382 5.76267 104.947 5.96 105.534 6.216L104.75 8.104C104.227 7.89067 103.758 7.72533 103.342 7.608C102.926 7.49067 102.499 7.432 102.062 7.432C101.603 7.432 101.251 7.53867 101.006 7.752C100.761 7.96533 100.638 8.24267 100.638 8.584C100.638 8.85067 100.718 9.08 100.878 9.272C101.038 9.45333 101.278 9.62933 101.598 9.8C101.918 9.97067 102.318 10.1733 102.798 10.408C103.385 10.6853 103.881 10.9733 104.286 11.272C104.702 11.5707 105.022 11.9227 105.246 12.328C105.47 12.7333 105.582 13.2347 105.582 13.832ZM118.027 11.272C118.027 12.456 117.829 13.4907 117.435 14.376C117.051 15.2507 116.459 15.9333 115.659 16.424C114.859 16.9147 113.835 17.16 112.587 17.16C111.349 17.16 110.325 16.9147 109.515 16.424C108.715 15.9333 108.117 15.2453 107.723 14.36C107.339 13.4747 107.147 12.44 107.147 11.256C107.147 10.072 107.339 9.04267 107.723 8.168C108.117 7.29333 108.715 6.616 109.515 6.136C110.325 5.64533 111.355 5.4 112.603 5.4C113.84 5.4 114.859 5.64533 115.659 6.136C116.459 6.616 117.051 7.29867 117.435 8.184C117.829 9.05867 118.027 10.088 118.027 11.272ZM109.691 11.272C109.691 12.4667 109.92 13.4107 110.379 14.104C110.837 14.7867 111.573 15.128 112.587 15.128C113.621 15.128 114.363 14.7867 114.811 14.104C115.259 13.4107 115.483 12.4667 115.483 11.272C115.483 10.0667 115.259 9.12267 114.811 8.44C114.363 7.75733 113.627 7.416 112.603 7.416C111.579 7.416 110.837 7.75733 110.379 8.44C109.92 9.12267 109.691 10.0667 109.691 11.272ZM123.721 5.576C125.278 5.576 126.425 5.85867 127.161 6.424C127.908 6.98933 128.281 7.848 128.281 9C128.281 9.52267 128.18 9.98133 127.977 10.376C127.785 10.76 127.524 11.0907 127.193 11.368C126.873 11.6347 126.526 11.8533 126.153 12.024L129.513 17H126.825L124.105 12.616H122.809V17H120.393V5.576H123.721ZM123.545 7.56H122.809V10.648H123.593C124.393 10.648 124.964 10.5147 125.305 10.248C125.657 9.98133 125.833 9.58667 125.833 9.064C125.833 8.52 125.646 8.136 125.273 7.912C124.91 7.67733 124.334 7.56 123.545 7.56Z" fill="#26262A"/>
<defs>
<linearGradient id="paint0_linear_2056_452" x1="1" y1="11" x2="27" y2="11" gradientUnits="userSpaceOnUse">
<stop stop-color="#304B6A"/>
<stop offset="1" stop-color="#1560BD"/>
</linearGradient>
</defs>
</svg>
