<svg width="36" height="36" viewBox="0 0 36 36" fill="none" xmlns="http://www.w3.org/2000/svg">
<circle cx="18" cy="18" r="18" fill="#26262A"/>
<path d="M19.2639 24.2639L17.037 21.7826C15.9346 20.5541 15.804 20.0143 15.8766 19.898L16.7124 19.2383L20.1 16.6414C20.3732 16.432 20.4214 16.0453 20.2077 15.7776C19.9941 15.5099 19.5994 15.4626 19.3262 15.672L15.9351 18.2715L14.9153 19.0872C14.6772 19.3377 14.5254 19.7659 14.691 20.3748C14.8455 20.9431 15.279 21.6942 16.2018 22.7253L15.861 23.3841C15.6408 23.684 15.4365 23.9625 15.2483 24.1533C15.0614 24.3429 14.7218 24.6217 14.2487 24.5294C13.7819 24.4384 13.5724 24.0602 13.4687 23.8175C13.3634 23.5709 13.2741 23.2366 13.1773 22.8739L12.7575 21.3014C12.5243 20.428 12.4437 20.1769 12.292 19.9922C12.2728 19.9689 12.2529 19.9463 12.2322 19.9246C12.072 19.7565 11.8457 19.6531 11.0169 19.3275L10.9715 19.3096C10.1547 18.9888 9.48192 18.7245 9.01134 18.4648C8.55544 18.2133 8.06313 17.8476 8.00649 17.2305C7.99769 17.1345 7.99784 17.0381 8.00694 16.9421C8.06551 16.3252 8.55905 15.961 9.01575 15.711C9.48716 15.4528 10.1608 15.1907 10.9786 14.8726L21.0118 10.9686C22.0381 10.5693 22.8773 10.2427 23.5367 10.0938C24.2089 9.94203 24.9034 9.92596 25.4476 10.4193C25.9811 10.9029 26.0449 11.5841 25.9785 12.2707C25.9125 12.9519 25.6957 13.8378 25.4282 14.9306L23.4024 23.207C23.2319 23.9036 23.088 24.4917 22.9154 24.9183C22.7411 25.3494 22.4614 25.8123 21.8964 25.9587C21.3246 26.1069 20.852 25.8307 20.4928 25.5327C20.14 25.2401 19.7376 24.7918 19.2639 24.2639Z" fill="white"/>
</svg>
